{"glyphs":{"0":{"ha":860,"x_min":80,"x_max":791,"o":"m 436 346 q 379 367 403 346 q 356 427 356 388 q 379 488 356 467 q 436 508 403 508 q 493 488 469 508 q 517 427 517 467 q 493 367 517 388 q 436 346 469 346 m 436 -15 q 305 8 369 -15 q 190 82 241 31 q 110 218 140 133 q 80 428 80 303 q 110 637 80 552 q 190 773 140 722 q 305 846 241 824 q 436 869 369 869 q 568 846 504 869 q 681 773 631 824 q 761 637 731 722 q 791 428 791 552 q 761 218 791 303 q 681 82 731 133 q 568 8 631 31 q 436 -15 504 -15 m 436 142 q 499 168 470 142 q 545 256 528 194 q 563 428 563 319 q 545 598 563 536 q 499 686 528 660 q 436 713 470 713 q 372 686 401 713 q 325 598 343 660 q 308 428 308 536 q 325 256 308 319 q 372 168 343 194 q 436 142 401 142 z "},"1":{"ha":860,"x_min":121,"x_max":745,"o":"m 258 0 q 166 20 196 0 q 136 78 136 41 q 258 156 136 156 l 333 156 l 333 651 q 278 629 310 637 q 215 621 247 621 q 172 627 194 621 q 135 651 150 634 q 121 698 121 667 q 136 747 121 729 q 173 772 151 764 q 215 780 194 779 q 296 796 264 781 q 350 830 328 810 q 392 855 369 844 q 451 866 415 866 q 528 832 506 866 q 549 723 549 797 l 549 156 l 623 156 q 745 78 745 156 q 715 20 745 41 q 623 0 685 0 l 258 0 z "},"2":{"ha":860,"x_min":97,"x_max":757,"o":"m 731 606 q 700 487 731 547 q 623 372 669 427 q 525 272 576 317 q 433 197 474 227 q 374 156 392 167 l 635 156 q 727 136 697 156 q 757 78 757 116 q 727 20 757 40 q 635 0 697 0 l 215 0 q 125 26 152 0 q 98 90 98 52 q 120 153 98 130 q 184 209 142 177 q 264 273 220 236 q 351 350 308 309 q 432 435 395 392 q 490 520 468 478 q 513 599 513 562 q 486 683 513 653 q 415 713 460 713 q 347 693 378 713 q 288 650 315 674 q 240 615 264 631 q 188 600 215 600 q 126 624 156 600 q 97 682 97 649 q 158 783 97 735 q 268 843 202 819 q 419 868 335 868 q 646 805 560 868 q 731 606 731 742 z "},"3":{"ha":860,"x_min":133,"x_max":764,"o":"m 133 142 q 159 205 133 178 q 220 231 185 231 q 273 217 247 231 q 320 182 299 203 q 365 152 339 163 q 424 140 390 140 q 491 154 463 140 q 533 192 519 167 q 547 249 547 216 q 527 306 547 283 q 476 342 507 329 q 413 358 445 356 q 350 381 378 363 q 323 436 323 399 q 350 493 323 478 q 413 514 378 508 q 472 530 445 517 q 513 564 498 542 q 528 617 528 585 q 517 668 528 647 q 483 701 506 690 q 426 713 460 713 q 375 703 406 713 q 317 669 344 694 q 270 633 290 646 q 222 621 251 621 q 163 647 186 621 q 139 708 139 672 q 194 797 139 759 q 296 849 236 828 q 426 869 356 869 q 583 845 510 869 q 701 772 656 822 q 746 643 746 722 q 723 550 746 592 q 663 479 701 508 q 579 440 624 451 q 674 400 633 426 q 740 334 716 374 q 764 238 764 294 q 717 100 764 157 q 593 14 670 44 q 427 -15 517 -15 q 291 5 352 -15 q 185 57 229 24 q 145 99 157 76 q 133 142 133 121 z "},"4":{"ha":860,"x_min":65,"x_max":797,"o":"m 565 -13 q 483 14 513 -13 q 453 108 453 41 l 453 206 l 194 206 q 99 232 133 206 q 65 308 65 258 q 73 362 65 331 q 88 421 81 393 l 208 792 q 248 851 220 832 q 310 869 276 869 q 371 847 344 869 q 399 781 399 824 q 398 764 399 773 q 394 744 397 755 l 274 362 l 455 362 l 455 656 q 470 721 455 698 q 510 755 486 744 q 558 765 534 765 q 606 755 583 765 q 645 721 630 744 q 661 656 661 698 l 661 362 l 701 362 q 771 342 746 362 q 797 284 797 322 q 771 226 797 246 q 701 206 746 206 l 661 206 l 661 108 q 633 14 661 41 q 565 -13 604 -13 z "},"5":{"ha":860,"x_min":92,"x_max":769,"o":"m 474 576 q 621 547 554 576 q 728 455 688 518 q 769 288 769 392 q 738 154 769 211 q 653 59 707 97 q 533 4 600 22 q 394 -15 465 -15 q 269 -1 328 -15 q 167 40 210 13 q 113 88 133 60 q 92 145 92 116 q 114 206 92 181 q 180 231 136 231 q 232 219 213 231 q 269 192 252 208 q 320 157 291 172 q 394 142 349 142 q 474 158 440 142 q 528 206 508 174 q 547 284 547 238 q 508 387 547 349 q 408 424 469 424 q 335 410 362 424 q 281 368 308 395 q 246 343 265 353 q 203 333 227 333 q 130 356 153 333 q 106 430 106 379 q 110 472 106 439 q 120 549 114 505 q 134 639 127 594 q 147 719 142 684 q 155 766 152 754 q 193 837 163 815 q 283 860 224 860 l 626 860 q 718 840 693 860 q 743 782 743 819 q 718 724 743 744 q 626 703 693 703 l 339 703 l 314 521 q 381 561 342 547 q 474 576 419 576 z "},"6":{"ha":860,"x_min":75,"x_max":776,"o":"m 507 581 q 702 509 628 581 q 776 291 776 437 q 733 129 776 198 q 612 23 690 60 q 429 -15 534 -15 q 241 31 321 -15 q 118 172 161 76 q 75 419 75 267 q 110 618 75 534 q 205 758 145 703 q 338 840 264 813 q 492 867 413 867 q 609 849 553 867 q 701 799 665 831 q 738 728 738 768 q 719 672 738 693 q 662 650 700 650 q 611 659 631 650 q 574 681 591 668 q 538 702 558 693 q 488 711 519 711 q 403 690 442 711 q 339 624 365 668 q 303 514 313 581 q 302 503 303 508 q 300 492 301 498 q 394 557 340 534 q 507 581 449 581 m 306 273 q 351 169 320 197 q 426 142 383 142 q 522 177 486 142 q 558 291 558 213 q 539 373 558 344 q 492 415 521 403 q 433 426 464 426 q 375 412 404 426 q 327 364 347 398 q 306 273 308 331 z "},"7":{"ha":860,"x_min":142,"x_max":743,"o":"m 142 782 q 171 840 142 819 q 259 860 201 860 l 615 860 q 743 761 743 860 q 732 695 743 723 q 697 631 720 668 q 612 479 654 563 q 542 302 569 395 q 514 110 514 209 q 404 -12 514 -12 q 320 23 349 -12 q 292 122 292 57 q 315 298 292 210 q 376 464 339 385 q 454 605 413 543 q 529 703 494 667 l 259 703 q 171 724 201 703 q 142 782 142 744 z "},"8":{"ha":860,"x_min":78,"x_max":778,"o":"m 429 -15 q 245 17 324 -15 q 122 106 166 48 q 78 244 78 164 q 121 384 78 331 q 229 464 165 437 q 148 537 180 492 q 116 640 116 581 q 158 765 116 715 q 271 842 200 816 q 429 868 342 868 q 587 842 516 868 q 699 765 658 816 q 741 640 741 715 q 709 536 741 581 q 628 464 678 492 q 735 384 692 437 q 778 244 778 331 q 735 106 778 164 q 613 17 692 48 q 429 -15 534 -15 m 290 258 q 332 169 290 197 q 429 141 374 141 q 526 169 485 141 q 567 258 567 197 q 548 326 567 300 q 497 365 528 352 q 429 377 465 377 q 362 365 394 377 q 310 326 330 352 q 290 258 290 300 m 316 624 q 346 558 316 584 q 429 532 376 532 q 511 558 481 532 q 542 624 542 584 q 509 689 542 665 q 429 713 477 713 q 349 689 381 713 q 316 624 316 665 z "},"9":{"ha":860,"x_min":77,"x_max":767,"o":"m 413 869 q 598 831 519 869 q 722 710 678 793 q 767 490 767 627 q 708 220 767 328 q 537 59 649 113 q 266 5 425 5 q 168 29 202 5 q 134 90 134 53 q 167 150 134 128 q 262 172 199 172 q 391 192 338 172 q 476 250 444 211 q 522 346 508 289 q 441 297 487 316 q 342 278 395 278 q 203 312 263 278 q 110 410 143 346 q 77 568 77 474 q 117 728 77 661 q 232 832 157 796 q 413 869 307 869 m 294 567 q 309 486 294 518 q 350 440 324 455 q 410 425 376 425 q 473 440 446 425 q 518 487 500 456 q 540 564 535 518 q 517 655 535 623 q 473 700 500 688 q 413 713 447 713 q 324 677 353 713 q 294 567 294 642 z "},"A":{"ha":860,"x_min":47,"x_max":812,"o":"m 150 -13 q 75 13 103 -13 q 47 85 47 39 q 49 106 47 96 q 53 128 50 117 l 238 733 q 295 825 253 789 q 390 861 338 861 l 469 861 q 564 825 522 861 q 622 733 606 789 l 806 128 q 810 106 809 117 q 812 85 812 96 q 784 13 812 38 q 709 -13 756 -13 q 625 15 652 -13 q 584 101 597 44 l 558 190 l 301 190 l 275 101 q 234 15 262 44 q 150 -13 207 -13 m 339 351 l 521 351 l 442 647 q 436 677 439 663 q 430 702 433 691 q 424 677 427 691 q 417 647 420 663 l 339 351 z "},"Á":{"ha":860,"x_min":47,"x_max":812,"o":"m 150 -13 q 75 13 103 -13 q 47 85 47 39 q 49 106 47 96 q 53 128 50 117 l 238 733 q 295 825 253 789 q 390 861 338 861 l 469 861 q 564 825 522 861 q 622 733 606 789 l 806 128 q 810 106 809 117 q 812 85 812 96 q 784 13 812 38 q 709 -13 756 -13 q 625 15 652 -13 q 584 101 597 44 l 558 190 l 301 190 l 275 101 q 234 15 262 44 q 150 -13 207 -13 m 339 351 l 521 351 l 442 647 q 436 677 439 663 q 430 702 433 691 q 424 677 427 691 q 417 647 420 663 l 339 351 m 409 914 q 379 923 390 914 q 368 949 368 933 q 393 1008 368 974 l 421 1045 q 475 1101 451 1087 q 545 1115 499 1115 l 578 1115 q 619 1103 604 1115 q 633 1072 633 1090 q 604 1019 633 1045 l 554 974 q 483 928 517 942 q 409 914 448 914 z "},"Ă":{"ha":860,"x_min":47,"x_max":812,"o":"m 150 -13 q 75 13 103 -13 q 47 85 47 39 q 49 106 47 96 q 53 128 50 117 l 238 733 q 295 825 253 789 q 390 861 338 861 l 469 861 q 564 825 522 861 q 622 733 606 789 l 806 128 q 810 106 809 117 q 812 85 812 96 q 784 13 812 38 q 709 -13 756 -13 q 625 15 652 -13 q 584 101 597 44 l 558 190 l 301 190 l 275 101 q 234 15 262 44 q 150 -13 207 -13 m 339 351 l 521 351 l 442 647 q 436 677 439 663 q 430 702 433 691 q 424 677 427 691 q 417 647 420 663 l 339 351 m 544 1108 q 591 1093 574 1108 q 607 1053 607 1077 q 599 1018 607 1037 q 573 981 592 999 q 516 934 551 953 q 428 915 480 915 q 348 932 381 915 q 293 972 315 948 q 260 1012 270 991 q 251 1051 251 1033 q 268 1092 251 1076 q 313 1108 285 1108 q 365 1092 349 1108 q 384 1057 380 1076 q 396 1030 387 1042 q 429 1017 405 1017 q 462 1030 453 1017 q 474 1057 471 1042 q 493 1092 477 1076 q 544 1108 508 1108 z "},"Ắ":{"ha":860,"x_min":47,"x_max":812,"o":"m 150 -13 q 75 13 103 -13 q 47 85 47 39 q 49 106 47 96 q 53 128 50 117 l 238 733 q 295 825 253 789 q 390 861 338 861 l 469 861 q 564 825 522 861 q 622 733 606 789 l 806 128 q 810 106 809 117 q 812 85 812 96 q 784 13 812 38 q 709 -13 756 -13 q 625 15 652 -13 q 584 101 597 44 l 558 190 l 301 190 l 275 101 q 234 15 262 44 q 150 -13 207 -13 m 339 351 l 521 351 l 442 647 q 436 677 439 663 q 430 702 433 691 q 424 677 427 691 q 417 647 420 663 l 339 351 m 544 1108 q 591 1093 574 1108 q 607 1053 607 1077 q 599 1018 607 1037 q 573 981 592 999 q 516 934 551 953 q 428 915 480 915 q 348 932 381 915 q 293 972 315 948 q 260 1012 270 991 q 251 1051 251 1033 q 268 1092 251 1076 q 313 1108 285 1108 q 365 1092 349 1108 q 384 1057 380 1076 q 396 1030 387 1042 q 429 1017 405 1017 q 462 1030 453 1017 q 474 1057 471 1042 q 493 1092 477 1076 q 544 1108 508 1108 m 409 1160 q 379 1170 390 1160 q 368 1195 368 1179 q 393 1255 368 1220 l 421 1292 q 475 1348 451 1333 q 545 1362 499 1362 l 578 1362 q 619 1349 604 1362 q 633 1318 633 1337 q 604 1265 633 1292 l 554 1220 q 483 1174 517 1188 q 409 1160 448 1160 z "},"Ặ":{"ha":860,"x_min":47,"x_max":812,"o":"m 150 -13 q 75 13 103 -13 q 47 85 47 39 q 49 106 47 96 q 53 128 50 117 l 238 733 q 295 825 253 789 q 390 861 338 861 l 469 861 q 564 825 522 861 q 622 733 606 789 l 806 128 q 810 106 809 117 q 812 85 812 96 q 784 13 812 38 q 709 -13 756 -13 q 625 15 652 -13 q 584 101 597 44 l 558 190 l 301 190 l 275 101 q 234 15 262 44 q 150 -13 207 -13 m 339 351 l 521 351 l 442 647 q 436 677 439 663 q 430 702 433 691 q 424 677 427 691 q 417 647 420 663 l 339 351 m 430 -285 q 349 -251 382 -285 q 315 -169 315 -217 q 349 -87 315 -120 q 430 -53 382 -53 q 511 -87 478 -53 q 544 -169 544 -120 q 511 -253 544 -221 q 430 -285 478 -285 m 544 1108 q 591 1093 574 1108 q 607 1053 607 1077 q 599 1018 607 1037 q 573 981 592 999 q 516 934 551 953 q 428 915 480 915 q 348 932 381 915 q 293 972 315 948 q 260 1012 270 991 q 251 1051 251 1033 q 268 1092 251 1076 q 313 1108 285 1108 q 365 1092 349 1108 q 384 1057 380 1076 q 396 1030 387 1042 q 429 1017 405 1017 q 462 1030 453 1017 q 474 1057 471 1042 q 493 1092 477 1076 q 544 1108 508 1108 z "},"Ằ":{"ha":860,"x_min":47,"x_max":812,"o":"m 150 -13 q 75 13 103 -13 q 47 85 47 39 q 49 106 47 96 q 53 128 50 117 l 238 733 q 295 825 253 789 q 390 861 338 861 l 469 861 q 564 825 522 861 q 622 733 606 789 l 806 128 q 810 106 809 117 q 812 85 812 96 q 784 13 812 38 q 709 -13 756 -13 q 625 15 652 -13 q 584 101 597 44 l 558 190 l 301 190 l 275 101 q 234 15 262 44 q 150 -13 207 -13 m 339 351 l 521 351 l 442 647 q 436 677 439 663 q 430 702 433 691 q 424 677 427 691 q 417 647 420 663 l 339 351 m 544 1108 q 591 1093 574 1108 q 607 1053 607 1077 q 599 1018 607 1037 q 573 981 592 999 q 516 934 551 953 q 428 915 480 915 q 348 932 381 915 q 293 972 315 948 q 260 1012 270 991 q 251 1051 251 1033 q 268 1092 251 1076 q 313 1108 285 1108 q 365 1092 349 1108 q 384 1057 380 1076 q 396 1030 387 1042 q 429 1017 405 1017 q 462 1030 453 1017 q 474 1057 471 1042 q 493 1092 477 1076 q 544 1108 508 1108 m 470 1155 q 397 1168 432 1155 q 325 1213 363 1182 l 276 1259 q 247 1312 247 1285 q 261 1343 247 1331 q 301 1356 276 1356 l 335 1356 q 405 1341 381 1356 q 458 1285 428 1327 l 486 1248 q 512 1189 512 1213 q 501 1164 512 1173 q 470 1155 490 1155 z "},"Ẳ":{"ha":860,"x_min":47,"x_max":812,"o":"m 150 -13 q 75 13 103 -13 q 47 85 47 39 q 49 106 47 96 q 53 128 50 117 l 238 733 q 295 825 253 789 q 390 861 338 861 l 469 861 q 564 825 522 861 q 622 733 606 789 l 806 128 q 810 106 809 117 q 812 85 812 96 q 784 13 812 38 q 709 -13 756 -13 q 625 15 652 -13 q 584 101 597 44 l 558 190 l 301 190 l 275 101 q 234 15 262 44 q 150 -13 207 -13 m 339 351 l 521 351 l 442 647 q 436 677 439 663 q 430 702 433 691 q 424 677 427 691 q 417 647 420 663 l 339 351 m 544 1108 q 591 1093 574 1108 q 607 1053 607 1077 q 599 1018 607 1037 q 573 981 592 999 q 516 934 551 953 q 428 915 480 915 q 348 932 381 915 q 293 972 315 948 q 260 1012 270 991 q 251 1051 251 1033 q 268 1092 251 1076 q 313 1108 285 1108 q 365 1092 349 1108 q 384 1057 380 1076 q 396 1030 387 1042 q 429 1017 405 1017 q 462 1030 453 1017 q 474 1057 471 1042 q 493 1092 477 1076 q 544 1108 508 1108 m 394 1160 q 354 1175 368 1160 q 340 1210 340 1189 q 353 1248 340 1232 q 394 1263 366 1263 q 451 1272 425 1263 q 478 1302 478 1281 q 452 1328 478 1323 q 401 1334 427 1334 q 359 1332 375 1334 q 327 1326 343 1331 q 311 1322 318 1323 q 297 1322 304 1322 q 269 1331 281 1322 q 258 1358 258 1340 q 299 1415 258 1395 q 407 1435 340 1435 q 500 1424 456 1435 q 573 1383 544 1412 q 601 1301 601 1353 q 567 1218 601 1249 q 485 1174 533 1188 q 394 1160 438 1160 z "},"Ẵ":{"ha":860,"x_min":47,"x_max":812,"o":"m 150 -13 q 75 13 103 -13 q 47 85 47 39 q 49 106 47 96 q 53 128 50 117 l 238 733 q 295 825 253 789 q 390 861 338 861 l 469 861 q 564 825 522 861 q 622 733 606 789 l 806 128 q 810 106 809 117 q 812 85 812 96 q 784 13 812 38 q 709 -13 756 -13 q 625 15 652 -13 q 584 101 597 44 l 558 190 l 301 190 l 275 101 q 234 15 262 44 q 150 -13 207 -13 m 339 351 l 521 351 l 442 647 q 436 677 439 663 q 430 702 433 691 q 424 677 427 691 q 417 647 420 663 l 339 351 m 544 1108 q 591 1093 574 1108 q 607 1053 607 1077 q 599 1018 607 1037 q 573 981 592 999 q 516 934 551 953 q 428 915 480 915 q 348 932 381 915 q 293 972 315 948 q 260 1012 270 991 q 251 1051 251 1033 q 268 1092 251 1076 q 313 1108 285 1108 q 365 1092 349 1108 q 384 1057 380 1076 q 396 1030 387 1042 q 429 1017 405 1017 q 462 1030 453 1017 q 474 1057 471 1042 q 493 1092 477 1076 q 544 1108 508 1108 m 510 1167 q 454 1178 474 1167 q 416 1202 434 1189 q 390 1220 403 1213 q 357 1226 376 1226 q 322 1220 338 1226 q 292 1207 306 1215 q 272 1197 281 1201 q 253 1193 262 1193 q 229 1206 239 1193 q 219 1238 219 1219 q 258 1313 219 1277 q 298 1337 275 1327 q 348 1347 320 1347 q 404 1338 384 1347 q 439 1315 424 1328 q 465 1294 451 1303 q 502 1286 478 1286 q 534 1292 521 1286 q 558 1306 547 1297 q 576 1316 567 1312 q 597 1320 585 1320 q 627 1309 613 1320 q 641 1274 641 1297 q 622 1225 641 1247 q 577 1186 605 1205 q 510 1167 549 1167 z "},"Ǎ":{"ha":860,"x_min":47,"x_max":812,"o":"m 150 -13 q 75 13 103 -13 q 47 85 47 39 q 49 106 47 96 q 53 128 50 117 l 238 733 q 295 825 253 789 q 390 861 338 861 l 469 861 q 564 825 522 861 q 622 733 606 789 l 806 128 q 810 106 809 117 q 812 85 812 96 q 784 13 812 38 q 709 -13 756 -13 q 625 15 652 -13 q 584 101 597 44 l 558 190 l 301 190 l 275 101 q 234 15 262 44 q 150 -13 207 -13 m 339 351 l 521 351 l 442 647 q 436 677 439 663 q 430 702 433 691 q 424 677 427 691 q 417 647 420 663 l 339 351 m 592 1019 l 564 990 q 502 933 531 952 q 430 913 474 913 q 356 933 385 913 q 294 990 327 952 l 267 1019 q 251 1055 251 1037 q 268 1093 251 1078 q 313 1108 285 1108 q 353 1095 337 1108 q 385 1065 369 1083 l 430 1011 l 474 1064 q 505 1095 488 1082 q 545 1108 522 1108 q 591 1093 574 1108 q 608 1055 608 1078 q 605 1038 608 1047 q 592 1019 601 1028 z "},"Â":{"ha":860,"x_min":47,"x_max":812,"o":"m 150 -13 q 75 13 103 -13 q 47 85 47 39 q 49 106 47 96 q 53 128 50 117 l 238 733 q 295 825 253 789 q 390 861 338 861 l 469 861 q 564 825 522 861 q 622 733 606 789 l 806 128 q 810 106 809 117 q 812 85 812 96 q 784 13 812 38 q 709 -13 756 -13 q 625 15 652 -13 q 584 101 597 44 l 558 190 l 301 190 l 275 101 q 234 15 262 44 q 150 -13 207 -13 m 339 351 l 521 351 l 442 647 q 436 677 439 663 q 430 702 433 691 q 424 677 427 691 q 417 647 420 663 l 339 351 m 592 997 q 609 961 609 979 q 592 923 609 938 q 547 908 574 908 q 506 921 523 908 q 475 951 490 934 l 430 1004 l 385 951 q 354 920 370 933 q 314 908 338 908 q 269 923 286 908 q 251 961 251 938 q 255 979 251 969 q 268 997 259 988 l 295 1026 q 357 1083 328 1064 q 430 1102 386 1102 q 503 1083 474 1102 q 565 1026 532 1065 l 592 997 z "},"Ấ":{"ha":860,"x_min":47,"x_max":812,"o":"m 150 -13 q 75 13 103 -13 q 47 85 47 39 q 49 106 47 96 q 53 128 50 117 l 238 733 q 295 825 253 789 q 390 861 338 861 l 469 861 q 564 825 522 861 q 622 733 606 789 l 806 128 q 810 106 809 117 q 812 85 812 96 q 784 13 812 38 q 709 -13 756 -13 q 625 15 652 -13 q 584 101 597 44 l 558 190 l 301 190 l 275 101 q 234 15 262 44 q 150 -13 207 -13 m 339 351 l 521 351 l 442 647 q 436 677 439 663 q 430 702 433 691 q 424 677 427 691 q 417 647 420 663 l 339 351 m 592 1028 q 609 992 609 1010 q 592 954 609 969 q 547 940 574 940 q 506 952 523 940 q 475 983 490 965 l 430 1035 l 385 982 q 354 952 370 964 q 314 940 338 940 q 269 954 286 940 q 251 992 251 969 q 268 1028 251 1012 l 295 1058 q 357 1114 328 1095 q 430 1133 386 1133 q 503 1114 474 1133 q 565 1058 532 1095 l 592 1028 m 602 1076 q 575 1084 588 1076 q 563 1110 563 1091 q 583 1169 563 1133 l 608 1208 q 658 1265 633 1253 q 729 1278 683 1278 l 751 1278 q 790 1265 776 1278 q 803 1233 803 1253 q 772 1181 803 1208 l 701 1117 q 648 1084 673 1092 q 602 1076 624 1076 z "},"Ậ":{"ha":860,"x_min":47,"x_max":812,"o":"m 150 -13 q 75 13 103 -13 q 47 85 47 39 q 49 106 47 96 q 53 128 50 117 l 238 733 q 295 825 253 789 q 390 861 338 861 l 469 861 q 564 825 522 861 q 622 733 606 789 l 806 128 q 810 106 809 117 q 812 85 812 96 q 784 13 812 38 q 709 -13 756 -13 q 625 15 652 -13 q 584 101 597 44 l 558 190 l 301 190 l 275 101 q 234 15 262 44 q 150 -13 207 -13 m 339 351 l 521 351 l 442 647 q 436 677 439 663 q 430 702 433 691 q 424 677 427 691 q 417 647 420 663 l 339 351 m 430 -285 q 349 -251 382 -285 q 315 -169 315 -217 q 349 -87 315 -120 q 430 -53 382 -53 q 511 -87 478 -53 q 544 -169 544 -120 q 511 -253 544 -221 q 430 -285 478 -285 m 592 997 q 609 961 609 979 q 592 923 609 938 q 547 908 574 908 q 506 921 523 908 q 475 951 490 934 l 430 1004 l 385 951 q 354 920 370 933 q 314 908 338 908 q 269 923 286 908 q 251 961 251 938 q 255 979 251 969 q 268 997 259 988 l 295 1026 q 357 1083 328 1064 q 430 1102 386 1102 q 503 1083 474 1102 q 565 1026 532 1065 l 592 997 z "},"Ầ":{"ha":860,"x_min":47,"x_max":812,"o":"m 150 -13 q 75 13 103 -13 q 47 85 47 39 q 49 106 47 96 q 53 128 50 117 l 238 733 q 295 825 253 789 q 390 861 338 861 l 469 861 q 564 825 522 861 q 622 733 606 789 l 806 128 q 810 106 809 117 q 812 85 812 96 q 784 13 812 38 q 709 -13 756 -13 q 625 15 652 -13 q 584 101 597 44 l 558 190 l 301 190 l 275 101 q 234 15 262 44 q 150 -13 207 -13 m 339 351 l 521 351 l 442 647 q 436 677 439 663 q 430 702 433 691 q 424 677 427 691 q 417 647 420 663 l 339 351 m 592 1028 q 609 992 609 1010 q 592 954 609 969 q 547 940 574 940 q 506 952 523 940 q 475 983 490 965 l 430 1035 l 385 982 q 354 952 370 964 q 314 940 338 940 q 269 954 286 940 q 251 992 251 969 q 268 1028 251 1012 l 295 1058 q 357 1114 328 1095 q 430 1133 386 1133 q 503 1114 474 1133 q 565 1058 532 1095 l 592 1028 m 665 1076 q 619 1084 644 1076 q 567 1117 595 1092 l 496 1181 q 465 1233 465 1208 q 479 1265 465 1253 q 517 1278 492 1278 l 539 1278 q 610 1265 585 1278 q 660 1208 635 1253 l 685 1169 q 705 1110 705 1133 q 693 1084 705 1091 q 665 1076 681 1076 z "},"Ẩ":{"ha":860,"x_min":47,"x_max":812,"o":"m 150 -13 q 75 13 103 -13 q 47 85 47 39 q 49 106 47 96 q 53 128 50 117 l 238 733 q 295 825 253 789 q 390 861 338 861 l 469 861 q 564 825 522 861 q 622 733 606 789 l 806 128 q 810 106 809 117 q 812 85 812 96 q 784 13 812 38 q 709 -13 756 -13 q 625 15 652 -13 q 584 101 597 44 l 558 190 l 301 190 l 275 101 q 234 15 262 44 q 150 -13 207 -13 m 339 351 l 521 351 l 442 647 q 436 677 439 663 q 430 702 433 691 q 424 677 427 691 q 417 647 420 663 l 339 351 m 592 1028 q 609 992 609 1010 q 592 954 609 969 q 547 940 574 940 q 506 952 523 940 q 475 983 490 965 l 430 1035 l 385 982 q 354 952 370 964 q 314 940 338 940 q 269 954 286 940 q 251 992 251 969 q 268 1028 251 1012 l 295 1058 q 357 1114 328 1095 q 430 1133 386 1133 q 503 1114 474 1133 q 565 1058 532 1095 l 592 1028 m 606 1088 q 551 1132 551 1088 q 565 1166 551 1153 q 606 1179 578 1179 q 666 1191 637 1179 q 695 1224 695 1202 q 670 1253 695 1244 q 619 1262 645 1262 q 576 1258 593 1262 q 547 1249 560 1253 q 527 1244 538 1245 q 508 1243 515 1243 q 481 1252 493 1243 q 469 1280 469 1261 q 511 1331 469 1312 q 619 1351 552 1351 q 711 1339 668 1351 q 780 1300 753 1328 q 807 1222 807 1272 q 775 1142 807 1171 q 696 1100 742 1113 q 606 1088 649 1088 z "},"Ẫ":{"ha":860,"x_min":47,"x_max":812,"o":"m 150 -13 q 75 13 103 -13 q 47 85 47 39 q 49 106 47 96 q 53 128 50 117 l 238 733 q 295 825 253 789 q 390 861 338 861 l 469 861 q 564 825 522 861 q 622 733 606 789 l 806 128 q 810 106 809 117 q 812 85 812 96 q 784 13 812 38 q 709 -13 756 -13 q 625 15 652 -13 q 584 101 597 44 l 558 190 l 301 190 l 275 101 q 234 15 262 44 q 150 -13 207 -13 m 339 351 l 521 351 l 442 647 q 436 677 439 663 q 430 702 433 691 q 424 677 427 691 q 417 647 420 663 l 339 351 m 592 997 q 609 961 609 979 q 592 923 609 938 q 547 908 574 908 q 506 921 523 908 q 475 951 490 934 l 430 1004 l 385 951 q 354 920 370 933 q 314 908 338 908 q 269 923 286 908 q 251 961 251 938 q 255 979 251 969 q 268 997 259 988 l 295 1026 q 357 1083 328 1064 q 430 1102 386 1102 q 503 1083 474 1102 q 565 1026 532 1065 l 592 997 m 510 1162 q 454 1173 474 1162 q 416 1197 434 1183 q 390 1214 403 1208 q 357 1221 376 1221 q 322 1215 338 1221 q 292 1201 306 1209 q 272 1191 281 1195 q 253 1188 262 1188 q 229 1201 239 1188 q 219 1233 219 1214 q 258 1307 219 1272 q 298 1331 275 1322 q 348 1341 320 1341 q 404 1332 384 1341 q 439 1309 424 1323 q 465 1289 451 1297 q 502 1281 478 1281 q 534 1286 521 1281 q 558 1300 547 1292 q 576 1310 567 1306 q 597 1315 585 1315 q 627 1303 613 1315 q 641 1268 641 1292 q 622 1219 641 1242 q 577 1181 605 1199 q 510 1162 549 1162 z "},"Ȁ":{"ha":860,"x_min":47,"x_max":812,"o":"m 150 -13 q 75 13 103 -13 q 47 85 47 39 q 49 106 47 96 q 53 128 50 117 l 238 733 q 295 825 253 789 q 390 861 338 861 l 469 861 q 564 825 522 861 q 622 733 606 789 l 806 128 q 810 106 809 117 q 812 85 812 96 q 784 13 812 38 q 709 -13 756 -13 q 625 15 652 -13 q 584 101 597 44 l 558 190 l 301 190 l 275 101 q 234 15 262 44 q 150 -13 207 -13 m 339 351 l 521 351 l 442 647 q 436 677 439 663 q 430 702 433 691 q 424 677 427 691 q 417 647 420 663 l 339 351 m 331 913 q 268 927 297 913 q 208 973 240 941 l 163 1018 q 144 1045 150 1031 q 138 1070 138 1058 q 151 1102 138 1089 q 184 1115 163 1115 l 213 1115 q 273 1100 252 1115 q 318 1044 293 1086 l 342 1008 q 365 948 365 970 q 356 923 365 932 q 331 913 347 913 m 565 913 q 503 927 532 913 q 442 973 474 941 l 398 1018 q 373 1070 373 1043 q 386 1102 373 1089 q 419 1115 399 1115 l 447 1115 q 507 1100 487 1115 q 552 1044 527 1085 l 578 1008 q 594 975 589 990 q 599 948 599 960 q 590 923 599 932 q 565 913 581 913 z "},"Ä":{"ha":860,"x_min":47,"x_max":812,"o":"m 150 -13 q 75 13 103 -13 q 47 85 47 39 q 49 106 47 96 q 53 128 50 117 l 238 733 q 295 825 253 789 q 390 861 338 861 l 469 861 q 564 825 522 861 q 622 733 606 789 l 806 128 q 810 106 809 117 q 812 85 812 96 q 784 13 812 38 q 709 -13 756 -13 q 625 15 652 -13 q 584 101 597 44 l 558 190 l 301 190 l 275 101 q 234 15 262 44 q 150 -13 207 -13 m 339 351 l 521 351 l 442 647 q 436 677 439 663 q 430 702 433 691 q 424 677 427 691 q 417 647 420 663 l 339 351 m 281 922 q 199 956 233 922 q 166 1037 166 989 q 199 1120 166 1087 q 281 1154 233 1154 q 362 1120 328 1154 q 395 1037 395 1087 q 362 956 395 989 q 281 922 328 922 m 578 922 q 497 956 530 922 q 463 1037 463 989 q 497 1120 463 1087 q 578 1154 530 1154 q 660 1120 626 1154 q 694 1037 694 1087 q 660 956 694 989 q 578 922 626 922 z "},"Ạ":{"ha":860,"x_min":47,"x_max":812,"o":"m 150 -13 q 75 13 103 -13 q 47 85 47 39 q 49 106 47 96 q 53 128 50 117 l 238 733 q 295 825 253 789 q 390 861 338 861 l 469 861 q 564 825 522 861 q 622 733 606 789 l 806 128 q 810 106 809 117 q 812 85 812 96 q 784 13 812 38 q 709 -13 756 -13 q 625 15 652 -13 q 584 101 597 44 l 558 190 l 301 190 l 275 101 q 234 15 262 44 q 150 -13 207 -13 m 339 351 l 521 351 l 442 647 q 436 677 439 663 q 430 702 433 691 q 424 677 427 691 q 417 647 420 663 l 339 351 m 430 -285 q 349 -251 382 -285 q 315 -169 315 -217 q 349 -87 315 -120 q 430 -53 382 -53 q 511 -87 478 -53 q 544 -169 544 -120 q 511 -253 544 -221 q 430 -285 478 -285 z "},"À":{"ha":860,"x_min":47,"x_max":812,"o":"m 150 -13 q 75 13 103 -13 q 47 85 47 39 q 49 106 47 96 q 53 128 50 117 l 238 733 q 295 825 253 789 q 390 861 338 861 l 469 861 q 564 825 522 861 q 622 733 606 789 l 806 128 q 810 106 809 117 q 812 85 812 96 q 784 13 812 38 q 709 -13 756 -13 q 625 15 652 -13 q 584 101 597 44 l 558 190 l 301 190 l 275 101 q 234 15 262 44 q 150 -13 207 -13 m 339 351 l 521 351 l 442 647 q 436 677 439 663 q 430 702 433 691 q 424 677 427 691 q 417 647 420 663 l 339 351 m 470 908 q 397 922 432 908 q 325 967 363 935 l 276 1013 q 247 1065 247 1038 q 261 1097 247 1084 q 301 1109 276 1109 l 335 1109 q 405 1095 381 1109 q 458 1039 428 1081 l 486 1001 q 512 942 512 967 q 501 917 512 926 q 470 908 490 908 z "},"Ả":{"ha":860,"x_min":47,"x_max":812,"o":"m 150 -13 q 75 13 103 -13 q 47 85 47 39 q 49 106 47 96 q 53 128 50 117 l 238 733 q 295 825 253 789 q 390 861 338 861 l 469 861 q 564 825 522 861 q 622 733 606 789 l 806 128 q 810 106 809 117 q 812 85 812 96 q 784 13 812 38 q 709 -13 756 -13 q 625 15 652 -13 q 584 101 597 44 l 558 190 l 301 190 l 275 101 q 234 15 262 44 q 150 -13 207 -13 m 339 351 l 521 351 l 442 647 q 436 677 439 663 q 430 702 433 691 q 424 677 427 691 q 417 647 420 663 l 339 351 m 394 913 q 354 927 368 913 q 340 963 340 942 q 353 1000 340 985 q 394 1016 366 1016 q 451 1025 425 1016 q 478 1055 478 1033 q 452 1081 478 1076 q 401 1087 427 1087 q 359 1085 375 1087 q 327 1078 343 1083 q 311 1075 318 1076 q 297 1074 304 1074 q 269 1084 281 1074 q 258 1111 258 1093 q 299 1168 258 1148 q 407 1188 340 1188 q 500 1176 456 1188 q 573 1135 544 1165 q 601 1053 601 1106 q 567 971 601 1002 q 485 927 533 940 q 394 913 438 913 z "},"Ȃ":{"ha":860,"x_min":47,"x_max":812,"o":"m 150 -13 q 75 13 103 -13 q 47 85 47 39 q 49 106 47 96 q 53 128 50 117 l 238 733 q 295 825 253 789 q 390 861 338 861 l 469 861 q 564 825 522 861 q 622 733 606 789 l 806 128 q 810 106 809 117 q 812 85 812 96 q 784 13 812 38 q 709 -13 756 -13 q 625 15 652 -13 q 584 101 597 44 l 558 190 l 301 190 l 275 101 q 234 15 262 44 q 150 -13 207 -13 m 339 351 l 521 351 l 442 647 q 436 677 439 663 q 430 702 433 691 q 424 677 427 691 q 417 647 420 663 l 339 351 m 544 910 q 493 926 508 910 q 474 962 477 942 q 462 988 471 976 q 429 1001 453 1001 q 396 988 405 1001 q 384 962 387 976 q 365 926 380 942 q 313 910 349 910 q 268 926 285 910 q 251 967 251 942 q 260 1007 251 985 q 293 1047 270 1028 q 348 1086 315 1070 q 428 1103 381 1103 q 516 1084 480 1103 q 573 1037 551 1065 q 599 1000 592 1019 q 607 965 607 981 q 591 926 607 941 q 544 910 574 910 z "},"Ā":{"ha":860,"x_min":47,"x_max":812,"o":"m 150 -13 q 75 13 103 -13 q 47 85 47 39 q 49 106 47 96 q 53 128 50 117 l 238 733 q 295 825 253 789 q 390 861 338 861 l 469 861 q 564 825 522 861 q 622 733 606 789 l 806 128 q 810 106 809 117 q 812 85 812 96 q 784 13 812 38 q 709 -13 756 -13 q 625 15 652 -13 q 584 101 597 44 l 558 190 l 301 190 l 275 101 q 234 15 262 44 q 150 -13 207 -13 m 339 351 l 521 351 l 442 647 q 436 677 439 663 q 430 702 433 691 q 424 677 427 691 q 417 647 420 663 l 339 351 m 156 989 q 182 1034 156 1017 q 266 1051 208 1051 l 590 1051 q 675 1034 649 1051 q 701 989 701 1017 q 675 943 701 960 q 590 926 649 926 l 266 926 q 182 943 208 926 q 156 989 156 960 z "},"Ą":{"ha":860,"x_min":47,"x_max":886,"o":"m 150 -13 q 75 13 103 -13 q 47 85 47 39 q 49 106 47 96 q 53 128 50 117 l 238 733 q 295 825 253 789 q 390 861 338 861 l 469 861 q 564 825 522 861 q 622 733 606 789 l 806 128 q 810 106 809 117 q 812 85 812 96 q 784 13 812 38 q 709 -13 756 -13 q 625 15 652 -13 q 584 101 597 44 l 558 190 l 301 190 l 275 101 q 234 15 262 44 q 150 -13 207 -13 m 339 351 l 521 351 l 442 647 q 436 677 439 663 q 430 702 433 691 q 424 677 427 691 q 417 647 420 663 l 339 351 m 726 -333 q 628 -321 674 -333 q 553 -278 582 -308 q 524 -194 524 -247 q 538 -124 524 -158 q 574 -64 552 -90 q 619 -21 595 -37 q 665 0 643 -4 l 764 0 q 731 -33 749 -9 q 700 -88 713 -58 q 686 -147 686 -119 q 701 -191 686 -177 q 744 -205 717 -205 q 768 -203 753 -205 q 792 -199 783 -201 q 816 -194 805 -195 q 835 -193 827 -193 q 875 -209 863 -193 q 886 -249 886 -224 q 840 -313 886 -292 q 726 -333 794 -333 z "},"Å":{"ha":860,"x_min":47,"x_max":812,"o":"m 150 -13 q 75 13 103 -13 q 47 85 47 39 q 49 106 47 96 q 53 128 50 117 l 238 733 q 295 825 253 789 q 390 861 338 861 l 469 861 q 564 825 522 861 q 622 733 606 789 l 806 128 q 810 106 809 117 q 812 85 812 96 q 784 13 812 38 q 709 -13 756 -13 q 625 15 652 -13 q 584 101 597 44 l 558 190 l 301 190 l 275 101 q 234 15 262 44 q 150 -13 207 -13 m 339 351 l 521 351 l 442 647 q 436 677 439 663 q 430 702 433 691 q 424 677 427 691 q 417 647 420 663 l 339 351 m 431 905 q 327 946 370 905 q 283 1051 283 988 q 303 1123 283 1090 q 357 1175 323 1156 q 431 1195 390 1195 q 502 1175 469 1195 q 555 1123 535 1156 q 575 1051 575 1090 q 532 946 575 988 q 431 905 489 905 m 431 1008 q 459 1020 447 1008 q 471 1051 471 1032 q 459 1079 471 1067 q 431 1090 447 1090 q 400 1079 412 1090 q 388 1051 388 1067 q 400 1020 388 1032 q 431 1008 412 1008 z "},"Ǻ":{"ha":860,"x_min":47,"x_max":812,"o":"m 150 -13 q 75 13 103 -13 q 47 85 47 39 q 49 106 47 96 q 53 128 50 117 l 238 733 q 295 825 253 789 q 390 861 338 861 l 469 861 q 564 825 522 861 q 622 733 606 789 l 806 128 q 810 106 809 117 q 812 85 812 96 q 784 13 812 38 q 709 -13 756 -13 q 625 15 652 -13 q 584 101 597 44 l 558 190 l 301 190 l 275 101 q 234 15 262 44 q 150 -13 207 -13 m 339 351 l 521 351 l 442 647 q 436 677 439 663 q 430 702 433 691 q 424 677 427 691 q 417 647 420 663 l 339 351 m 431 905 q 327 946 370 905 q 283 1051 283 988 q 303 1123 283 1090 q 357 1175 323 1156 q 431 1195 390 1195 q 502 1175 469 1195 q 555 1123 535 1156 q 575 1051 575 1090 q 532 946 575 988 q 431 905 489 905 m 431 1008 q 459 1020 447 1008 q 471 1051 471 1032 q 459 1079 471 1067 q 431 1090 447 1090 q 400 1079 412 1090 q 388 1051 388 1067 q 400 1020 388 1032 q 431 1008 412 1008 m 409 1250 q 379 1259 390 1250 q 368 1285 368 1269 q 393 1344 368 1310 l 421 1381 q 475 1437 451 1423 q 545 1451 499 1451 l 578 1451 q 619 1439 604 1451 q 633 1408 633 1426 q 604 1355 633 1381 l 554 1310 q 483 1264 517 1278 q 409 1250 448 1250 z "},"Ã":{"ha":860,"x_min":47,"x_max":812,"o":"m 150 -13 q 75 13 103 -13 q 47 85 47 39 q 49 106 47 96 q 53 128 50 117 l 238 733 q 295 825 253 789 q 390 861 338 861 l 469 861 q 564 825 522 861 q 622 733 606 789 l 806 128 q 810 106 809 117 q 812 85 812 96 q 784 13 812 38 q 709 -13 756 -13 q 625 15 652 -13 q 584 101 597 44 l 558 190 l 301 190 l 275 101 q 234 15 262 44 q 150 -13 207 -13 m 339 351 l 521 351 l 442 647 q 436 677 439 663 q 430 702 433 691 q 424 677 427 691 q 417 647 420 663 l 339 351 m 510 921 q 454 932 474 921 q 416 956 434 942 q 390 973 403 967 q 357 980 376 980 q 322 974 338 980 q 292 960 306 968 q 272 950 281 954 q 253 947 262 947 q 229 960 239 947 q 219 992 219 973 q 258 1066 219 1031 q 298 1090 275 1081 q 348 1100 320 1100 q 404 1091 384 1100 q 439 1068 424 1082 q 465 1048 451 1056 q 502 1040 478 1040 q 534 1045 521 1040 q 558 1059 547 1051 q 576 1069 567 1065 q 597 1074 585 1074 q 627 1062 613 1074 q 641 1027 641 1051 q 622 978 641 1001 q 577 940 605 958 q 510 921 549 921 z "},"Æ":{"ha":860,"x_min":39,"x_max":842,"o":"m 560 -1 q 433 117 433 -1 l 433 184 l 285 184 l 254 90 q 213 13 241 38 q 130 -13 185 -13 q 84 -7 105 -13 q 51 16 63 0 q 39 59 39 32 q 41 88 39 72 q 50 121 44 103 l 263 759 q 309 835 279 810 q 383 860 338 860 l 731 860 q 817 841 793 860 q 842 788 842 822 q 817 734 842 753 q 731 715 793 715 l 635 715 l 635 494 l 742 494 q 797 473 778 494 q 816 422 816 451 q 797 373 816 394 q 742 351 778 351 l 635 351 l 635 144 l 731 144 q 817 125 793 144 q 842 72 842 106 q 817 18 842 36 q 731 -1 793 -1 l 560 -1 m 326 345 l 433 345 l 433 697 q 431 694 432 695 q 430 690 431 692 l 326 345 z "},"Ǽ":{"ha":860,"x_min":39,"x_max":842,"o":"m 560 -1 q 433 117 433 -1 l 433 184 l 285 184 l 254 90 q 213 13 241 38 q 130 -13 185 -13 q 84 -7 105 -13 q 51 16 63 0 q 39 59 39 32 q 41 88 39 72 q 50 121 44 103 l 263 759 q 309 835 279 810 q 383 860 338 860 l 731 860 q 817 841 793 860 q 842 788 842 822 q 817 734 842 753 q 731 715 793 715 l 635 715 l 635 494 l 742 494 q 797 473 778 494 q 816 422 816 451 q 797 373 816 394 q 742 351 778 351 l 635 351 l 635 144 l 731 144 q 817 125 793 144 q 842 72 842 106 q 817 18 842 36 q 731 -1 793 -1 l 560 -1 m 326 345 l 433 345 l 433 697 q 431 694 432 695 q 430 690 431 692 l 326 345 m 412 913 q 382 922 393 913 q 371 947 371 931 q 396 1007 371 972 l 424 1044 q 478 1100 454 1085 q 548 1114 501 1114 l 581 1114 q 622 1101 607 1114 q 636 1070 636 1089 q 607 1017 636 1044 l 557 972 q 485 926 520 940 q 412 913 451 913 z "},"B":{"ha":860,"x_min":93,"x_max":797,"o":"m 594 455 q 637 448 605 455 q 707 419 669 440 q 770 355 744 397 q 797 244 797 313 q 757 108 797 162 q 648 27 718 53 q 484 0 578 0 l 220 0 q 93 128 93 0 l 93 732 q 220 860 93 860 l 445 860 q 600 842 526 860 q 719 778 673 824 q 765 649 765 733 q 742 547 765 586 q 690 489 720 508 q 632 462 659 469 q 594 455 604 455 m 321 698 l 321 513 l 413 513 q 475 521 446 513 q 523 551 504 530 q 542 608 542 572 q 523 667 542 648 q 473 692 503 686 q 408 698 442 698 l 321 698 m 415 162 q 523 184 481 162 q 565 267 565 207 q 522 348 565 328 q 421 369 479 369 l 321 369 l 321 162 l 415 162 z "},"C":{"ha":860,"x_min":69,"x_max":800,"o":"m 485 -15 q 341 6 414 -15 q 206 77 267 27 q 106 213 144 127 q 69 426 69 298 q 106 641 69 556 q 206 777 144 727 q 341 847 267 826 q 485 868 414 868 q 603 851 547 868 q 704 803 659 834 q 774 733 749 773 q 800 646 800 692 q 771 576 800 602 q 703 549 742 549 q 636 570 655 549 q 605 618 617 592 q 583 659 597 639 q 546 693 569 680 q 485 706 523 706 q 395 679 438 706 q 326 590 352 651 q 299 426 299 529 q 326 263 299 324 q 395 174 352 201 q 485 147 438 147 q 546 160 523 147 q 583 194 569 174 q 605 235 597 215 q 636 283 617 262 q 703 304 655 304 q 771 277 742 304 q 800 208 800 251 q 774 121 800 161 q 703 50 748 81 q 602 2 659 19 q 485 -15 546 -15 z "},"Ć":{"ha":860,"x_min":69,"x_max":800,"o":"m 485 -15 q 341 6 414 -15 q 206 77 267 27 q 106 213 144 127 q 69 426 69 298 q 106 641 69 556 q 206 777 144 727 q 341 847 267 826 q 485 868 414 868 q 603 851 547 868 q 704 803 659 834 q 774 733 749 773 q 800 646 800 692 q 771 576 800 602 q 703 549 742 549 q 636 570 655 549 q 605 618 617 592 q 583 659 597 639 q 546 693 569 680 q 485 706 523 706 q 395 679 438 706 q 326 590 352 651 q 299 426 299 529 q 326 263 299 324 q 395 174 352 201 q 485 147 438 147 q 546 160 523 147 q 583 194 569 174 q 605 235 597 215 q 636 283 617 262 q 703 304 655 304 q 771 277 742 304 q 800 208 800 251 q 774 121 800 161 q 703 50 748 81 q 602 2 659 19 q 485 -15 546 -15 m 460 913 q 431 922 442 913 q 419 947 419 931 q 444 1007 419 972 l 472 1044 q 526 1100 503 1085 q 597 1114 550 1114 l 630 1114 q 670 1101 656 1114 q 685 1070 685 1089 q 656 1017 685 1044 l 606 972 q 534 926 569 940 q 460 913 499 913 z "},"Č":{"ha":860,"x_min":69,"x_max":800,"o":"m 485 -15 q 341 6 414 -15 q 206 77 267 27 q 106 213 144 127 q 69 426 69 298 q 106 641 69 556 q 206 777 144 727 q 341 847 267 826 q 485 868 414 868 q 603 851 547 868 q 704 803 659 834 q 774 733 749 773 q 800 646 800 692 q 771 576 800 602 q 703 549 742 549 q 636 570 655 549 q 605 618 617 592 q 583 659 597 639 q 546 693 569 680 q 485 706 523 706 q 395 679 438 706 q 326 590 352 651 q 299 426 299 529 q 326 263 299 324 q 395 174 352 201 q 485 147 438 147 q 546 160 523 147 q 583 194 569 174 q 605 235 597 215 q 636 283 617 262 q 703 304 655 304 q 771 277 742 304 q 800 208 800 251 q 774 121 800 161 q 703 50 748 81 q 602 2 659 19 q 485 -15 546 -15 m 643 1017 l 615 988 q 554 931 583 951 q 481 912 525 912 q 408 931 437 912 q 346 988 378 951 l 319 1017 q 302 1053 302 1035 q 319 1091 302 1076 q 365 1106 337 1106 q 405 1094 388 1106 q 436 1063 421 1081 l 481 1010 l 525 1063 q 556 1093 540 1081 q 597 1106 573 1106 q 642 1092 625 1106 q 660 1053 660 1077 q 656 1036 660 1046 q 643 1017 652 1027 z "},"Ç":{"ha":860,"x_min":69,"x_max":800,"o":"m 447 -322 q 399 -319 421 -322 q 362 -310 377 -316 q 317 -257 317 -291 q 331 -224 317 -235 q 363 -212 344 -212 q 402 -218 379 -212 q 430 -223 415 -222 q 463 -224 445 -224 q 525 -213 501 -224 q 549 -183 549 -203 q 539 -165 549 -171 q 513 -158 530 -158 q 485 -161 499 -158 q 458 -167 471 -163 q 434 -173 446 -171 q 408 -176 422 -176 q 369 -161 382 -176 q 356 -127 356 -147 q 358 -112 356 -120 q 363 -97 360 -104 l 396 -7 q 276 32 334 3 q 170 111 217 60 q 96 240 124 163 q 69 426 69 317 q 106 641 69 556 q 206 777 144 727 q 341 847 267 826 q 485 868 414 868 q 603 851 547 868 q 704 803 659 834 q 774 733 749 773 q 800 646 800 692 q 771 576 800 602 q 703 549 742 549 q 636 570 655 549 q 605 618 617 592 q 583 659 597 639 q 546 693 569 680 q 485 706 523 706 q 395 679 438 706 q 326 590 352 651 q 299 426 299 529 q 326 263 299 324 q 395 174 352 201 q 485 147 438 147 q 546 160 523 147 q 583 194 569 174 q 605 235 597 215 q 636 283 617 262 q 703 304 655 304 q 771 277 742 304 q 800 208 800 251 q 777 125 800 164 q 713 57 753 87 q 621 9 672 27 q 512 -14 569 -10 l 481 -104 q 524 -83 501 -90 q 574 -76 548 -76 q 635 -87 605 -76 q 685 -120 665 -98 q 706 -178 706 -142 q 669 -258 706 -226 q 574 -306 633 -290 q 447 -322 515 -322 z "},"Ĉ":{"ha":860,"x_min":69,"x_max":800,"o":"m 485 -15 q 341 6 414 -15 q 206 77 267 27 q 106 213 144 127 q 69 426 69 298 q 106 641 69 556 q 206 777 144 727 q 341 847 267 826 q 485 868 414 868 q 603 851 547 868 q 704 803 659 834 q 774 733 749 773 q 800 646 800 692 q 771 576 800 602 q 703 549 742 549 q 636 570 655 549 q 605 618 617 592 q 583 659 597 639 q 546 693 569 680 q 485 706 523 706 q 395 679 438 706 q 326 590 352 651 q 299 426 299 529 q 326 263 299 324 q 395 174 352 201 q 485 147 438 147 q 546 160 523 147 q 583 194 569 174 q 605 235 597 215 q 636 283 617 262 q 703 304 655 304 q 771 277 742 304 q 800 208 800 251 q 774 121 800 161 q 703 50 748 81 q 602 2 659 19 q 485 -15 546 -15 m 643 996 q 660 960 660 978 q 642 922 660 937 q 597 907 625 907 q 557 920 574 907 q 526 950 540 933 l 481 1003 l 436 950 q 405 919 421 931 q 365 907 388 907 q 319 922 337 907 q 302 960 302 937 q 306 977 302 968 q 319 996 310 987 l 346 1025 q 408 1082 378 1063 q 481 1101 437 1101 q 554 1082 525 1101 q 616 1025 583 1063 l 643 996 z "},"Ċ":{"ha":860,"x_min":69,"x_max":800,"o":"m 485 -15 q 341 6 414 -15 q 206 77 267 27 q 106 213 144 127 q 69 426 69 298 q 106 641 69 556 q 206 777 144 727 q 341 847 267 826 q 485 868 414 868 q 603 851 547 868 q 704 803 659 834 q 774 733 749 773 q 800 646 800 692 q 771 576 800 602 q 703 549 742 549 q 636 570 655 549 q 605 618 617 592 q 583 659 597 639 q 546 693 569 680 q 485 706 523 706 q 395 679 438 706 q 326 590 352 651 q 299 426 299 529 q 326 263 299 324 q 395 174 352 201 q 485 147 438 147 q 546 160 523 147 q 583 194 569 174 q 605 235 597 215 q 636 283 617 262 q 703 304 655 304 q 771 277 742 304 q 800 208 800 251 q 774 121 800 161 q 703 50 748 81 q 602 2 659 19 q 485 -15 546 -15 m 481 922 q 399 955 433 922 q 366 1037 366 988 q 399 1119 366 1085 q 481 1153 433 1153 q 562 1119 528 1153 q 595 1037 595 1085 q 562 955 595 988 q 481 922 528 922 z "},"D":{"ha":860,"x_min":76,"x_max":805,"o":"m 372 860 q 469 852 413 860 q 584 821 526 844 q 693 751 642 798 q 774 626 743 704 q 805 430 805 548 q 774 234 805 312 q 693 109 743 156 q 584 39 642 62 q 469 8 526 15 q 372 0 413 0 l 203 0 q 76 128 76 0 l 76 732 q 203 860 76 860 l 372 860 m 371 162 q 455 177 417 162 q 519 224 492 192 q 560 307 546 256 q 575 430 575 358 q 560 553 575 502 q 519 636 546 604 q 455 683 492 668 q 371 698 417 698 l 303 698 l 303 162 l 371 162 z "},"Ð":{"ha":860,"x_min":-16,"x_max":805,"o":"m 112 360 q -16 430 -16 360 q 112 499 -16 499 l 341 499 q 469 430 469 499 q 341 360 469 360 l 112 360 m 372 860 q 469 852 413 860 q 584 821 526 844 q 693 751 642 798 q 774 626 743 704 q 805 430 805 548 q 774 234 805 312 q 693 109 743 156 q 584 39 642 62 q 469 8 526 15 q 372 0 413 0 l 203 0 q 76 128 76 0 l 76 732 q 203 860 76 860 l 372 860 m 371 162 q 455 177 417 162 q 519 224 492 192 q 560 307 546 256 q 575 430 575 358 q 560 553 575 502 q 519 636 546 604 q 455 683 492 668 q 371 698 417 698 l 303 698 l 303 162 l 371 162 z "},"Ď":{"ha":860,"x_min":76,"x_max":805,"o":"m 372 860 q 469 852 413 860 q 584 821 526 844 q 693 751 642 798 q 774 626 743 704 q 805 430 805 548 q 774 234 805 312 q 693 109 743 156 q 584 39 642 62 q 469 8 526 15 q 372 0 413 0 l 203 0 q 76 128 76 0 l 76 732 q 203 860 76 860 l 372 860 m 371 162 q 455 177 417 162 q 519 224 492 192 q 560 307 546 256 q 575 430 575 358 q 560 553 575 502 q 519 636 546 604 q 455 683 492 668 q 371 698 417 698 l 303 698 l 303 162 l 371 162 m 572 1017 l 544 988 q 482 931 511 951 q 410 912 453 912 q 336 931 365 912 q 274 988 307 951 l 247 1017 q 231 1053 231 1035 q 248 1091 231 1076 q 293 1106 265 1106 q 333 1094 317 1106 q 365 1063 349 1081 l 410 1010 l 453 1063 q 485 1093 468 1081 q 525 1106 501 1106 q 571 1092 553 1106 q 588 1053 588 1077 q 584 1036 588 1046 q 572 1017 581 1027 z "},"Đ":{"ha":860,"x_min":-16,"x_max":805,"o":"m 112 360 q -16 430 -16 360 q 112 499 -16 499 l 341 499 q 469 430 469 499 q 341 360 469 360 l 112 360 m 372 860 q 469 852 413 860 q 584 821 526 844 q 693 751 642 798 q 774 626 743 704 q 805 430 805 548 q 774 234 805 312 q 693 109 743 156 q 584 39 642 62 q 469 8 526 15 q 372 0 413 0 l 203 0 q 76 128 76 0 l 76 732 q 203 860 76 860 l 372 860 m 371 162 q 455 177 417 162 q 519 224 492 192 q 560 307 546 256 q 575 430 575 358 q 560 553 575 502 q 519 636 546 604 q 455 683 492 668 q 371 698 417 698 l 303 698 l 303 162 l 371 162 z "},"E":{"ha":860,"x_min":121,"x_max":756,"o":"m 756 779 q 633 698 756 698 l 349 698 l 349 510 l 574 510 q 661 489 636 510 q 685 430 685 469 q 661 370 685 390 q 574 349 636 349 l 349 349 l 349 162 l 633 162 q 756 81 756 162 q 633 0 756 0 l 249 0 q 121 128 121 0 l 121 732 q 249 860 121 860 l 633 860 q 756 779 756 860 z "},"É":{"ha":860,"x_min":121,"x_max":756,"o":"m 756 779 q 633 698 756 698 l 349 698 l 349 510 l 574 510 q 661 489 636 510 q 685 430 685 469 q 661 370 685 390 q 574 349 636 349 l 349 349 l 349 162 l 633 162 q 756 81 756 162 q 633 0 756 0 l 249 0 q 121 128 121 0 l 121 732 q 249 860 121 860 l 633 860 q 756 779 756 860 m 419 913 q 389 922 400 913 q 378 947 378 931 q 403 1007 378 972 l 431 1044 q 485 1100 461 1085 q 555 1114 508 1114 l 588 1114 q 628 1101 614 1114 q 643 1070 643 1089 q 614 1017 643 1044 l 564 972 q 492 926 527 940 q 419 913 458 913 z "},"Ĕ":{"ha":860,"x_min":121,"x_max":756,"o":"m 756 779 q 633 698 756 698 l 349 698 l 349 510 l 574 510 q 661 489 636 510 q 685 430 685 469 q 661 370 685 390 q 574 349 636 349 l 349 349 l 349 162 l 633 162 q 756 81 756 162 q 633 0 756 0 l 249 0 q 121 128 121 0 l 121 732 q 249 860 121 860 l 633 860 q 756 779 756 860 m 554 1107 q 600 1091 584 1107 q 617 1051 617 1076 q 609 1017 617 1035 q 583 979 601 998 q 525 933 561 952 q 438 914 490 914 q 357 930 390 914 q 303 970 324 947 q 270 1010 280 990 q 260 1049 260 1031 q 277 1091 260 1074 q 322 1107 294 1107 q 374 1091 359 1107 q 394 1056 390 1075 q 406 1028 397 1041 q 439 1016 415 1016 q 472 1028 463 1016 q 483 1056 481 1041 q 502 1091 487 1075 q 554 1107 518 1107 z "},"Ě":{"ha":860,"x_min":121,"x_max":756,"o":"m 756 779 q 633 698 756 698 l 349 698 l 349 510 l 574 510 q 661 489 636 510 q 685 430 685 469 q 661 370 685 390 q 574 349 636 349 l 349 349 l 349 162 l 633 162 q 756 81 756 162 q 633 0 756 0 l 249 0 q 121 128 121 0 l 121 732 q 249 860 121 860 l 633 860 q 756 779 756 860 m 601 1017 l 574 988 q 512 931 541 951 q 440 912 483 912 q 366 931 395 912 q 304 988 337 951 l 277 1017 q 260 1053 260 1035 q 278 1091 260 1076 q 323 1106 295 1106 q 363 1094 347 1106 q 394 1063 379 1081 l 440 1010 l 483 1063 q 515 1093 498 1081 q 555 1106 531 1106 q 601 1092 583 1106 q 618 1053 618 1077 q 614 1036 618 1046 q 601 1017 610 1027 z "},"Ê":{"ha":860,"x_min":121,"x_max":756,"o":"m 756 779 q 633 698 756 698 l 349 698 l 349 510 l 574 510 q 661 489 636 510 q 685 430 685 469 q 661 370 685 390 q 574 349 636 349 l 349 349 l 349 162 l 633 162 q 756 81 756 162 q 633 0 756 0 l 249 0 q 121 128 121 0 l 121 732 q 249 860 121 860 l 633 860 q 756 779 756 860 m 601 996 q 618 960 618 978 q 601 922 618 937 q 556 907 583 907 q 515 920 532 907 q 484 950 499 933 l 439 1003 l 394 950 q 363 919 379 931 q 323 907 347 907 q 278 922 295 907 q 260 960 260 937 q 264 977 260 968 q 277 996 268 987 l 304 1025 q 366 1082 337 1063 q 439 1101 395 1101 q 512 1082 483 1101 q 574 1025 541 1063 l 601 996 z "},"Ế":{"ha":860,"x_min":121,"x_max":812,"o":"m 756 779 q 633 698 756 698 l 349 698 l 349 510 l 574 510 q 661 489 636 510 q 685 430 685 469 q 661 370 685 390 q 574 349 636 349 l 349 349 l 349 162 l 633 162 q 756 81 756 162 q 633 0 756 0 l 249 0 q 121 128 121 0 l 121 732 q 249 860 121 860 l 633 860 q 756 779 756 860 m 601 1027 q 618 990 618 1009 q 601 953 618 967 q 556 938 583 938 q 515 951 532 938 q 484 981 499 963 l 439 1034 l 394 981 q 363 950 379 963 q 323 938 347 938 q 278 953 295 938 q 260 990 260 967 q 277 1027 260 1010 l 304 1056 q 366 1113 337 1094 q 439 1132 395 1132 q 512 1113 483 1132 q 574 1056 541 1094 l 601 1027 m 611 1075 q 584 1082 597 1075 q 572 1109 572 1090 q 592 1167 572 1132 l 617 1206 q 667 1264 642 1251 q 738 1276 692 1276 l 760 1276 q 799 1264 785 1276 q 812 1232 812 1251 q 781 1180 812 1206 l 710 1116 q 657 1083 682 1091 q 611 1075 633 1075 z "},"Ệ":{"ha":860,"x_min":121,"x_max":756,"o":"m 756 779 q 633 698 756 698 l 349 698 l 349 510 l 574 510 q 661 489 636 510 q 685 430 685 469 q 661 370 685 390 q 574 349 636 349 l 349 349 l 349 162 l 633 162 q 756 81 756 162 q 633 0 756 0 l 249 0 q 121 128 121 0 l 121 732 q 249 860 121 860 l 633 860 q 756 779 756 860 m 439 -285 q 358 -251 391 -285 q 324 -169 324 -217 q 358 -87 324 -120 q 439 -53 391 -53 q 520 -87 487 -53 q 553 -169 553 -120 q 520 -253 553 -221 q 439 -285 487 -285 m 601 996 q 618 960 618 978 q 601 922 618 937 q 556 907 583 907 q 515 920 532 907 q 484 950 499 933 l 439 1003 l 394 950 q 363 919 379 931 q 323 907 347 907 q 278 922 295 907 q 260 960 260 937 q 264 977 260 968 q 277 996 268 987 l 304 1025 q 366 1082 337 1063 q 439 1101 395 1101 q 512 1082 483 1101 q 574 1025 541 1063 l 601 996 z "},"Ề":{"ha":860,"x_min":121,"x_max":756,"o":"m 756 779 q 633 698 756 698 l 349 698 l 349 510 l 574 510 q 661 489 636 510 q 685 430 685 469 q 661 370 685 390 q 574 349 636 349 l 349 349 l 349 162 l 633 162 q 756 81 756 162 q 633 0 756 0 l 249 0 q 121 128 121 0 l 121 732 q 249 860 121 860 l 633 860 q 756 779 756 860 m 601 1027 q 618 990 618 1009 q 601 953 618 967 q 556 938 583 938 q 515 951 532 938 q 484 981 499 963 l 439 1034 l 394 981 q 363 950 379 963 q 323 938 347 938 q 278 953 295 938 q 260 990 260 967 q 277 1027 260 1010 l 304 1056 q 366 1113 337 1094 q 439 1132 395 1132 q 512 1113 483 1132 q 574 1056 541 1094 l 601 1027 m 674 1075 q 628 1083 653 1075 q 576 1116 604 1090 l 505 1180 q 474 1232 474 1206 q 488 1264 474 1251 q 526 1276 501 1276 l 548 1276 q 619 1264 594 1276 q 669 1206 644 1251 l 694 1167 q 714 1109 714 1132 q 702 1082 714 1090 q 674 1075 690 1075 z "},"Ể":{"ha":860,"x_min":121,"x_max":816,"o":"m 756 779 q 633 698 756 698 l 349 698 l 349 510 l 574 510 q 661 489 636 510 q 685 430 685 469 q 661 370 685 390 q 574 349 636 349 l 349 349 l 349 162 l 633 162 q 756 81 756 162 q 633 0 756 0 l 249 0 q 121 128 121 0 l 121 732 q 249 860 121 860 l 633 860 q 756 779 756 860 m 601 1027 q 618 990 618 1009 q 601 953 618 967 q 556 938 583 938 q 515 951 532 938 q 484 981 499 963 l 439 1034 l 394 981 q 363 950 379 963 q 323 938 347 938 q 278 953 295 938 q 260 990 260 967 q 277 1027 260 1010 l 304 1056 q 366 1113 337 1094 q 439 1132 395 1132 q 512 1113 483 1132 q 574 1056 541 1094 l 601 1027 m 615 1087 q 560 1131 560 1087 q 574 1165 560 1152 q 615 1178 587 1178 q 675 1189 646 1178 q 704 1222 704 1201 q 679 1251 704 1242 q 628 1260 654 1260 q 585 1256 602 1260 q 556 1247 569 1252 q 536 1243 547 1244 q 517 1242 524 1242 q 490 1251 502 1242 q 478 1278 478 1260 q 520 1330 478 1310 q 628 1349 561 1349 q 720 1338 677 1349 q 789 1299 763 1326 q 816 1221 816 1271 q 784 1140 816 1169 q 705 1099 751 1111 q 615 1087 658 1087 z "},"Ễ":{"ha":860,"x_min":121,"x_max":756,"o":"m 756 779 q 633 698 756 698 l 349 698 l 349 510 l 574 510 q 661 489 636 510 q 685 430 685 469 q 661 370 685 390 q 574 349 636 349 l 349 349 l 349 162 l 633 162 q 756 81 756 162 q 633 0 756 0 l 249 0 q 121 128 121 0 l 121 732 q 249 860 121 860 l 633 860 q 756 779 756 860 m 601 996 q 618 960 618 978 q 601 922 618 937 q 556 907 583 907 q 515 920 532 907 q 484 950 499 933 l 439 1003 l 394 950 q 363 919 379 931 q 323 907 347 907 q 278 922 295 907 q 260 960 260 937 q 264 977 260 968 q 277 996 268 987 l 304 1025 q 366 1082 337 1063 q 439 1101 395 1101 q 512 1082 483 1101 q 574 1025 541 1063 l 601 996 m 519 1160 q 463 1171 483 1160 q 425 1195 443 1182 q 399 1213 412 1206 q 366 1219 385 1219 q 331 1214 347 1219 q 301 1200 315 1208 q 281 1190 290 1194 q 263 1186 271 1186 q 238 1199 248 1186 q 228 1231 228 1213 q 267 1306 228 1270 q 307 1330 284 1320 q 357 1340 329 1340 q 413 1331 393 1340 q 448 1308 433 1322 q 474 1288 460 1296 q 511 1279 488 1279 q 543 1285 530 1279 q 567 1299 556 1290 q 585 1309 576 1305 q 606 1313 594 1313 q 636 1302 622 1313 q 650 1267 650 1290 q 631 1218 650 1240 q 586 1179 614 1198 q 519 1160 558 1160 z "},"Ȅ":{"ha":860,"x_min":121,"x_max":756,"o":"m 756 779 q 633 698 756 698 l 349 698 l 349 510 l 574 510 q 661 489 636 510 q 685 430 685 469 q 661 370 685 390 q 574 349 636 349 l 349 349 l 349 162 l 633 162 q 756 81 756 162 q 633 0 756 0 l 249 0 q 121 128 121 0 l 121 732 q 249 860 121 860 l 633 860 q 756 779 756 860 m 340 912 q 277 926 306 912 q 217 972 249 940 l 172 1017 q 153 1043 159 1030 q 147 1069 147 1057 q 160 1100 147 1088 q 193 1113 172 1113 l 222 1113 q 282 1099 261 1113 q 327 1043 302 1085 l 351 1006 q 374 947 374 969 q 365 921 374 931 q 340 912 356 912 m 574 912 q 512 926 541 912 q 451 972 483 940 l 407 1017 q 382 1069 382 1042 q 395 1100 382 1088 q 428 1113 408 1113 l 456 1113 q 516 1099 496 1113 q 561 1043 536 1084 l 587 1006 q 603 973 598 988 q 608 947 608 958 q 599 921 608 931 q 574 912 590 912 z "},"Ë":{"ha":860,"x_min":121,"x_max":756,"o":"m 756 779 q 633 698 756 698 l 349 698 l 349 510 l 574 510 q 661 489 636 510 q 685 430 685 469 q 661 370 685 390 q 574 349 636 349 l 349 349 l 349 162 l 633 162 q 756 81 756 162 q 633 0 756 0 l 249 0 q 121 128 121 0 l 121 732 q 249 860 121 860 l 633 860 q 756 779 756 860 m 290 921 q 208 954 242 921 q 175 1035 175 988 q 208 1119 175 1085 q 290 1153 242 1153 q 371 1119 338 1153 q 404 1035 404 1085 q 371 954 404 988 q 290 921 338 921 m 587 921 q 506 954 539 921 q 472 1035 472 988 q 506 1119 472 1085 q 587 1153 539 1153 q 669 1119 635 1153 q 703 1035 703 1085 q 669 954 703 988 q 587 921 635 921 z "},"Ė":{"ha":860,"x_min":121,"x_max":756,"o":"m 756 779 q 633 698 756 698 l 349 698 l 349 510 l 574 510 q 661 489 636 510 q 685 430 685 469 q 661 370 685 390 q 574 349 636 349 l 349 349 l 349 162 l 633 162 q 756 81 756 162 q 633 0 756 0 l 249 0 q 121 128 121 0 l 121 732 q 249 860 121 860 l 633 860 q 756 779 756 860 m 439 922 q 358 955 391 922 q 324 1037 324 988 q 358 1119 324 1085 q 439 1153 391 1153 q 520 1119 487 1153 q 553 1037 553 1085 q 520 955 553 988 q 439 922 487 922 z "},"Ẹ":{"ha":860,"x_min":121,"x_max":756,"o":"m 756 779 q 633 698 756 698 l 349 698 l 349 510 l 574 510 q 661 489 636 510 q 685 430 685 469 q 661 370 685 390 q 574 349 636 349 l 349 349 l 349 162 l 633 162 q 756 81 756 162 q 633 0 756 0 l 249 0 q 121 128 121 0 l 121 732 q 249 860 121 860 l 633 860 q 756 779 756 860 m 439 -285 q 358 -251 391 -285 q 324 -169 324 -217 q 358 -87 324 -120 q 439 -53 391 -53 q 520 -87 487 -53 q 553 -169 553 -120 q 520 -253 553 -221 q 439 -285 487 -285 z "},"È":{"ha":860,"x_min":121,"x_max":756,"o":"m 756 779 q 633 698 756 698 l 349 698 l 349 510 l 574 510 q 661 489 636 510 q 685 430 685 469 q 661 370 685 390 q 574 349 636 349 l 349 349 l 349 162 l 633 162 q 756 81 756 162 q 633 0 756 0 l 249 0 q 121 128 121 0 l 121 732 q 249 860 121 860 l 633 860 q 756 779 756 860 m 479 907 q 406 920 441 907 q 334 965 372 934 l 285 1011 q 256 1064 256 1037 q 270 1095 256 1083 q 310 1108 285 1108 l 344 1108 q 414 1093 390 1108 q 467 1038 438 1079 l 495 1000 q 521 941 521 965 q 510 916 521 925 q 479 907 499 907 z "},"Ẻ":{"ha":860,"x_min":121,"x_max":756,"o":"m 756 779 q 633 698 756 698 l 349 698 l 349 510 l 574 510 q 661 489 636 510 q 685 430 685 469 q 661 370 685 390 q 574 349 636 349 l 349 349 l 349 162 l 633 162 q 756 81 756 162 q 633 0 756 0 l 249 0 q 121 128 121 0 l 121 732 q 249 860 121 860 l 633 860 q 756 779 756 860 m 403 913 q 363 927 377 913 q 349 962 349 941 q 362 1000 349 984 q 403 1015 375 1015 q 460 1024 434 1015 q 487 1054 487 1033 q 461 1081 487 1075 q 410 1086 436 1086 q 368 1084 384 1086 q 336 1078 352 1083 q 320 1074 327 1075 q 306 1074 313 1074 q 278 1083 290 1074 q 267 1110 267 1092 q 308 1167 267 1147 q 416 1188 349 1188 q 509 1176 465 1188 q 582 1135 553 1164 q 610 1053 610 1106 q 576 970 610 1001 q 494 926 542 940 q 403 913 447 913 z "},"Ȇ":{"ha":860,"x_min":121,"x_max":756,"o":"m 756 779 q 633 698 756 698 l 349 698 l 349 510 l 574 510 q 661 489 636 510 q 685 430 685 469 q 661 370 685 390 q 574 349 636 349 l 349 349 l 349 162 l 633 162 q 756 81 756 162 q 633 0 756 0 l 249 0 q 121 128 121 0 l 121 732 q 249 860 121 860 l 633 860 q 756 779 756 860 m 554 909 q 502 925 518 909 q 483 960 487 941 q 472 987 481 974 q 439 999 463 999 q 406 987 415 999 q 394 960 397 974 q 374 925 390 940 q 322 909 359 909 q 277 925 294 909 q 260 966 260 941 q 270 1005 260 984 q 303 1045 280 1026 q 357 1085 324 1069 q 438 1101 390 1101 q 525 1082 490 1101 q 583 1035 561 1063 q 609 999 601 1017 q 617 964 617 980 q 600 924 617 940 q 554 909 584 909 z "},"Ē":{"ha":860,"x_min":121,"x_max":756,"o":"m 756 779 q 633 698 756 698 l 349 698 l 349 510 l 574 510 q 661 489 636 510 q 685 430 685 469 q 661 370 685 390 q 574 349 636 349 l 349 349 l 349 162 l 633 162 q 756 81 756 162 q 633 0 756 0 l 249 0 q 121 128 121 0 l 121 732 q 249 860 121 860 l 633 860 q 756 779 756 860 m 165 988 q 192 1033 165 1016 q 276 1050 218 1050 l 600 1050 q 685 1033 658 1050 q 711 988 711 1016 q 685 941 711 958 q 600 924 658 924 l 276 924 q 192 941 218 924 q 165 988 165 958 z "},"Ę":{"ha":860,"x_min":121,"x_max":756,"o":"m 756 779 q 633 698 756 698 l 349 698 l 349 510 l 574 510 q 661 489 636 510 q 685 430 685 469 q 661 370 685 390 q 574 349 636 349 l 349 349 l 349 162 l 633 162 q 756 81 756 162 q 633 0 756 0 l 249 0 q 121 128 121 0 l 121 732 q 249 860 121 860 l 633 860 q 756 779 756 860 m 576 -333 q 478 -321 524 -333 q 403 -278 432 -308 q 374 -194 374 -247 q 388 -124 374 -158 q 424 -64 402 -90 q 469 -21 445 -37 q 515 0 493 -4 l 614 0 q 581 -33 599 -9 q 550 -88 563 -58 q 536 -147 536 -119 q 551 -191 536 -177 q 594 -205 567 -205 q 618 -203 603 -205 q 642 -199 633 -201 q 666 -194 655 -195 q 685 -193 677 -193 q 725 -209 713 -193 q 736 -249 736 -224 q 690 -313 736 -292 q 576 -333 644 -333 z "},"Ẽ":{"ha":860,"x_min":121,"x_max":756,"o":"m 756 779 q 633 698 756 698 l 349 698 l 349 510 l 574 510 q 661 489 636 510 q 685 430 685 469 q 661 370 685 390 q 574 349 636 349 l 349 349 l 349 162 l 633 162 q 756 81 756 162 q 633 0 756 0 l 249 0 q 121 128 121 0 l 121 732 q 249 860 121 860 l 633 860 q 756 779 756 860 m 519 919 q 463 930 483 919 q 425 954 443 941 q 399 972 412 965 q 366 978 385 978 q 331 973 347 978 q 301 959 315 967 q 281 949 290 953 q 263 945 271 945 q 238 958 248 945 q 228 990 228 972 q 267 1065 228 1029 q 307 1089 284 1079 q 357 1099 329 1099 q 413 1090 393 1099 q 448 1067 433 1081 q 474 1047 460 1055 q 511 1038 488 1038 q 543 1044 530 1038 q 567 1058 556 1049 q 585 1068 576 1064 q 606 1072 594 1072 q 636 1061 622 1072 q 650 1026 650 1049 q 631 977 650 999 q 586 938 614 957 q 519 919 558 919 z "},"Ə":{"ha":860,"x_min":85,"x_max":768,"o":"m 423 -15 q 250 28 326 -15 q 130 157 174 70 q 85 377 85 244 q 202 484 85 484 l 561 484 l 561 366 l 269 366 l 294 397 q 325 208 294 270 q 417 147 356 147 q 486 174 456 147 q 534 263 517 201 q 551 426 551 325 q 534 589 551 530 q 485 673 517 648 q 408 697 453 697 q 353 686 378 697 q 310 659 329 676 q 275 626 291 642 q 234 595 258 608 q 175 582 210 582 q 118 601 138 582 q 97 665 97 619 q 109 714 97 693 q 144 758 120 735 q 207 807 169 783 q 297 844 244 830 q 420 859 350 859 q 593 816 514 859 q 720 679 672 774 q 768 426 768 584 q 741 228 768 312 q 667 91 715 145 q 558 11 620 38 q 423 -15 495 -15 z "},"F":{"ha":860,"x_min":155,"x_max":769,"o":"m 769 779 q 737 719 769 740 q 641 698 704 698 l 383 698 l 383 442 l 610 442 q 715 361 715 442 q 610 281 715 281 l 383 281 l 383 115 q 268 -12 383 -12 q 155 115 155 -12 l 155 732 q 282 860 155 860 l 641 860 q 737 839 704 860 q 769 779 769 819 z "},"G":{"ha":860,"x_min":35,"x_max":811,"o":"m 440 -15 q 287 10 360 -15 q 157 86 214 34 q 68 223 101 139 q 35 427 35 307 q 70 631 35 547 q 165 767 106 715 q 300 844 225 820 q 456 868 376 868 q 595 848 532 868 q 708 786 659 828 q 749 738 736 763 q 763 689 763 713 q 732 624 763 649 q 665 598 702 598 q 615 610 639 598 q 574 640 591 622 q 525 683 555 662 q 457 704 496 704 q 364 677 408 704 q 291 589 319 650 q 263 427 263 528 q 290 260 263 320 q 360 174 317 199 q 453 149 403 149 q 526 169 497 149 q 571 226 556 190 q 588 308 587 262 l 514 308 q 441 327 468 308 q 414 385 414 345 q 440 444 414 426 q 512 462 466 462 l 695 462 q 784 432 757 462 q 811 346 811 402 q 762 149 811 229 q 629 27 713 68 q 440 -15 545 -15 z "},"Ğ":{"ha":860,"x_min":35,"x_max":811,"o":"m 440 -15 q 287 10 360 -15 q 157 86 214 34 q 68 223 101 139 q 35 427 35 307 q 70 631 35 547 q 165 767 106 715 q 300 844 225 820 q 456 868 376 868 q 595 848 532 868 q 708 786 659 828 q 749 738 736 763 q 763 689 763 713 q 732 624 763 649 q 665 598 702 598 q 615 610 639 598 q 574 640 591 622 q 525 683 555 662 q 457 704 496 704 q 364 677 408 704 q 291 589 319 650 q 263 427 263 528 q 290 260 263 320 q 360 174 317 199 q 453 149 403 149 q 526 169 497 149 q 571 226 556 190 q 588 308 587 262 l 514 308 q 441 327 468 308 q 414 385 414 345 q 440 444 414 426 q 512 462 466 462 l 695 462 q 784 432 757 462 q 811 346 811 402 q 762 149 811 229 q 629 27 713 68 q 440 -15 545 -15 m 564 1140 q 610 1125 594 1140 q 626 1085 626 1110 q 619 1051 626 1069 q 592 1013 611 1032 q 535 967 571 986 q 447 948 499 948 q 367 964 400 948 q 313 1004 334 980 q 280 1044 290 1023 q 270 1083 270 1065 q 287 1124 270 1108 q 332 1140 304 1140 q 384 1125 369 1140 q 403 1090 399 1109 q 415 1063 406 1075 q 449 1050 424 1050 q 482 1063 473 1050 q 493 1089 490 1075 q 512 1125 497 1109 q 564 1140 528 1140 z "},"Ǧ":{"ha":860,"x_min":35,"x_max":811,"o":"m 440 -15 q 287 10 360 -15 q 157 86 214 34 q 68 223 101 139 q 35 427 35 307 q 70 631 35 547 q 165 767 106 715 q 300 844 225 820 q 456 868 376 868 q 595 848 532 868 q 708 786 659 828 q 749 738 736 763 q 763 689 763 713 q 732 624 763 649 q 665 598 702 598 q 615 610 639 598 q 574 640 591 622 q 525 683 555 662 q 457 704 496 704 q 364 677 408 704 q 291 589 319 650 q 263 427 263 528 q 290 260 263 320 q 360 174 317 199 q 453 149 403 149 q 526 169 497 149 q 571 226 556 190 q 588 308 587 262 l 514 308 q 441 327 468 308 q 414 385 414 345 q 440 444 414 426 q 512 462 466 462 l 695 462 q 784 432 757 462 q 811 346 811 402 q 762 149 811 229 q 629 27 713 68 q 440 -15 545 -15 m 611 1017 l 583 988 q 522 931 551 951 q 449 912 493 912 q 376 931 405 912 q 314 988 347 951 l 287 1017 q 270 1053 270 1035 q 288 1091 270 1076 q 333 1106 305 1106 q 373 1094 356 1106 q 404 1063 389 1081 l 449 1010 l 493 1063 q 524 1093 508 1081 q 565 1106 541 1106 q 610 1092 593 1106 q 628 1053 628 1077 q 624 1036 628 1046 q 611 1017 620 1027 z "},"Ĝ":{"ha":860,"x_min":35,"x_max":811,"o":"m 440 -15 q 287 10 360 -15 q 157 86 214 34 q 68 223 101 139 q 35 427 35 307 q 70 631 35 547 q 165 767 106 715 q 300 844 225 820 q 456 868 376 868 q 595 848 532 868 q 708 786 659 828 q 749 738 736 763 q 763 689 763 713 q 732 624 763 649 q 665 598 702 598 q 615 610 639 598 q 574 640 591 622 q 525 683 555 662 q 457 704 496 704 q 364 677 408 704 q 291 589 319 650 q 263 427 263 528 q 290 260 263 320 q 360 174 317 199 q 453 149 403 149 q 526 169 497 149 q 571 226 556 190 q 588 308 587 262 l 514 308 q 441 327 468 308 q 414 385 414 345 q 440 444 414 426 q 512 462 466 462 l 695 462 q 784 432 757 462 q 811 346 811 402 q 762 149 811 229 q 629 27 713 68 q 440 -15 545 -15 m 611 996 q 628 960 628 978 q 610 922 628 937 q 565 907 593 907 q 525 920 542 907 q 494 950 508 933 l 449 1003 l 404 950 q 373 919 389 931 q 333 907 356 907 q 288 922 305 907 q 270 960 270 937 q 274 977 270 968 q 287 996 278 987 l 314 1025 q 376 1082 347 1063 q 449 1101 405 1101 q 522 1082 493 1101 q 584 1025 551 1063 l 611 996 z "},"Ģ":{"ha":860,"x_min":35,"x_max":811,"o":"m 440 -15 q 287 10 360 -15 q 157 86 214 34 q 68 223 101 139 q 35 427 35 307 q 70 631 35 547 q 165 767 106 715 q 300 844 225 820 q 456 868 376 868 q 595 848 532 868 q 708 786 659 828 q 749 738 736 763 q 763 689 763 713 q 732 624 763 649 q 665 598 702 598 q 615 610 639 598 q 574 640 591 622 q 525 683 555 662 q 457 704 496 704 q 364 677 408 704 q 291 589 319 650 q 263 427 263 528 q 290 260 263 320 q 360 174 317 199 q 453 149 403 149 q 526 169 497 149 q 571 226 556 190 q 588 308 587 262 l 514 308 q 441 327 468 308 q 414 385 414 345 q 440 444 414 426 q 512 462 466 462 l 695 462 q 784 432 757 462 q 811 346 811 402 q 762 149 811 229 q 629 27 713 68 q 440 -15 545 -15 m 458 -62 q 515 -84 491 -62 q 539 -143 539 -107 q 524 -224 539 -173 q 464 -320 510 -276 q 435 -342 449 -335 q 413 -349 422 -349 q 402 -344 406 -349 q 398 -335 398 -340 q 407 -316 398 -328 q 433 -287 417 -304 q 457 -256 447 -272 q 470 -222 466 -239 q 465 -222 468 -222 q 458 -222 461 -222 q 401 -199 424 -222 q 378 -142 378 -176 q 401 -85 378 -108 q 458 -62 424 -62 z "},"Ġ":{"ha":860,"x_min":35,"x_max":811,"o":"m 440 -15 q 287 10 360 -15 q 157 86 214 34 q 68 223 101 139 q 35 427 35 307 q 70 631 35 547 q 165 767 106 715 q 300 844 225 820 q 456 868 376 868 q 595 848 532 868 q 708 786 659 828 q 749 738 736 763 q 763 689 763 713 q 732 624 763 649 q 665 598 702 598 q 615 610 639 598 q 574 640 591 622 q 525 683 555 662 q 457 704 496 704 q 364 677 408 704 q 291 589 319 650 q 263 427 263 528 q 290 260 263 320 q 360 174 317 199 q 453 149 403 149 q 526 169 497 149 q 571 226 556 190 q 588 308 587 262 l 514 308 q 441 327 468 308 q 414 385 414 345 q 440 444 414 426 q 512 462 466 462 l 695 462 q 784 432 757 462 q 811 346 811 402 q 762 149 811 229 q 629 27 713 68 q 440 -15 545 -15 m 449 945 q 368 978 401 945 q 335 1060 335 1012 q 368 1143 335 1109 q 449 1176 401 1176 q 531 1143 497 1176 q 564 1060 564 1109 q 531 978 564 1012 q 449 945 497 945 z "},"H":{"ha":860,"x_min":71,"x_max":788,"o":"m 560 738 q 674 867 560 867 q 788 738 788 867 l 788 115 q 674 -12 788 -12 q 560 115 560 -12 l 560 355 l 299 355 l 299 115 q 185 -12 299 -12 q 71 115 71 -12 l 71 738 q 100 834 71 801 q 185 867 130 867 q 299 738 299 867 l 299 516 l 560 516 l 560 738 z "},"Ħ":{"ha":860,"x_min":8,"x_max":847,"o":"m 8 685 q 33 736 8 718 q 120 753 58 753 l 736 753 q 823 736 799 753 q 847 685 847 718 q 823 633 847 651 q 736 615 799 615 l 120 615 q 33 633 58 615 q 8 685 8 651 m 560 738 q 674 867 560 867 q 788 738 788 867 l 788 115 q 674 -12 788 -12 q 560 115 560 -12 l 560 355 l 299 355 l 299 115 q 185 -12 299 -12 q 71 115 71 -12 l 71 738 q 100 834 71 801 q 185 867 130 867 q 299 738 299 867 l 299 516 l 560 516 l 560 738 z "},"Ĥ":{"ha":860,"x_min":71,"x_max":788,"o":"m 560 738 q 674 867 560 867 q 788 738 788 867 l 788 115 q 674 -12 788 -12 q 560 115 560 -12 l 560 355 l 299 355 l 299 115 q 185 -12 299 -12 q 71 115 71 -12 l 71 738 q 100 834 71 801 q 185 867 130 867 q 299 738 299 867 l 299 516 l 560 516 l 560 738 m 590 996 q 607 960 607 978 q 590 922 607 937 q 544 907 572 907 q 504 920 521 907 q 473 950 488 933 l 428 1003 l 383 950 q 352 919 368 931 q 312 907 335 907 q 267 922 284 907 q 249 960 249 937 q 253 977 249 968 q 266 996 257 987 l 293 1025 q 355 1082 326 1063 q 428 1101 384 1101 q 501 1082 472 1101 q 563 1025 530 1063 l 590 996 z "},"I":{"ha":860,"x_min":100,"x_max":756,"o":"m 216 0 q 129 21 158 0 q 100 81 100 42 q 129 141 100 119 q 216 162 158 162 l 320 162 l 320 698 l 216 698 q 129 719 158 698 q 100 779 100 740 q 129 839 100 819 q 216 860 158 860 l 640 860 q 726 839 697 860 q 756 779 756 819 q 726 719 756 740 q 640 698 697 698 l 537 698 l 537 162 l 640 162 q 726 141 697 162 q 756 81 756 119 q 726 21 756 42 q 640 0 697 0 l 216 0 z "},"Í":{"ha":860,"x_min":100,"x_max":756,"o":"m 216 0 q 129 21 158 0 q 100 81 100 42 q 129 141 100 119 q 216 162 158 162 l 320 162 l 320 698 l 216 698 q 129 719 158 698 q 100 779 100 740 q 129 839 100 819 q 216 860 158 860 l 640 860 q 726 839 697 860 q 756 779 756 819 q 726 719 756 740 q 640 698 697 698 l 537 698 l 537 162 l 640 162 q 726 141 697 162 q 756 81 756 119 q 726 21 756 42 q 640 0 697 0 l 216 0 m 409 913 q 379 922 390 913 q 368 947 368 931 q 393 1007 368 972 l 421 1044 q 475 1100 451 1085 q 545 1114 499 1114 l 578 1114 q 619 1101 604 1114 q 633 1070 633 1089 q 604 1017 633 1044 l 554 972 q 483 926 517 940 q 409 913 448 913 z "},"Ĭ":{"ha":860,"x_min":100,"x_max":756,"o":"m 216 0 q 129 21 158 0 q 100 81 100 42 q 129 141 100 119 q 216 162 158 162 l 320 162 l 320 698 l 216 698 q 129 719 158 698 q 100 779 100 740 q 129 839 100 819 q 216 860 158 860 l 640 860 q 726 839 697 860 q 756 779 756 819 q 726 719 756 740 q 640 698 697 698 l 537 698 l 537 162 l 640 162 q 726 141 697 162 q 756 81 756 119 q 726 21 756 42 q 640 0 697 0 l 216 0 m 544 1107 q 591 1091 574 1107 q 607 1051 607 1076 q 599 1017 607 1035 q 573 979 592 998 q 516 933 551 952 q 428 914 480 914 q 348 930 381 914 q 293 970 315 947 q 260 1010 270 990 q 251 1049 251 1031 q 268 1091 251 1074 q 313 1107 285 1107 q 365 1091 349 1107 q 384 1056 380 1075 q 396 1028 387 1041 q 429 1016 405 1016 q 462 1028 453 1016 q 474 1056 471 1041 q 493 1091 477 1075 q 544 1107 508 1107 z "},"Ǐ":{"ha":860,"x_min":100,"x_max":756,"o":"m 216 0 q 129 21 158 0 q 100 81 100 42 q 129 141 100 119 q 216 162 158 162 l 320 162 l 320 698 l 216 698 q 129 719 158 698 q 100 779 100 740 q 129 839 100 819 q 216 860 158 860 l 640 860 q 726 839 697 860 q 756 779 756 819 q 726 719 756 740 q 640 698 697 698 l 537 698 l 537 162 l 640 162 q 726 141 697 162 q 756 81 756 119 q 726 21 756 42 q 640 0 697 0 l 216 0 m 592 1017 l 564 988 q 502 931 531 951 q 430 912 474 912 q 356 931 385 912 q 294 988 327 951 l 267 1017 q 251 1053 251 1035 q 268 1091 251 1076 q 313 1106 285 1106 q 353 1094 337 1106 q 385 1063 369 1081 l 430 1010 l 474 1063 q 505 1093 488 1081 q 545 1106 522 1106 q 591 1092 574 1106 q 608 1053 608 1077 q 605 1036 608 1046 q 592 1017 601 1027 z "},"Î":{"ha":860,"x_min":100,"x_max":756,"o":"m 216 0 q 129 21 158 0 q 100 81 100 42 q 129 141 100 119 q 216 162 158 162 l 320 162 l 320 698 l 216 698 q 129 719 158 698 q 100 779 100 740 q 129 839 100 819 q 216 860 158 860 l 640 860 q 726 839 697 860 q 756 779 756 819 q 726 719 756 740 q 640 698 697 698 l 537 698 l 537 162 l 640 162 q 726 141 697 162 q 756 81 756 119 q 726 21 756 42 q 640 0 697 0 l 216 0 m 592 996 q 609 960 609 978 q 592 922 609 937 q 547 907 574 907 q 506 920 523 907 q 475 950 490 933 l 430 1003 l 385 950 q 354 919 370 931 q 314 907 338 907 q 269 922 286 907 q 251 960 251 937 q 255 977 251 968 q 268 996 259 987 l 295 1025 q 357 1082 328 1063 q 430 1101 386 1101 q 503 1082 474 1101 q 565 1025 532 1063 l 592 996 z "},"Ȉ":{"ha":860,"x_min":100,"x_max":756,"o":"m 216 0 q 129 21 158 0 q 100 81 100 42 q 129 141 100 119 q 216 162 158 162 l 320 162 l 320 698 l 216 698 q 129 719 158 698 q 100 779 100 740 q 129 839 100 819 q 216 860 158 860 l 640 860 q 726 839 697 860 q 756 779 756 819 q 726 719 756 740 q 640 698 697 698 l 537 698 l 537 162 l 640 162 q 726 141 697 162 q 756 81 756 119 q 726 21 756 42 q 640 0 697 0 l 216 0 m 331 912 q 268 926 297 912 q 208 972 240 940 l 163 1017 q 144 1043 150 1030 q 138 1069 138 1057 q 151 1100 138 1088 q 184 1113 163 1113 l 213 1113 q 273 1099 252 1113 q 318 1043 293 1085 l 342 1006 q 365 947 365 969 q 356 921 365 931 q 331 912 347 912 m 565 912 q 503 926 532 912 q 442 972 474 940 l 398 1017 q 373 1069 373 1042 q 386 1100 373 1088 q 419 1113 399 1113 l 447 1113 q 507 1099 487 1113 q 552 1043 527 1084 l 578 1006 q 594 973 589 988 q 599 947 599 958 q 590 921 599 931 q 565 912 581 912 z "},"Ï":{"ha":860,"x_min":100,"x_max":756,"o":"m 216 0 q 129 21 158 0 q 100 81 100 42 q 129 141 100 119 q 216 162 158 162 l 320 162 l 320 698 l 216 698 q 129 719 158 698 q 100 779 100 740 q 129 839 100 819 q 216 860 158 860 l 640 860 q 726 839 697 860 q 756 779 756 819 q 726 719 756 740 q 640 698 697 698 l 537 698 l 537 162 l 640 162 q 726 141 697 162 q 756 81 756 119 q 726 21 756 42 q 640 0 697 0 l 216 0 m 281 921 q 199 954 233 921 q 166 1035 166 988 q 199 1119 166 1085 q 281 1153 233 1153 q 362 1119 328 1153 q 395 1035 395 1085 q 362 954 395 988 q 281 921 328 921 m 578 921 q 497 954 530 921 q 463 1035 463 988 q 497 1119 463 1085 q 578 1153 530 1153 q 660 1119 626 1153 q 694 1035 694 1085 q 660 954 694 988 q 578 921 626 921 z "},"İ":{"ha":860,"x_min":100,"x_max":756,"o":"m 216 0 q 129 21 158 0 q 100 81 100 42 q 129 141 100 119 q 216 162 158 162 l 320 162 l 320 698 l 216 698 q 129 719 158 698 q 100 779 100 740 q 129 839 100 819 q 216 860 158 860 l 640 860 q 726 839 697 860 q 756 779 756 819 q 726 719 756 740 q 640 698 697 698 l 537 698 l 537 162 l 640 162 q 726 141 697 162 q 756 81 756 119 q 726 21 756 42 q 640 0 697 0 l 216 0 m 430 922 q 349 955 382 922 q 315 1037 315 988 q 349 1119 315 1085 q 430 1153 382 1153 q 511 1119 478 1153 q 544 1037 544 1085 q 511 955 544 988 q 430 922 478 922 z "},"Ị":{"ha":860,"x_min":100,"x_max":756,"o":"m 216 0 q 129 21 158 0 q 100 81 100 42 q 129 141 100 119 q 216 162 158 162 l 320 162 l 320 698 l 216 698 q 129 719 158 698 q 100 779 100 740 q 129 839 100 819 q 216 860 158 860 l 640 860 q 726 839 697 860 q 756 779 756 819 q 726 719 756 740 q 640 698 697 698 l 537 698 l 537 162 l 640 162 q 726 141 697 162 q 756 81 756 119 q 726 21 756 42 q 640 0 697 0 l 216 0 m 430 -285 q 349 -251 382 -285 q 315 -169 315 -217 q 349 -87 315 -120 q 430 -53 382 -53 q 511 -87 478 -53 q 544 -169 544 -120 q 511 -253 544 -221 q 430 -285 478 -285 z "},"Ì":{"ha":860,"x_min":100,"x_max":756,"o":"m 216 0 q 129 21 158 0 q 100 81 100 42 q 129 141 100 119 q 216 162 158 162 l 320 162 l 320 698 l 216 698 q 129 719 158 698 q 100 779 100 740 q 129 839 100 819 q 216 860 158 860 l 640 860 q 726 839 697 860 q 756 779 756 819 q 726 719 756 740 q 640 698 697 698 l 537 698 l 537 162 l 640 162 q 726 141 697 162 q 756 81 756 119 q 726 21 756 42 q 640 0 697 0 l 216 0 m 470 907 q 397 920 432 907 q 325 965 363 934 l 276 1011 q 247 1064 247 1037 q 261 1095 247 1083 q 301 1108 276 1108 l 335 1108 q 405 1093 381 1108 q 458 1038 428 1079 l 486 1000 q 512 941 512 965 q 501 916 512 925 q 470 907 490 907 z "},"Ỉ":{"ha":860,"x_min":100,"x_max":756,"o":"m 216 0 q 129 21 158 0 q 100 81 100 42 q 129 141 100 119 q 216 162 158 162 l 320 162 l 320 698 l 216 698 q 129 719 158 698 q 100 779 100 740 q 129 839 100 819 q 216 860 158 860 l 640 860 q 726 839 697 860 q 756 779 756 819 q 726 719 756 740 q 640 698 697 698 l 537 698 l 537 162 l 640 162 q 726 141 697 162 q 756 81 756 119 q 726 21 756 42 q 640 0 697 0 l 216 0 m 394 913 q 354 927 368 913 q 340 962 340 941 q 353 1000 340 984 q 394 1015 366 1015 q 451 1024 425 1015 q 478 1054 478 1033 q 452 1081 478 1075 q 401 1086 427 1086 q 359 1084 375 1086 q 327 1078 343 1083 q 311 1074 318 1075 q 297 1074 304 1074 q 269 1083 281 1074 q 258 1110 258 1092 q 299 1167 258 1147 q 407 1188 340 1188 q 500 1176 456 1188 q 573 1135 544 1164 q 601 1053 601 1106 q 567 970 601 1001 q 485 926 533 940 q 394 913 438 913 z "},"Ȋ":{"ha":860,"x_min":100,"x_max":756,"o":"m 216 0 q 129 21 158 0 q 100 81 100 42 q 129 141 100 119 q 216 162 158 162 l 320 162 l 320 698 l 216 698 q 129 719 158 698 q 100 779 100 740 q 129 839 100 819 q 216 860 158 860 l 640 860 q 726 839 697 860 q 756 779 756 819 q 726 719 756 740 q 640 698 697 698 l 537 698 l 537 162 l 640 162 q 726 141 697 162 q 756 81 756 119 q 726 21 756 42 q 640 0 697 0 l 216 0 m 544 909 q 493 925 508 909 q 474 960 477 941 q 462 987 471 974 q 429 999 453 999 q 396 987 405 999 q 384 960 387 974 q 365 925 380 940 q 313 909 349 909 q 268 925 285 909 q 251 966 251 941 q 260 1005 251 984 q 293 1045 270 1026 q 348 1085 315 1069 q 428 1101 381 1101 q 516 1082 480 1101 q 573 1035 551 1063 q 599 999 592 1017 q 607 964 607 980 q 591 924 607 940 q 544 909 574 909 z "},"Ī":{"ha":860,"x_min":100,"x_max":756,"o":"m 216 0 q 129 21 158 0 q 100 81 100 42 q 129 141 100 119 q 216 162 158 162 l 320 162 l 320 698 l 216 698 q 129 719 158 698 q 100 779 100 740 q 129 839 100 819 q 216 860 158 860 l 640 860 q 726 839 697 860 q 756 779 756 819 q 726 719 756 740 q 640 698 697 698 l 537 698 l 537 162 l 640 162 q 726 141 697 162 q 756 81 756 119 q 726 21 756 42 q 640 0 697 0 l 216 0 m 156 988 q 182 1033 156 1016 q 266 1050 208 1050 l 590 1050 q 675 1033 649 1050 q 701 988 701 1016 q 675 941 701 958 q 590 924 649 924 l 266 924 q 182 941 208 924 q 156 988 156 958 z "},"Į":{"ha":860,"x_min":100,"x_max":756,"o":"m 216 0 q 129 21 158 0 q 100 81 100 42 q 129 141 100 119 q 216 162 158 162 l 320 162 l 320 698 l 216 698 q 129 719 158 698 q 100 779 100 740 q 129 839 100 819 q 216 860 158 860 l 640 860 q 726 839 697 860 q 756 779 756 819 q 726 719 756 740 q 640 698 697 698 l 537 698 l 537 162 l 640 162 q 726 141 697 162 q 756 81 756 119 q 726 21 756 42 q 640 0 697 0 l 216 0 m 576 -333 q 478 -321 524 -333 q 403 -278 432 -308 q 374 -194 374 -247 q 388 -124 374 -158 q 424 -64 402 -90 q 469 -21 445 -37 q 515 0 493 -4 l 614 0 q 581 -33 599 -9 q 550 -88 563 -58 q 536 -147 536 -119 q 551 -191 536 -177 q 594 -205 567 -205 q 618 -203 603 -205 q 642 -199 633 -201 q 666 -194 655 -195 q 685 -193 677 -193 q 725 -209 713 -193 q 736 -249 736 -224 q 690 -313 736 -292 q 576 -333 644 -333 z "},"Ĩ":{"ha":860,"x_min":100,"x_max":756,"o":"m 216 0 q 129 21 158 0 q 100 81 100 42 q 129 141 100 119 q 216 162 158 162 l 320 162 l 320 698 l 216 698 q 129 719 158 698 q 100 779 100 740 q 129 839 100 819 q 216 860 158 860 l 640 860 q 726 839 697 860 q 756 779 756 819 q 726 719 756 740 q 640 698 697 698 l 537 698 l 537 162 l 640 162 q 726 141 697 162 q 756 81 756 119 q 726 21 756 42 q 640 0 697 0 l 216 0 m 510 919 q 454 930 474 919 q 416 954 434 941 q 390 972 403 965 q 357 978 376 978 q 322 973 338 978 q 292 959 306 967 q 272 949 281 953 q 253 945 262 945 q 229 958 239 945 q 219 990 219 972 q 258 1065 219 1029 q 298 1089 275 1079 q 348 1099 320 1099 q 404 1090 384 1099 q 439 1067 424 1081 q 465 1047 451 1055 q 502 1038 478 1038 q 534 1044 521 1038 q 558 1058 547 1049 q 576 1068 567 1064 q 597 1072 585 1072 q 627 1061 613 1072 q 641 1026 641 1049 q 622 977 641 999 q 577 938 605 957 q 510 919 549 919 z "},"J":{"ha":860,"x_min":46,"x_max":732,"o":"m 385 -15 q 214 15 291 -15 q 92 108 138 44 q 46 271 46 171 q 75 345 46 319 q 150 371 104 371 q 234 341 207 371 q 275 253 260 310 q 296 192 281 215 q 333 158 310 169 q 384 147 355 147 q 452 168 425 147 q 491 238 478 189 q 504 371 504 287 l 504 732 q 617 860 504 860 q 732 732 732 860 l 732 356 q 687 135 732 216 q 564 20 642 54 q 385 -15 485 -15 z "},"Ĵ":{"ha":860,"x_min":46,"x_max":798,"o":"m 385 -15 q 214 15 291 -15 q 92 108 138 44 q 46 271 46 171 q 75 345 46 319 q 150 371 104 371 q 234 341 207 371 q 275 253 260 310 q 296 192 281 215 q 333 158 310 169 q 384 147 355 147 q 452 168 425 147 q 491 238 478 189 q 504 371 504 287 l 504 732 q 617 860 504 860 q 732 732 732 860 l 732 356 q 687 135 732 216 q 564 20 642 54 q 385 -15 485 -15 m 781 996 q 798 960 798 978 q 781 922 798 937 q 735 907 763 907 q 695 920 712 907 q 664 950 678 933 l 619 1003 l 574 950 q 543 919 559 931 q 503 907 526 907 q 458 922 475 907 q 440 960 440 937 q 444 977 440 968 q 457 996 448 987 l 484 1025 q 546 1082 517 1063 q 619 1101 575 1101 q 692 1082 663 1101 q 754 1025 721 1063 l 781 996 z "},"K":{"ha":860,"x_min":93,"x_max":772,"o":"m 207 -13 q 93 114 93 -13 l 93 739 q 123 834 93 801 q 207 867 152 867 q 321 739 321 867 l 321 511 l 534 778 q 597 843 566 819 q 677 867 628 867 q 748 845 725 867 q 772 785 772 823 q 764 745 772 763 q 740 709 756 728 l 572 512 q 525 458 543 478 q 498 433 506 438 q 525 405 506 426 q 576 344 544 384 l 740 150 q 763 111 757 128 q 769 69 769 93 q 742 10 769 33 q 668 -13 715 -13 q 592 7 620 -13 q 533 69 563 27 l 321 347 l 321 114 q 207 -13 321 -13 z "},"Ķ":{"ha":860,"x_min":93,"x_max":772,"o":"m 207 -13 q 93 114 93 -13 l 93 739 q 123 834 93 801 q 207 867 152 867 q 321 739 321 867 l 321 511 l 534 778 q 597 843 566 819 q 677 867 628 867 q 748 845 725 867 q 772 785 772 823 q 764 745 772 763 q 740 709 756 728 l 572 512 q 525 458 543 478 q 498 433 506 438 q 525 405 506 426 q 576 344 544 384 l 740 150 q 763 111 757 128 q 769 69 769 93 q 742 10 769 33 q 668 -13 715 -13 q 592 7 620 -13 q 533 69 563 27 l 321 347 l 321 114 q 207 -13 321 -13 m 409 -47 q 466 -70 442 -47 q 490 -128 490 -92 q 475 -210 490 -158 q 415 -306 460 -261 q 386 -327 399 -321 q 363 -334 373 -334 q 352 -330 356 -334 q 349 -321 349 -326 q 358 -302 349 -314 q 384 -272 367 -290 q 407 -241 398 -258 q 421 -207 417 -224 q 415 -207 419 -207 q 409 -207 412 -207 q 352 -184 375 -207 q 329 -127 329 -161 q 352 -70 329 -94 q 409 -47 375 -47 z "},"L":{"ha":860,"x_min":180,"x_max":764,"o":"m 408 162 l 636 162 q 731 141 698 162 q 764 81 764 119 q 731 21 764 42 q 636 0 698 0 l 308 0 q 180 128 180 0 l 180 738 q 294 867 180 867 q 408 738 408 867 l 408 162 z "},"Ĺ":{"ha":860,"x_min":172,"x_max":764,"o":"m 408 162 l 636 162 q 731 141 698 162 q 764 81 764 119 q 731 21 764 42 q 636 0 698 0 l 308 0 q 180 128 180 0 l 180 738 q 294 867 180 867 q 408 738 408 867 l 408 162 m 211 947 q 184 955 197 947 q 172 981 172 962 q 192 1040 172 1004 l 217 1078 q 267 1136 242 1124 q 338 1149 292 1149 l 360 1149 q 399 1136 385 1149 q 412 1104 412 1124 q 381 1052 412 1078 l 310 988 q 257 955 282 963 q 211 947 233 947 z "},"Ľ":{"ha":860,"x_min":180,"x_max":764,"o":"m 408 162 l 636 162 q 731 141 698 162 q 764 81 764 119 q 731 21 764 42 q 636 0 698 0 l 308 0 q 180 128 180 0 l 180 738 q 294 867 180 867 q 408 738 408 867 l 408 162 m 592 580 q 543 608 558 580 q 528 677 528 637 q 528 696 528 685 q 532 724 529 708 q 537 763 534 741 q 543 812 540 785 q 631 928 557 928 q 694 904 671 928 q 718 841 718 881 q 716 817 718 830 q 710 785 715 803 q 699 742 706 767 q 681 684 692 717 q 592 580 648 580 z "},"Ļ":{"ha":860,"x_min":180,"x_max":764,"o":"m 408 162 l 636 162 q 731 141 698 162 q 764 81 764 119 q 731 21 764 42 q 636 0 698 0 l 308 0 q 180 128 180 0 l 180 738 q 294 867 180 867 q 408 738 408 867 l 408 162 m 485 -47 q 541 -70 517 -47 q 565 -128 565 -92 q 551 -210 565 -158 q 490 -306 536 -261 q 462 -327 475 -321 q 439 -334 449 -334 q 428 -330 432 -334 q 424 -321 424 -326 q 434 -302 424 -314 q 460 -272 443 -290 q 483 -241 474 -258 q 497 -207 492 -224 q 491 -207 494 -207 q 485 -207 488 -207 q 428 -184 451 -207 q 405 -127 405 -161 q 428 -70 405 -94 q 485 -47 451 -47 z "},"Ŀ":{"ha":860,"x_min":180,"x_max":857,"o":"m 742 348 q 661 382 694 348 q 628 463 628 415 q 661 545 628 512 q 742 579 694 579 q 824 545 790 579 q 857 463 857 512 q 824 382 857 415 q 742 348 790 348 m 408 162 l 636 162 q 731 141 698 162 q 764 81 764 119 q 731 21 764 42 q 636 0 698 0 l 308 0 q 180 128 180 0 l 180 738 q 294 867 180 867 q 408 738 408 867 l 408 162 z "},"Ł":{"ha":860,"x_min":78,"x_max":764,"o":"m 153 223 q 100 247 122 223 q 78 299 78 270 q 147 399 78 349 l 389 581 q 482 619 442 619 q 536 595 514 619 q 558 542 558 572 q 489 443 558 493 l 247 261 q 153 223 194 223 m 408 162 l 636 162 q 731 141 698 162 q 764 81 764 119 q 731 21 764 42 q 636 0 698 0 l 308 0 q 180 128 180 0 l 180 738 q 294 867 180 867 q 408 738 408 867 l 408 162 z "},"M":{"ha":860,"x_min":33,"x_max":826,"o":"m 144 -7 q 64 22 94 -7 q 33 104 33 51 q 35 156 33 119 q 42 248 38 194 q 52 363 47 301 q 63 485 57 424 q 73 601 68 547 q 82 695 78 656 q 87 750 85 734 q 110 818 91 791 q 159 859 128 845 q 230 873 190 873 l 237 873 q 332 843 297 873 q 377 754 368 813 l 430 447 l 483 754 q 528 843 492 813 q 624 873 565 873 l 630 873 q 701 859 670 873 q 750 818 731 845 q 772 750 768 791 q 777 694 774 734 q 786 600 781 655 q 797 482 791 544 q 808 358 802 419 q 817 243 813 296 q 824 153 822 190 q 826 104 826 116 q 798 22 826 51 q 721 -7 770 -7 q 606 119 609 -7 l 594 552 l 528 229 q 494 143 516 170 q 430 115 472 115 q 366 143 388 115 q 332 229 344 170 l 264 555 l 251 119 q 224 25 249 57 q 144 -7 199 -7 z "},"N":{"ha":860,"x_min":81,"x_max":776,"o":"m 183 -2 q 81 126 81 -2 l 81 724 q 122 826 81 790 q 226 861 164 861 l 231 861 q 334 833 288 861 q 400 749 380 804 l 569 335 l 569 734 q 673 861 569 861 q 749 828 721 861 q 776 734 776 796 l 776 126 q 740 31 776 63 q 641 -2 703 -2 l 639 -2 q 539 26 581 -2 q 476 110 497 55 l 284 563 l 284 126 q 183 -2 284 -2 z "},"Ń":{"ha":860,"x_min":81,"x_max":776,"o":"m 183 -2 q 81 126 81 -2 l 81 724 q 122 826 81 790 q 226 861 164 861 l 231 861 q 334 833 288 861 q 400 749 380 804 l 569 335 l 569 734 q 673 861 569 861 q 749 828 721 861 q 776 734 776 796 l 776 126 q 740 31 776 63 q 641 -2 703 -2 l 639 -2 q 539 26 581 -2 q 476 110 497 55 l 284 563 l 284 126 q 183 -2 284 -2 m 342 947 q 316 955 328 947 q 303 981 303 962 q 324 1040 303 1004 l 348 1078 q 398 1136 374 1124 q 469 1149 423 1149 l 492 1149 q 530 1136 517 1149 q 543 1104 543 1124 q 513 1052 543 1078 l 442 988 q 389 955 413 963 q 342 947 364 947 z "},"Ň":{"ha":860,"x_min":81,"x_max":776,"o":"m 183 -2 q 81 126 81 -2 l 81 724 q 122 826 81 790 q 226 861 164 861 l 231 861 q 334 833 288 861 q 400 749 380 804 l 569 335 l 569 734 q 673 861 569 861 q 749 828 721 861 q 776 734 776 796 l 776 126 q 740 31 776 63 q 641 -2 703 -2 l 639 -2 q 539 26 581 -2 q 476 110 497 55 l 284 563 l 284 126 q 183 -2 284 -2 m 588 1043 l 560 1014 q 498 957 527 976 q 425 938 469 938 q 352 958 381 938 q 290 1014 323 977 l 263 1043 q 247 1080 247 1060 q 264 1117 247 1103 q 309 1132 281 1132 q 349 1120 333 1132 q 381 1090 365 1108 l 425 1036 l 470 1089 q 501 1119 485 1107 q 542 1132 518 1132 q 587 1117 569 1132 q 604 1080 604 1103 q 588 1043 604 1061 z "},"Ņ":{"ha":860,"x_min":81,"x_max":776,"o":"m 183 -2 q 81 126 81 -2 l 81 724 q 122 826 81 790 q 226 861 164 861 l 231 861 q 334 833 288 861 q 400 749 380 804 l 569 335 l 569 734 q 673 861 569 861 q 749 828 721 861 q 776 734 776 796 l 776 126 q 740 31 776 63 q 641 -2 703 -2 l 639 -2 q 539 26 581 -2 q 476 110 497 55 l 284 563 l 284 126 q 183 -2 284 -2 m 427 -47 q 484 -70 460 -47 q 508 -128 508 -92 q 493 -210 508 -158 q 433 -306 478 -261 q 404 -327 417 -321 q 381 -334 391 -334 q 370 -330 374 -334 q 367 -321 367 -326 q 376 -302 367 -314 q 402 -272 385 -290 q 425 -241 416 -258 q 439 -207 435 -224 q 433 -207 437 -207 q 427 -207 430 -207 q 370 -184 393 -207 q 347 -127 347 -161 q 370 -70 347 -94 q 427 -47 393 -47 z "},"Ñ":{"ha":860,"x_min":81,"x_max":776,"o":"m 183 -2 q 81 126 81 -2 l 81 724 q 122 826 81 790 q 226 861 164 861 l 231 861 q 334 833 288 861 q 400 749 380 804 l 569 335 l 569 734 q 673 861 569 861 q 749 828 721 861 q 776 734 776 796 l 776 126 q 740 31 776 63 q 641 -2 703 -2 l 639 -2 q 539 26 581 -2 q 476 110 497 55 l 284 563 l 284 126 q 183 -2 284 -2 m 505 931 q 449 941 469 931 q 411 965 429 952 q 385 983 398 976 q 352 990 372 990 q 317 984 333 990 q 288 970 301 978 q 248 956 264 956 q 224 969 234 956 q 215 1001 215 983 q 253 1076 215 1041 q 293 1101 270 1091 q 343 1110 315 1110 q 399 1101 379 1110 q 434 1078 419 1092 q 460 1058 446 1067 q 497 1050 474 1050 q 528 1055 515 1050 q 553 1069 542 1060 q 571 1080 562 1075 q 592 1084 581 1084 q 622 1072 608 1084 q 635 1037 635 1060 q 617 988 635 1010 q 572 949 600 968 q 505 931 544 931 z "},"Ŋ":{"ha":860,"x_min":93,"x_max":773,"o":"m 560 741 q 588 835 560 803 q 667 868 615 868 q 745 835 718 868 q 773 741 773 803 l 773 -16 q 734 -153 773 -101 q 632 -230 696 -206 q 491 -254 567 -254 q 427 -251 458 -254 q 372 -238 396 -247 q 334 -210 348 -228 q 319 -161 319 -191 q 339 -101 319 -126 q 394 -76 358 -76 q 427 -78 409 -76 q 453 -81 440 -80 q 481 -83 467 -83 q 543 -73 519 -83 q 578 -44 567 -63 q 590 0 590 -26 l 306 476 l 306 125 q 199 -2 306 -2 q 93 125 93 -2 l 93 740 q 128 835 93 802 q 216 868 164 868 l 219 868 q 300 846 273 868 q 352 776 327 824 l 560 398 l 560 741 z "},"O":{"ha":860,"x_min":37,"x_max":822,"o":"m 431 -15 q 289 9 358 -15 q 162 83 219 32 q 71 219 105 135 q 37 427 37 304 q 71 634 37 550 q 162 770 105 719 q 289 845 219 822 q 431 868 358 868 q 571 845 501 868 q 698 770 641 822 q 788 634 754 719 q 822 427 822 550 q 788 219 822 304 q 698 83 754 135 q 571 9 641 32 q 431 -15 501 -15 m 431 147 q 515 179 479 147 q 572 273 551 210 q 592 427 592 335 q 572 580 592 518 q 515 674 551 642 q 431 706 479 706 q 344 674 381 706 q 288 580 308 642 q 268 427 268 518 q 288 273 268 335 q 344 179 308 210 q 431 147 381 147 z "},"Ó":{"ha":860,"x_min":37,"x_max":822,"o":"m 431 -15 q 289 9 358 -15 q 162 83 219 32 q 71 219 105 135 q 37 427 37 304 q 71 634 37 550 q 162 770 105 719 q 289 845 219 822 q 431 868 358 868 q 571 845 501 868 q 698 770 641 822 q 788 634 754 719 q 822 427 822 550 q 788 219 822 304 q 698 83 754 135 q 571 9 641 32 q 431 -15 501 -15 m 431 147 q 515 179 479 147 q 572 273 551 210 q 592 427 592 335 q 572 580 592 518 q 515 674 551 642 q 431 706 479 706 q 344 674 381 706 q 288 580 308 642 q 268 427 268 518 q 288 273 268 335 q 344 179 308 210 q 431 147 381 147 m 410 919 q 380 929 391 919 q 369 954 369 938 q 394 1014 369 979 l 422 1051 q 476 1107 452 1092 q 546 1121 499 1121 l 579 1121 q 619 1108 605 1121 q 634 1077 634 1096 q 605 1024 634 1051 l 555 979 q 483 933 518 947 q 410 919 449 919 z "},"Ŏ":{"ha":860,"x_min":37,"x_max":822,"o":"m 431 -15 q 289 9 358 -15 q 162 83 219 32 q 71 219 105 135 q 37 427 37 304 q 71 634 37 550 q 162 770 105 719 q 289 845 219 822 q 431 868 358 868 q 571 845 501 868 q 698 770 641 822 q 788 634 754 719 q 822 427 822 550 q 788 219 822 304 q 698 83 754 135 q 571 9 641 32 q 431 -15 501 -15 m 431 147 q 515 179 479 147 q 572 273 551 210 q 592 427 592 335 q 572 580 592 518 q 515 674 551 642 q 431 706 479 706 q 344 674 381 706 q 288 580 308 642 q 268 427 268 518 q 288 273 268 335 q 344 179 308 210 q 431 147 381 147 m 545 1114 q 591 1098 575 1114 q 608 1058 608 1083 q 600 1024 608 1042 q 574 986 592 1005 q 516 940 552 959 q 428 921 481 921 q 348 937 381 921 q 294 977 315 953 q 261 1017 271 997 q 251 1056 251 1038 q 268 1098 251 1081 q 313 1114 285 1114 q 365 1098 350 1114 q 385 1063 381 1082 q 397 1035 388 1048 q 430 1023 406 1023 q 463 1035 454 1023 q 474 1063 472 1048 q 493 1098 478 1082 q 545 1114 509 1114 z "},"Ǒ":{"ha":860,"x_min":37,"x_max":822,"o":"m 431 -15 q 289 9 358 -15 q 162 83 219 32 q 71 219 105 135 q 37 427 37 304 q 71 634 37 550 q 162 770 105 719 q 289 845 219 822 q 431 868 358 868 q 571 845 501 868 q 698 770 641 822 q 788 634 754 719 q 822 427 822 550 q 788 219 822 304 q 698 83 754 135 q 571 9 641 32 q 431 -15 501 -15 m 431 147 q 515 179 479 147 q 572 273 551 210 q 592 427 592 335 q 572 580 592 518 q 515 674 551 642 q 431 706 479 706 q 344 674 381 706 q 288 580 308 642 q 268 427 268 518 q 288 273 268 335 q 344 179 308 210 q 431 147 381 147 m 592 1024 l 565 995 q 503 938 532 958 q 431 919 474 919 q 357 938 386 919 q 295 995 328 958 l 268 1024 q 251 1060 251 1042 q 269 1098 251 1083 q 314 1113 286 1113 q 354 1101 338 1113 q 385 1070 370 1088 l 431 1017 l 474 1069 q 506 1100 489 1088 q 546 1113 522 1113 q 592 1099 574 1113 q 609 1060 609 1084 q 605 1043 609 1053 q 592 1024 601 1034 z "},"Ô":{"ha":860,"x_min":37,"x_max":822,"o":"m 431 -15 q 289 9 358 -15 q 162 83 219 32 q 71 219 105 135 q 37 427 37 304 q 71 634 37 550 q 162 770 105 719 q 289 845 219 822 q 431 868 358 868 q 571 845 501 868 q 698 770 641 822 q 788 634 754 719 q 822 427 822 550 q 788 219 822 304 q 698 83 754 135 q 571 9 641 32 q 431 -15 501 -15 m 431 147 q 515 179 479 147 q 572 273 551 210 q 592 427 592 335 q 572 580 592 518 q 515 674 551 642 q 431 706 479 706 q 344 674 381 706 q 288 580 308 642 q 268 427 268 518 q 288 273 268 335 q 344 179 308 210 q 431 147 381 147 m 593 1003 q 610 967 610 985 q 592 929 610 944 q 547 914 575 914 q 507 927 524 914 q 476 957 490 940 l 431 1010 l 386 957 q 355 926 371 938 q 315 914 338 914 q 269 929 287 914 q 252 967 252 944 q 256 984 252 975 q 269 1003 260 994 l 296 1032 q 358 1089 328 1069 q 431 1108 387 1108 q 504 1089 475 1108 q 566 1032 533 1070 l 593 1003 z "},"Ố":{"ha":860,"x_min":37,"x_max":822,"o":"m 431 -15 q 289 9 358 -15 q 162 83 219 32 q 71 219 105 135 q 37 427 37 304 q 71 634 37 550 q 162 770 105 719 q 289 845 219 822 q 431 868 358 868 q 571 845 501 868 q 698 770 641 822 q 788 634 754 719 q 822 427 822 550 q 788 219 822 304 q 698 83 754 135 q 571 9 641 32 q 431 -15 501 -15 m 431 147 q 515 179 479 147 q 572 273 551 210 q 592 427 592 335 q 572 580 592 518 q 515 674 551 642 q 431 706 479 706 q 344 674 381 706 q 288 580 308 642 q 268 427 268 518 q 288 273 268 335 q 344 179 308 210 q 431 147 381 147 m 593 1034 q 610 997 610 1016 q 592 960 610 974 q 547 945 575 945 q 507 958 524 945 q 476 988 490 970 l 431 1041 l 386 988 q 355 957 371 969 q 315 945 338 945 q 269 960 287 945 q 252 997 252 974 q 269 1034 252 1017 l 296 1063 q 358 1120 328 1101 q 431 1139 387 1139 q 504 1120 475 1139 q 566 1063 533 1101 l 593 1034 m 603 1082 q 576 1089 588 1082 q 564 1116 564 1097 q 584 1174 564 1139 l 608 1213 q 659 1271 634 1258 q 730 1283 683 1283 l 752 1283 q 790 1271 777 1283 q 803 1239 803 1258 q 773 1187 803 1213 l 702 1123 q 649 1090 674 1098 q 603 1082 624 1082 z "},"Ộ":{"ha":860,"x_min":37,"x_max":822,"o":"m 431 -15 q 289 9 358 -15 q 162 83 219 32 q 71 219 105 135 q 37 427 37 304 q 71 634 37 550 q 162 770 105 719 q 289 845 219 822 q 431 868 358 868 q 571 845 501 868 q 698 770 641 822 q 788 634 754 719 q 822 427 822 550 q 788 219 822 304 q 698 83 754 135 q 571 9 641 32 q 431 -15 501 -15 m 431 147 q 515 179 479 147 q 572 273 551 210 q 592 427 592 335 q 572 580 592 518 q 515 674 551 642 q 431 706 479 706 q 344 674 381 706 q 288 580 308 642 q 268 427 268 518 q 288 273 268 335 q 344 179 308 210 q 431 147 381 147 m 423 -285 q 342 -251 375 -285 q 308 -169 308 -217 q 342 -87 308 -120 q 423 -53 375 -53 q 504 -87 471 -53 q 538 -169 538 -120 q 504 -253 538 -221 q 423 -285 471 -285 m 593 1003 q 610 967 610 985 q 592 929 610 944 q 547 914 575 914 q 507 927 524 914 q 476 957 490 940 l 431 1010 l 386 957 q 355 926 371 938 q 315 914 338 914 q 269 929 287 914 q 252 967 252 944 q 256 984 252 975 q 269 1003 260 994 l 296 1032 q 358 1089 328 1069 q 431 1108 387 1108 q 504 1089 475 1108 q 566 1032 533 1070 l 593 1003 z "},"Ồ":{"ha":860,"x_min":37,"x_max":822,"o":"m 431 -15 q 289 9 358 -15 q 162 83 219 32 q 71 219 105 135 q 37 427 37 304 q 71 634 37 550 q 162 770 105 719 q 289 845 219 822 q 431 868 358 868 q 571 845 501 868 q 698 770 641 822 q 788 634 754 719 q 822 427 822 550 q 788 219 822 304 q 698 83 754 135 q 571 9 641 32 q 431 -15 501 -15 m 431 147 q 515 179 479 147 q 572 273 551 210 q 592 427 592 335 q 572 580 592 518 q 515 674 551 642 q 431 706 479 706 q 344 674 381 706 q 288 580 308 642 q 268 427 268 518 q 288 273 268 335 q 344 179 308 210 q 431 147 381 147 m 593 1034 q 610 997 610 1016 q 592 960 610 974 q 547 945 575 945 q 507 958 524 945 q 476 988 490 970 l 431 1041 l 386 988 q 355 957 371 969 q 315 945 338 945 q 269 960 287 945 q 252 997 252 974 q 269 1034 252 1017 l 296 1063 q 358 1120 328 1101 q 431 1139 387 1139 q 504 1120 475 1139 q 566 1063 533 1101 l 593 1034 m 666 1082 q 620 1090 644 1082 q 567 1123 596 1097 l 497 1187 q 466 1239 466 1213 q 480 1271 466 1258 q 517 1283 493 1283 l 540 1283 q 611 1271 586 1283 q 660 1213 636 1258 l 685 1174 q 706 1116 706 1139 q 694 1089 706 1097 q 666 1082 682 1082 z "},"Ổ":{"ha":860,"x_min":37,"x_max":822,"o":"m 431 -15 q 289 9 358 -15 q 162 83 219 32 q 71 219 105 135 q 37 427 37 304 q 71 634 37 550 q 162 770 105 719 q 289 845 219 822 q 431 868 358 868 q 571 845 501 868 q 698 770 641 822 q 788 634 754 719 q 822 427 822 550 q 788 219 822 304 q 698 83 754 135 q 571 9 641 32 q 431 -15 501 -15 m 431 147 q 515 179 479 147 q 572 273 551 210 q 592 427 592 335 q 572 580 592 518 q 515 674 551 642 q 431 706 479 706 q 344 674 381 706 q 288 580 308 642 q 268 427 268 518 q 288 273 268 335 q 344 179 308 210 q 431 147 381 147 m 593 1034 q 610 997 610 1016 q 592 960 610 974 q 547 945 575 945 q 507 958 524 945 q 476 988 490 970 l 431 1041 l 386 988 q 355 957 371 969 q 315 945 338 945 q 269 960 287 945 q 252 997 252 974 q 269 1034 252 1017 l 296 1063 q 358 1120 328 1101 q 431 1139 387 1139 q 504 1120 475 1139 q 566 1063 533 1101 l 593 1034 m 607 1094 q 552 1138 552 1094 q 565 1172 552 1159 q 607 1185 578 1185 q 667 1196 638 1185 q 696 1229 696 1208 q 671 1258 696 1249 q 619 1267 646 1267 q 577 1263 594 1267 q 547 1254 560 1259 q 527 1250 539 1251 q 509 1249 516 1249 q 482 1258 494 1249 q 470 1285 470 1267 q 511 1337 470 1317 q 619 1356 553 1356 q 711 1345 669 1356 q 781 1306 754 1333 q 808 1228 808 1278 q 775 1147 808 1176 q 697 1106 743 1118 q 607 1094 650 1094 z "},"Ỗ":{"ha":860,"x_min":37,"x_max":822,"o":"m 431 -15 q 289 9 358 -15 q 162 83 219 32 q 71 219 105 135 q 37 427 37 304 q 71 634 37 550 q 162 770 105 719 q 289 845 219 822 q 431 868 358 868 q 571 845 501 868 q 698 770 641 822 q 788 634 754 719 q 822 427 822 550 q 788 219 822 304 q 698 83 754 135 q 571 9 641 32 q 431 -15 501 -15 m 431 147 q 515 179 479 147 q 572 273 551 210 q 592 427 592 335 q 572 580 592 518 q 515 674 551 642 q 431 706 479 706 q 344 674 381 706 q 288 580 308 642 q 268 427 268 518 q 288 273 268 335 q 344 179 308 210 q 431 147 381 147 m 593 1003 q 610 967 610 985 q 592 929 610 944 q 547 914 575 914 q 507 927 524 914 q 476 957 490 940 l 431 1010 l 386 957 q 355 926 371 938 q 315 914 338 914 q 269 929 287 914 q 252 967 252 944 q 256 984 252 975 q 269 1003 260 994 l 296 1032 q 358 1089 328 1069 q 431 1108 387 1108 q 504 1089 475 1108 q 566 1032 533 1070 l 593 1003 m 511 1167 q 455 1178 475 1167 q 417 1202 435 1189 q 390 1220 403 1213 q 358 1226 377 1226 q 323 1220 339 1226 q 293 1207 306 1215 q 272 1197 282 1201 q 254 1193 263 1193 q 230 1206 240 1193 q 220 1238 220 1219 q 259 1313 220 1277 q 298 1337 276 1327 q 349 1347 321 1347 q 405 1338 385 1347 q 440 1315 425 1328 q 465 1294 451 1303 q 503 1286 479 1286 q 534 1292 522 1286 q 559 1306 547 1297 q 577 1316 567 1312 q 598 1320 586 1320 q 628 1309 614 1320 q 642 1274 642 1297 q 622 1225 642 1247 q 578 1186 606 1205 q 511 1167 550 1167 z "},"Ȍ":{"ha":860,"x_min":37,"x_max":822,"o":"m 431 -15 q 289 9 358 -15 q 162 83 219 32 q 71 219 105 135 q 37 427 37 304 q 71 634 37 550 q 162 770 105 719 q 289 845 219 822 q 431 868 358 868 q 571 845 501 868 q 698 770 641 822 q 788 634 754 719 q 822 427 822 550 q 788 219 822 304 q 698 83 754 135 q 571 9 641 32 q 431 -15 501 -15 m 431 147 q 515 179 479 147 q 572 273 551 210 q 592 427 592 335 q 572 580 592 518 q 515 674 551 642 q 431 706 479 706 q 344 674 381 706 q 288 580 308 642 q 268 427 268 518 q 288 273 268 335 q 344 179 308 210 q 431 147 381 147 m 331 919 q 269 933 298 919 q 209 978 240 947 l 164 1024 q 145 1050 151 1037 q 139 1076 139 1064 q 151 1107 139 1094 q 185 1120 164 1120 l 213 1120 q 273 1106 253 1120 q 319 1050 294 1092 l 343 1013 q 366 953 366 976 q 357 928 366 938 q 331 919 347 919 m 565 919 q 503 933 533 919 q 442 978 474 947 l 399 1024 q 374 1076 374 1049 q 386 1107 374 1094 q 420 1120 399 1120 l 448 1120 q 508 1106 488 1120 q 553 1050 528 1091 l 578 1013 q 594 980 590 995 q 599 953 599 965 q 591 928 599 938 q 565 919 582 919 z "},"Ö":{"ha":860,"x_min":37,"x_max":822,"o":"m 431 -15 q 289 9 358 -15 q 162 83 219 32 q 71 219 105 135 q 37 427 37 304 q 71 634 37 550 q 162 770 105 719 q 289 845 219 822 q 431 868 358 868 q 571 845 501 868 q 698 770 641 822 q 788 634 754 719 q 822 427 822 550 q 788 219 822 304 q 698 83 754 135 q 571 9 641 32 q 431 -15 501 -15 m 431 147 q 515 179 479 147 q 572 273 551 210 q 592 427 592 335 q 572 580 592 518 q 515 674 551 642 q 431 706 479 706 q 344 674 381 706 q 288 580 308 642 q 268 427 268 518 q 288 273 268 335 q 344 179 308 210 q 431 147 381 147 m 281 928 q 200 961 233 928 q 167 1042 167 994 q 200 1126 167 1092 q 281 1160 233 1160 q 363 1126 329 1160 q 396 1042 396 1092 q 363 961 396 994 q 281 928 329 928 m 578 928 q 497 961 531 928 q 464 1042 464 994 q 497 1126 464 1092 q 578 1160 531 1160 q 661 1126 627 1160 q 694 1042 694 1092 q 661 961 694 994 q 578 928 627 928 z "},"Ȫ":{"ha":860,"x_min":37,"x_max":822,"o":"m 431 -15 q 289 9 358 -15 q 162 83 219 32 q 71 219 105 135 q 37 427 37 304 q 71 634 37 550 q 162 770 105 719 q 289 845 219 822 q 431 868 358 868 q 571 845 501 868 q 698 770 641 822 q 788 634 754 719 q 822 427 822 550 q 788 219 822 304 q 698 83 754 135 q 571 9 641 32 q 431 -15 501 -15 m 431 147 q 515 179 479 147 q 572 273 551 210 q 592 427 592 335 q 572 580 592 518 q 515 674 551 642 q 431 706 479 706 q 344 674 381 706 q 288 580 308 642 q 268 427 268 518 q 288 273 268 335 q 344 179 308 210 q 431 147 381 147 m 281 928 q 200 961 233 928 q 167 1042 167 994 q 200 1126 167 1092 q 281 1160 233 1160 q 363 1126 329 1160 q 396 1042 396 1092 q 363 961 396 994 q 281 928 329 928 m 578 928 q 497 961 531 928 q 464 1042 464 994 q 497 1126 464 1092 q 578 1160 531 1160 q 661 1126 627 1160 q 694 1042 694 1092 q 661 961 694 994 q 578 928 627 928 m 156 1286 q 183 1332 156 1315 q 267 1349 209 1349 l 591 1349 q 676 1332 649 1349 q 702 1286 702 1315 q 676 1240 702 1257 q 591 1223 649 1223 l 267 1223 q 183 1240 209 1223 q 156 1286 156 1257 z "},"Ȱ":{"ha":860,"x_min":37,"x_max":822,"o":"m 431 -15 q 289 9 358 -15 q 162 83 219 32 q 71 219 105 135 q 37 427 37 304 q 71 634 37 550 q 162 770 105 719 q 289 845 219 822 q 431 868 358 868 q 571 845 501 868 q 698 770 641 822 q 788 634 754 719 q 822 427 822 550 q 788 219 822 304 q 698 83 754 135 q 571 9 641 32 q 431 -15 501 -15 m 431 147 q 515 179 479 147 q 572 273 551 210 q 592 427 592 335 q 572 580 592 518 q 515 674 551 642 q 431 706 479 706 q 344 674 381 706 q 288 580 308 642 q 268 427 268 518 q 288 273 268 335 q 344 179 308 210 q 431 147 381 147 m 430 928 q 349 962 382 928 q 315 1044 315 995 q 349 1126 315 1092 q 430 1160 382 1160 q 511 1126 478 1160 q 544 1044 544 1092 q 511 962 544 995 q 430 928 478 928 m 156 1288 q 183 1333 156 1316 q 267 1350 209 1350 l 591 1350 q 676 1333 649 1350 q 702 1288 702 1316 q 676 1241 702 1258 q 591 1224 649 1224 l 267 1224 q 183 1241 209 1224 q 156 1288 156 1258 z "},"Ọ":{"ha":860,"x_min":37,"x_max":822,"o":"m 431 -15 q 289 9 358 -15 q 162 83 219 32 q 71 219 105 135 q 37 427 37 304 q 71 634 37 550 q 162 770 105 719 q 289 845 219 822 q 431 868 358 868 q 571 845 501 868 q 698 770 641 822 q 788 634 754 719 q 822 427 822 550 q 788 219 822 304 q 698 83 754 135 q 571 9 641 32 q 431 -15 501 -15 m 431 147 q 515 179 479 147 q 572 273 551 210 q 592 427 592 335 q 572 580 592 518 q 515 674 551 642 q 431 706 479 706 q 344 674 381 706 q 288 580 308 642 q 268 427 268 518 q 288 273 268 335 q 344 179 308 210 q 431 147 381 147 m 423 -285 q 342 -251 375 -285 q 308 -169 308 -217 q 342 -87 308 -120 q 423 -53 375 -53 q 504 -87 471 -53 q 538 -169 538 -120 q 504 -253 538 -221 q 423 -285 471 -285 z "},"Ò":{"ha":860,"x_min":37,"x_max":822,"o":"m 431 -15 q 289 9 358 -15 q 162 83 219 32 q 71 219 105 135 q 37 427 37 304 q 71 634 37 550 q 162 770 105 719 q 289 845 219 822 q 431 868 358 868 q 571 845 501 868 q 698 770 641 822 q 788 634 754 719 q 822 427 822 550 q 788 219 822 304 q 698 83 754 135 q 571 9 641 32 q 431 -15 501 -15 m 431 147 q 515 179 479 147 q 572 273 551 210 q 592 427 592 335 q 572 580 592 518 q 515 674 551 642 q 431 706 479 706 q 344 674 381 706 q 288 580 308 642 q 268 427 268 518 q 288 273 268 335 q 344 179 308 210 q 431 147 381 147 m 471 914 q 398 927 433 914 q 326 972 363 941 l 276 1018 q 247 1071 247 1044 q 262 1102 247 1090 q 301 1115 277 1115 l 335 1115 q 405 1100 381 1115 q 459 1044 429 1086 l 487 1007 q 513 948 513 972 q 501 923 513 932 q 471 914 490 914 z "},"Ỏ":{"ha":860,"x_min":37,"x_max":822,"o":"m 431 -15 q 289 9 358 -15 q 162 83 219 32 q 71 219 105 135 q 37 427 37 304 q 71 634 37 550 q 162 770 105 719 q 289 845 219 822 q 431 868 358 868 q 571 845 501 868 q 698 770 641 822 q 788 634 754 719 q 822 427 822 550 q 788 219 822 304 q 698 83 754 135 q 571 9 641 32 q 431 -15 501 -15 m 431 147 q 515 179 479 147 q 572 273 551 210 q 592 427 592 335 q 572 580 592 518 q 515 674 551 642 q 431 706 479 706 q 344 674 381 706 q 288 580 308 642 q 268 427 268 518 q 288 273 268 335 q 344 179 308 210 q 431 147 381 147 m 395 919 q 355 933 369 919 q 340 968 340 947 q 353 1006 340 990 q 395 1022 367 1022 q 452 1030 426 1022 q 478 1060 478 1039 q 453 1087 478 1081 q 401 1092 428 1092 q 360 1091 376 1092 q 328 1084 344 1089 q 312 1081 319 1081 q 298 1080 305 1080 q 270 1089 282 1080 q 258 1117 258 1099 q 300 1174 258 1153 q 408 1194 341 1194 q 501 1182 457 1194 q 574 1141 545 1170 q 602 1059 602 1112 q 568 977 602 1008 q 486 932 534 946 q 395 919 438 919 z "},"Ơ":{"ha":860,"x_min":40,"x_max":903,"o":"m 435 -15 q 293 9 363 -15 q 166 83 223 32 q 74 219 108 135 q 40 427 40 304 q 74 634 40 550 q 166 770 108 719 q 293 845 223 822 q 435 868 363 868 q 537 856 485 868 q 634 819 588 844 q 686 841 667 824 q 718 885 706 858 q 737 951 730 913 q 764 1010 744 986 q 821 1033 783 1033 q 883 1014 862 1033 q 903 944 903 994 q 883 852 903 898 q 827 773 863 807 q 742 725 790 738 q 805 600 781 674 q 828 427 828 526 q 793 219 828 304 q 702 83 759 135 q 575 9 645 32 q 435 -15 506 -15 m 271 427 q 291 273 271 335 q 348 179 311 210 q 435 147 385 147 q 501 165 471 147 q 552 218 531 183 q 585 306 574 253 q 597 427 597 358 q 585 548 597 496 q 552 635 574 599 q 501 689 531 671 q 435 706 471 706 q 348 674 385 706 q 291 580 311 642 q 271 427 271 518 z "},"Ớ":{"ha":860,"x_min":40,"x_max":903,"o":"m 435 -15 q 293 9 363 -15 q 166 83 223 32 q 74 219 108 135 q 40 427 40 304 q 74 634 40 550 q 166 770 108 719 q 293 845 223 822 q 435 868 363 868 q 537 856 485 868 q 634 819 588 844 q 686 841 667 824 q 718 885 706 858 q 737 951 730 913 q 764 1010 744 986 q 821 1033 783 1033 q 883 1014 862 1033 q 903 944 903 994 q 883 852 903 898 q 827 773 863 807 q 742 725 790 738 q 805 600 781 674 q 828 427 828 526 q 793 219 828 304 q 702 83 759 135 q 575 9 645 32 q 435 -15 506 -15 m 271 427 q 291 273 271 335 q 348 179 311 210 q 435 147 385 147 q 501 165 471 147 q 552 218 531 183 q 585 306 574 253 q 597 427 597 358 q 585 548 597 496 q 552 635 574 599 q 501 689 531 671 q 435 706 471 706 q 348 674 385 706 q 291 580 311 642 q 271 427 271 518 m 410 919 q 380 929 391 919 q 369 954 369 938 q 394 1014 369 979 l 422 1051 q 476 1107 452 1092 q 546 1121 499 1121 l 579 1121 q 619 1108 605 1121 q 634 1077 634 1096 q 605 1024 634 1051 l 555 979 q 483 933 518 947 q 410 919 449 919 z "},"Ợ":{"ha":860,"x_min":40,"x_max":903,"o":"m 435 -15 q 293 9 363 -15 q 166 83 223 32 q 74 219 108 135 q 40 427 40 304 q 74 634 40 550 q 166 770 108 719 q 293 845 223 822 q 435 868 363 868 q 537 856 485 868 q 634 819 588 844 q 686 841 667 824 q 718 885 706 858 q 737 951 730 913 q 764 1010 744 986 q 821 1033 783 1033 q 883 1014 862 1033 q 903 944 903 994 q 883 852 903 898 q 827 773 863 807 q 742 725 790 738 q 805 600 781 674 q 828 427 828 526 q 793 219 828 304 q 702 83 759 135 q 575 9 645 32 q 435 -15 506 -15 m 271 427 q 291 273 271 335 q 348 179 311 210 q 435 147 385 147 q 501 165 471 147 q 552 218 531 183 q 585 306 574 253 q 597 427 597 358 q 585 548 597 496 q 552 635 574 599 q 501 689 531 671 q 435 706 471 706 q 348 674 385 706 q 291 580 311 642 q 271 427 271 518 m 423 -285 q 342 -251 375 -285 q 308 -169 308 -217 q 342 -87 308 -120 q 423 -53 375 -53 q 504 -87 471 -53 q 538 -169 538 -120 q 504 -253 538 -221 q 423 -285 471 -285 z "},"Ờ":{"ha":860,"x_min":40,"x_max":903,"o":"m 435 -15 q 293 9 363 -15 q 166 83 223 32 q 74 219 108 135 q 40 427 40 304 q 74 634 40 550 q 166 770 108 719 q 293 845 223 822 q 435 868 363 868 q 537 856 485 868 q 634 819 588 844 q 686 841 667 824 q 718 885 706 858 q 737 951 730 913 q 764 1010 744 986 q 821 1033 783 1033 q 883 1014 862 1033 q 903 944 903 994 q 883 852 903 898 q 827 773 863 807 q 742 725 790 738 q 805 600 781 674 q 828 427 828 526 q 793 219 828 304 q 702 83 759 135 q 575 9 645 32 q 435 -15 506 -15 m 271 427 q 291 273 271 335 q 348 179 311 210 q 435 147 385 147 q 501 165 471 147 q 552 218 531 183 q 585 306 574 253 q 597 427 597 358 q 585 548 597 496 q 552 635 574 599 q 501 689 531 671 q 435 706 471 706 q 348 674 385 706 q 291 580 311 642 q 271 427 271 518 m 471 914 q 398 927 433 914 q 326 972 363 941 l 276 1018 q 247 1071 247 1044 q 262 1102 247 1090 q 301 1115 277 1115 l 335 1115 q 405 1100 381 1115 q 459 1044 429 1086 l 487 1007 q 513 948 513 972 q 501 923 513 932 q 471 914 490 914 z "},"Ở":{"ha":860,"x_min":40,"x_max":903,"o":"m 435 -15 q 293 9 363 -15 q 166 83 223 32 q 74 219 108 135 q 40 427 40 304 q 74 634 40 550 q 166 770 108 719 q 293 845 223 822 q 435 868 363 868 q 537 856 485 868 q 634 819 588 844 q 686 841 667 824 q 718 885 706 858 q 737 951 730 913 q 764 1010 744 986 q 821 1033 783 1033 q 883 1014 862 1033 q 903 944 903 994 q 883 852 903 898 q 827 773 863 807 q 742 725 790 738 q 805 600 781 674 q 828 427 828 526 q 793 219 828 304 q 702 83 759 135 q 575 9 645 32 q 435 -15 506 -15 m 271 427 q 291 273 271 335 q 348 179 311 210 q 435 147 385 147 q 501 165 471 147 q 552 218 531 183 q 585 306 574 253 q 597 427 597 358 q 585 548 597 496 q 552 635 574 599 q 501 689 531 671 q 435 706 471 706 q 348 674 385 706 q 291 580 311 642 q 271 427 271 518 m 395 919 q 355 933 369 919 q 340 968 340 947 q 353 1006 340 990 q 395 1022 367 1022 q 452 1030 426 1022 q 478 1060 478 1039 q 453 1087 478 1081 q 401 1092 428 1092 q 360 1091 376 1092 q 328 1084 344 1089 q 312 1081 319 1081 q 298 1080 305 1080 q 270 1089 282 1080 q 258 1117 258 1099 q 300 1174 258 1153 q 408 1194 341 1194 q 501 1182 457 1194 q 574 1141 545 1170 q 602 1059 602 1112 q 568 977 602 1008 q 486 932 534 946 q 395 919 438 919 z "},"Ỡ":{"ha":860,"x_min":40,"x_max":903,"o":"m 435 -15 q 293 9 363 -15 q 166 83 223 32 q 74 219 108 135 q 40 427 40 304 q 74 634 40 550 q 166 770 108 719 q 293 845 223 822 q 435 868 363 868 q 537 856 485 868 q 634 819 588 844 q 686 841 667 824 q 718 885 706 858 q 737 951 730 913 q 764 1010 744 986 q 821 1033 783 1033 q 883 1014 862 1033 q 903 944 903 994 q 883 852 903 898 q 827 773 863 807 q 742 725 790 738 q 805 600 781 674 q 828 427 828 526 q 793 219 828 304 q 702 83 759 135 q 575 9 645 32 q 435 -15 506 -15 m 271 427 q 291 273 271 335 q 348 179 311 210 q 435 147 385 147 q 501 165 471 147 q 552 218 531 183 q 585 306 574 253 q 597 427 597 358 q 585 548 597 496 q 552 635 574 599 q 501 689 531 671 q 435 706 471 706 q 348 674 385 706 q 291 580 311 642 q 271 427 271 518 m 511 926 q 455 937 475 926 q 417 961 435 948 q 390 979 403 972 q 358 985 377 985 q 323 980 339 985 q 293 966 306 974 q 272 956 282 960 q 254 952 263 952 q 230 965 240 952 q 220 997 220 978 q 259 1072 220 1036 q 298 1096 276 1086 q 349 1106 321 1106 q 405 1097 385 1106 q 440 1074 425 1088 q 465 1053 451 1062 q 503 1045 479 1045 q 534 1051 522 1045 q 559 1065 547 1056 q 577 1075 567 1071 q 598 1079 586 1079 q 628 1068 614 1079 q 642 1033 642 1056 q 622 984 642 1006 q 578 945 606 964 q 511 926 550 926 z "},"Ő":{"ha":860,"x_min":37,"x_max":822,"o":"m 431 -15 q 289 9 358 -15 q 162 83 219 32 q 71 219 105 135 q 37 427 37 304 q 71 634 37 550 q 162 770 105 719 q 289 845 219 822 q 431 868 358 868 q 571 845 501 868 q 698 770 641 822 q 788 634 754 719 q 822 427 822 550 q 788 219 822 304 q 698 83 754 135 q 571 9 641 32 q 431 -15 501 -15 m 431 147 q 515 179 479 147 q 572 273 551 210 q 592 427 592 335 q 572 580 592 518 q 515 674 551 642 q 431 706 479 706 q 344 674 381 706 q 288 580 308 642 q 268 427 268 518 q 288 273 268 335 q 344 179 308 210 q 431 147 381 147 m 456 1002 l 483 1052 q 521 1108 503 1093 q 571 1122 538 1122 l 614 1122 q 640 1113 631 1122 q 649 1088 649 1103 q 626 1037 649 1065 l 580 980 q 533 934 552 949 q 486 920 515 920 q 457 931 469 920 q 444 960 444 941 q 456 1002 444 978 m 240 1002 l 266 1052 q 304 1108 287 1093 q 355 1122 322 1122 l 397 1122 q 423 1113 414 1122 q 433 1088 433 1103 q 409 1037 433 1065 l 363 980 q 317 934 335 949 q 269 920 298 920 q 240 931 253 920 q 228 960 228 941 q 240 1002 228 978 z "},"Ȏ":{"ha":860,"x_min":37,"x_max":822,"o":"m 431 -15 q 289 9 358 -15 q 162 83 219 32 q 71 219 105 135 q 37 427 37 304 q 71 634 37 550 q 162 770 105 719 q 289 845 219 822 q 431 868 358 868 q 571 845 501 868 q 698 770 641 822 q 788 634 754 719 q 822 427 822 550 q 788 219 822 304 q 698 83 754 135 q 571 9 641 32 q 431 -15 501 -15 m 431 147 q 515 179 479 147 q 572 273 551 210 q 592 427 592 335 q 572 580 592 518 q 515 674 551 642 q 431 706 479 706 q 344 674 381 706 q 288 580 308 642 q 268 427 268 518 q 288 273 268 335 q 344 179 308 210 q 431 147 381 147 m 545 916 q 493 932 509 916 q 474 967 478 948 q 463 994 472 981 q 430 1006 454 1006 q 397 994 406 1006 q 385 967 388 981 q 365 932 381 947 q 313 916 350 916 q 268 932 285 916 q 251 973 251 948 q 261 1012 251 991 q 294 1052 271 1033 q 348 1092 315 1076 q 428 1108 381 1108 q 516 1089 481 1108 q 574 1042 552 1070 q 600 1006 592 1024 q 608 971 608 987 q 591 931 608 947 q 545 916 575 916 z "},"Ō":{"ha":860,"x_min":37,"x_max":822,"o":"m 431 -15 q 289 9 358 -15 q 162 83 219 32 q 71 219 105 135 q 37 427 37 304 q 71 634 37 550 q 162 770 105 719 q 289 845 219 822 q 431 868 358 868 q 571 845 501 868 q 698 770 641 822 q 788 634 754 719 q 822 427 822 550 q 788 219 822 304 q 698 83 754 135 q 571 9 641 32 q 431 -15 501 -15 m 431 147 q 515 179 479 147 q 572 273 551 210 q 592 427 592 335 q 572 580 592 518 q 515 674 551 642 q 431 706 479 706 q 344 674 381 706 q 288 580 308 642 q 268 427 268 518 q 288 273 268 335 q 344 179 308 210 q 431 147 381 147 m 156 994 q 183 1040 156 1023 q 267 1057 209 1057 l 591 1057 q 676 1040 649 1057 q 702 994 702 1023 q 676 948 702 965 q 591 931 649 931 l 267 931 q 183 948 209 931 q 156 994 156 965 z "},"Ǫ":{"ha":860,"x_min":37,"x_max":822,"o":"m 431 -15 q 289 9 358 -15 q 162 83 219 32 q 71 219 105 135 q 37 427 37 304 q 71 634 37 550 q 162 770 105 719 q 289 845 219 822 q 431 868 358 868 q 571 845 501 868 q 698 770 641 822 q 788 634 754 719 q 822 427 822 550 q 788 219 822 304 q 698 83 754 135 q 571 9 641 32 q 431 -15 501 -15 m 431 147 q 515 179 479 147 q 572 273 551 210 q 592 427 592 335 q 572 580 592 518 q 515 674 551 642 q 431 706 479 706 q 344 674 381 706 q 288 580 308 642 q 268 427 268 518 q 288 273 268 335 q 344 179 308 210 q 431 147 381 147 m 620 -281 q 522 -268 568 -281 q 447 -225 476 -256 q 418 -142 418 -194 q 432 -71 418 -105 q 467 -11 446 -37 q 513 32 489 15 q 558 53 537 49 l 658 53 q 625 19 643 44 q 593 -35 607 -5 q 580 -94 580 -66 q 595 -138 580 -124 q 638 -152 610 -152 q 662 -150 647 -152 q 686 -146 677 -148 q 710 -141 699 -142 q 729 -140 721 -140 q 768 -156 757 -140 q 780 -196 780 -172 q 734 -260 780 -240 q 620 -281 688 -281 z "},"Ø":{"ha":860,"x_min":37,"x_max":822,"o":"m 724 920 q 764 907 747 920 q 781 867 781 894 q 774 833 781 851 q 751 790 767 814 l 245 26 q 195 -36 216 -17 q 144 -56 174 -56 q 104 -41 122 -56 q 85 3 85 -26 q 92 38 85 19 q 113 79 98 57 l 617 838 q 666 901 645 881 q 724 920 688 920 m 431 -15 q 289 9 358 -15 q 162 83 219 32 q 71 219 105 135 q 37 427 37 304 q 71 634 37 550 q 162 770 105 719 q 289 845 219 822 q 431 868 358 868 q 571 845 501 868 q 698 770 641 822 q 788 634 754 719 q 822 427 822 550 q 788 219 822 304 q 698 83 754 135 q 571 9 641 32 q 431 -15 501 -15 m 431 147 q 515 179 479 147 q 572 273 551 210 q 592 427 592 335 q 572 580 592 518 q 515 674 551 642 q 431 706 479 706 q 344 674 381 706 q 288 580 308 642 q 268 427 268 518 q 288 273 268 335 q 344 179 308 210 q 431 147 381 147 z "},"Ǿ":{"ha":860,"x_min":37,"x_max":822,"o":"m 724 920 q 764 907 747 920 q 781 867 781 894 q 774 833 781 851 q 751 790 767 814 l 245 26 q 195 -36 216 -17 q 144 -56 174 -56 q 104 -41 122 -56 q 85 3 85 -26 q 92 38 85 19 q 113 79 98 57 l 617 838 q 666 901 645 881 q 724 920 688 920 m 431 -15 q 289 9 358 -15 q 162 83 219 32 q 71 219 105 135 q 37 427 37 304 q 71 634 37 550 q 162 770 105 719 q 289 845 219 822 q 431 868 358 868 q 571 845 501 868 q 698 770 641 822 q 788 634 754 719 q 822 427 822 550 q 788 219 822 304 q 698 83 754 135 q 571 9 641 32 q 431 -15 501 -15 m 431 147 q 515 179 479 147 q 572 273 551 210 q 592 427 592 335 q 572 580 592 518 q 515 674 551 642 q 431 706 479 706 q 344 674 381 706 q 288 580 308 642 q 268 427 268 518 q 288 273 268 335 q 344 179 308 210 q 431 147 381 147 m 409 913 q 379 922 390 913 q 368 947 368 931 q 393 1007 368 972 l 421 1044 q 475 1100 451 1085 q 545 1114 499 1114 l 578 1114 q 619 1101 604 1114 q 633 1070 633 1089 q 604 1017 633 1044 l 554 972 q 483 926 517 940 q 409 913 448 913 z "},"Õ":{"ha":860,"x_min":37,"x_max":822,"o":"m 431 -15 q 289 9 358 -15 q 162 83 219 32 q 71 219 105 135 q 37 427 37 304 q 71 634 37 550 q 162 770 105 719 q 289 845 219 822 q 431 868 358 868 q 571 845 501 868 q 698 770 641 822 q 788 634 754 719 q 822 427 822 550 q 788 219 822 304 q 698 83 754 135 q 571 9 641 32 q 431 -15 501 -15 m 431 147 q 515 179 479 147 q 572 273 551 210 q 592 427 592 335 q 572 580 592 518 q 515 674 551 642 q 431 706 479 706 q 344 674 381 706 q 288 580 308 642 q 268 427 268 518 q 288 273 268 335 q 344 179 308 210 q 431 147 381 147 m 510 938 q 455 948 475 938 q 417 972 435 959 q 390 990 403 983 q 358 997 377 997 q 323 991 339 997 q 293 977 306 985 q 253 963 269 963 q 230 976 240 963 q 220 1008 220 990 q 259 1083 220 1048 q 298 1108 276 1098 q 349 1117 321 1117 q 405 1108 385 1117 q 440 1085 425 1099 q 465 1065 451 1074 q 503 1057 479 1057 q 534 1062 521 1057 q 559 1076 547 1067 q 577 1086 567 1082 q 598 1091 586 1091 q 627 1079 614 1091 q 641 1044 641 1067 q 622 995 641 1017 q 578 956 606 975 q 510 938 550 938 z "},"Ȭ":{"ha":860,"x_min":37,"x_max":822,"o":"m 431 -15 q 289 9 358 -15 q 162 83 219 32 q 71 219 105 135 q 37 427 37 304 q 71 634 37 550 q 162 770 105 719 q 289 845 219 822 q 431 868 358 868 q 571 845 501 868 q 698 770 641 822 q 788 634 754 719 q 822 427 822 550 q 788 219 822 304 q 698 83 754 135 q 571 9 641 32 q 431 -15 501 -15 m 431 147 q 515 179 479 147 q 572 273 551 210 q 592 427 592 335 q 572 580 592 518 q 515 674 551 642 q 431 706 479 706 q 344 674 381 706 q 288 580 308 642 q 268 427 268 518 q 288 273 268 335 q 344 179 308 210 q 431 147 381 147 m 511 926 q 455 937 475 926 q 417 961 435 948 q 390 979 403 972 q 358 985 377 985 q 323 980 339 985 q 293 966 306 974 q 272 956 282 960 q 254 952 263 952 q 230 965 240 952 q 220 997 220 978 q 259 1072 220 1036 q 298 1096 276 1086 q 349 1106 321 1106 q 405 1097 385 1106 q 440 1074 425 1088 q 465 1053 451 1062 q 503 1045 479 1045 q 534 1051 522 1045 q 559 1065 547 1056 q 577 1075 567 1071 q 598 1079 586 1079 q 628 1068 614 1079 q 642 1033 642 1056 q 622 984 642 1006 q 578 945 606 964 q 511 926 550 926 m 156 1235 q 183 1280 156 1263 q 267 1297 209 1297 l 591 1297 q 676 1280 649 1297 q 702 1235 702 1263 q 676 1189 702 1206 q 591 1172 649 1172 l 267 1172 q 183 1189 209 1172 q 156 1235 156 1206 z "},"Œ":{"ha":860,"x_min":4,"x_max":858,"o":"m 858 779 q 826 719 858 740 q 731 698 793 698 l 610 698 l 610 503 l 710 503 q 805 482 772 503 q 838 422 838 461 q 805 362 838 383 q 710 341 772 341 l 610 341 l 610 162 l 731 162 q 826 141 793 162 q 858 81 858 119 q 826 21 858 42 q 731 0 793 0 l 527 0 q 487 5 505 0 q 456 19 469 10 l 453 38 q 386 -2 422 10 q 312 -15 351 -15 q 199 8 253 -15 q 100 82 144 31 q 30 218 56 133 q 4 427 4 303 q 30 635 4 551 q 100 771 56 720 q 199 845 144 822 q 312 868 253 868 q 384 856 349 868 q 447 817 419 844 l 453 839 q 485 855 467 851 q 527 860 504 860 l 731 860 q 826 839 793 860 q 858 779 858 819 m 224 427 q 233 272 224 334 q 261 178 242 210 q 312 147 281 147 q 361 178 342 147 q 389 272 381 210 q 398 427 398 334 q 389 582 398 519 q 361 675 381 644 q 312 706 342 706 q 261 675 281 706 q 233 582 242 644 q 224 427 224 519 z "},"P":{"ha":860,"x_min":123,"x_max":786,"o":"m 350 698 l 350 460 l 430 460 q 477 465 454 460 q 518 482 500 469 q 548 518 537 494 q 558 582 558 542 q 548 644 558 621 q 518 679 537 667 q 477 694 500 691 q 430 698 454 698 l 350 698 m 465 299 l 350 299 l 350 128 q 237 0 350 0 q 123 128 123 0 l 123 732 q 251 860 123 860 l 465 860 q 539 855 497 860 q 623 835 580 850 q 704 790 667 820 q 764 709 741 759 q 786 582 786 658 q 764 454 786 506 q 704 372 741 403 q 623 325 667 341 q 539 304 580 309 q 465 299 497 299 z "},"Þ":{"ha":860,"x_min":113,"x_max":769,"o":"m 435 683 q 513 679 469 683 q 601 662 556 675 q 684 620 646 649 q 745 543 722 592 q 769 419 769 494 q 745 293 769 342 q 684 215 722 244 q 601 173 646 186 q 513 155 556 159 q 435 151 469 151 l 337 151 l 337 97 q 308 17 337 47 q 225 -13 278 -13 q 113 114 113 -13 l 113 739 q 225 867 113 867 q 337 739 337 867 l 337 683 l 435 683 m 399 307 q 454 310 427 307 q 502 324 481 313 q 536 357 524 335 q 549 419 549 380 q 536 477 549 456 q 502 509 524 499 q 454 523 481 520 q 399 526 427 526 l 337 526 l 337 307 l 399 307 z "},"Q":{"ha":860,"x_min":36,"x_max":822,"o":"m 688 -210 q 582 -182 638 -210 q 485 -108 527 -153 q 429 -15 442 -62 q 288 9 358 -15 q 161 83 218 32 q 70 219 104 135 q 36 427 36 304 q 70 634 36 550 q 161 770 104 719 q 289 845 219 822 q 430 868 358 868 q 570 845 501 868 q 697 770 640 822 q 788 634 754 719 q 822 427 822 550 q 792 231 822 313 q 711 99 762 150 q 599 22 661 47 q 627 -10 610 4 q 666 -34 644 -24 q 706 -49 687 -43 q 757 -77 738 -58 q 777 -134 777 -96 q 752 -190 777 -169 q 688 -210 726 -210 m 267 427 q 287 273 267 335 q 344 179 307 210 q 430 147 381 147 q 515 179 478 147 q 571 273 551 210 q 591 427 591 335 q 571 580 591 518 q 515 674 551 642 q 430 706 478 706 q 344 674 381 706 q 287 580 307 642 q 267 427 267 518 z "},"R":{"ha":860,"x_min":89,"x_max":777,"o":"m 317 698 l 317 493 l 431 493 q 519 519 490 493 q 549 597 549 545 q 520 673 549 649 q 431 698 491 698 l 317 698 m 89 115 l 89 732 q 216 860 89 860 l 472 860 q 568 852 516 860 q 668 818 620 844 q 747 743 716 793 q 777 609 777 693 q 742 470 777 524 q 655 387 706 416 l 760 140 q 772 106 767 123 q 776 75 776 90 q 749 12 776 36 q 672 -12 723 -12 q 585 18 611 -12 q 538 101 558 47 l 448 331 l 317 331 l 317 115 q 202 -12 317 -12 q 89 115 89 -12 z "},"Ŕ":{"ha":860,"x_min":89,"x_max":777,"o":"m 317 698 l 317 493 l 431 493 q 519 519 490 493 q 549 597 549 545 q 520 673 549 649 q 431 698 491 698 l 317 698 m 89 115 l 89 732 q 216 860 89 860 l 472 860 q 568 852 516 860 q 668 818 620 844 q 747 743 716 793 q 777 609 777 693 q 742 470 777 524 q 655 387 706 416 l 760 140 q 772 106 767 123 q 776 75 776 90 q 749 12 776 36 q 672 -12 723 -12 q 585 18 611 -12 q 538 101 558 47 l 448 331 l 317 331 l 317 115 q 202 -12 317 -12 q 89 115 89 -12 m 399 913 q 369 922 381 913 q 358 947 358 931 q 383 1007 358 972 l 411 1044 q 465 1100 442 1085 q 535 1114 489 1114 l 569 1114 q 609 1101 594 1114 q 624 1070 624 1089 q 594 1017 624 1044 l 544 972 q 473 926 508 940 q 399 913 438 913 z "},"Ř":{"ha":860,"x_min":89,"x_max":777,"o":"m 317 698 l 317 493 l 431 493 q 519 519 490 493 q 549 597 549 545 q 520 673 549 649 q 431 698 491 698 l 317 698 m 89 115 l 89 732 q 216 860 89 860 l 472 860 q 568 852 516 860 q 668 818 620 844 q 747 743 716 793 q 777 609 777 693 q 742 470 777 524 q 655 387 706 416 l 760 140 q 772 106 767 123 q 776 75 776 90 q 749 12 776 36 q 672 -12 723 -12 q 585 18 611 -12 q 538 101 558 47 l 448 331 l 317 331 l 317 115 q 202 -12 317 -12 q 89 115 89 -12 m 582 1017 l 554 988 q 493 931 522 951 q 420 912 464 912 q 347 931 376 912 q 285 988 317 951 l 258 1017 q 241 1053 241 1035 q 258 1091 241 1076 q 303 1106 276 1106 q 343 1094 327 1106 q 375 1063 360 1081 l 420 1010 l 464 1063 q 495 1093 478 1081 q 535 1106 512 1106 q 581 1092 564 1106 q 599 1053 599 1077 q 595 1036 599 1046 q 582 1017 591 1027 z "},"Ŗ":{"ha":860,"x_min":89,"x_max":777,"o":"m 317 698 l 317 493 l 431 493 q 519 519 490 493 q 549 597 549 545 q 520 673 549 649 q 431 698 491 698 l 317 698 m 89 115 l 89 732 q 216 860 89 860 l 472 860 q 568 852 516 860 q 668 818 620 844 q 747 743 716 793 q 777 609 777 693 q 742 470 777 524 q 655 387 706 416 l 760 140 q 772 106 767 123 q 776 75 776 90 q 749 12 776 36 q 672 -12 723 -12 q 585 18 611 -12 q 538 101 558 47 l 448 331 l 317 331 l 317 115 q 202 -12 317 -12 q 89 115 89 -12 m 427 -47 q 484 -70 460 -47 q 508 -128 508 -92 q 493 -210 508 -158 q 433 -306 478 -261 q 404 -327 417 -321 q 381 -334 391 -334 q 370 -330 374 -334 q 367 -321 367 -326 q 376 -302 367 -314 q 402 -272 385 -290 q 425 -241 416 -258 q 439 -207 435 -224 q 433 -207 437 -207 q 427 -207 430 -207 q 370 -184 393 -207 q 347 -127 347 -161 q 370 -70 347 -94 q 427 -47 393 -47 z "},"Ȑ":{"ha":860,"x_min":89,"x_max":777,"o":"m 317 698 l 317 493 l 431 493 q 519 519 490 493 q 549 597 549 545 q 520 673 549 649 q 431 698 491 698 l 317 698 m 89 115 l 89 732 q 216 860 89 860 l 472 860 q 568 852 516 860 q 668 818 620 844 q 747 743 716 793 q 777 609 777 693 q 742 470 777 524 q 655 387 706 416 l 760 140 q 772 106 767 123 q 776 75 776 90 q 749 12 776 36 q 672 -12 723 -12 q 585 18 611 -12 q 538 101 558 47 l 448 331 l 317 331 l 317 115 q 202 -12 317 -12 q 89 115 89 -12 m 321 912 q 259 926 288 912 q 199 972 230 940 l 153 1017 q 134 1043 140 1030 q 128 1069 128 1057 q 141 1100 128 1088 q 174 1113 153 1113 l 203 1113 q 263 1099 242 1113 q 308 1043 283 1085 l 333 1006 q 356 947 356 969 q 346 921 356 931 q 321 912 337 912 m 555 912 q 493 926 522 912 q 432 972 464 940 l 388 1017 q 363 1069 363 1042 q 376 1100 363 1088 q 410 1113 389 1113 l 438 1113 q 497 1099 477 1113 q 542 1043 517 1084 l 568 1006 q 584 973 579 988 q 589 947 589 958 q 580 921 589 931 q 555 912 572 912 z "},"Ȓ":{"ha":860,"x_min":89,"x_max":777,"o":"m 317 698 l 317 493 l 431 493 q 519 519 490 493 q 549 597 549 545 q 520 673 549 649 q 431 698 491 698 l 317 698 m 89 115 l 89 732 q 216 860 89 860 l 472 860 q 568 852 516 860 q 668 818 620 844 q 747 743 716 793 q 777 609 777 693 q 742 470 777 524 q 655 387 706 416 l 760 140 q 772 106 767 123 q 776 75 776 90 q 749 12 776 36 q 672 -12 723 -12 q 585 18 611 -12 q 538 101 558 47 l 448 331 l 317 331 l 317 115 q 202 -12 317 -12 q 89 115 89 -12 m 535 909 q 483 925 499 909 q 464 960 467 941 q 452 987 461 974 q 419 999 444 999 q 386 987 395 999 q 374 960 377 974 q 355 925 370 940 q 303 909 340 909 q 258 925 275 909 q 241 966 241 941 q 251 1005 241 984 q 283 1045 260 1026 q 338 1085 305 1069 q 418 1101 371 1101 q 506 1082 470 1101 q 563 1035 542 1063 q 590 999 582 1017 q 597 964 597 980 q 581 924 597 940 q 535 909 565 909 z "},"S":{"ha":860,"x_min":62,"x_max":803,"o":"m 431 -15 q 252 9 330 -15 q 127 73 175 33 q 62 190 62 122 q 84 249 62 220 q 153 278 106 278 q 222 261 194 278 q 274 221 249 244 q 340 169 302 192 q 435 147 377 147 q 505 158 474 147 q 553 189 535 169 q 572 237 572 209 q 527 302 572 281 q 392 344 483 324 q 152 454 226 382 q 78 627 78 526 q 126 756 78 701 q 257 839 174 810 q 442 868 339 868 q 590 848 519 868 q 710 790 662 828 q 756 743 738 770 q 773 682 773 716 q 748 618 773 642 q 683 595 724 595 q 615 615 644 595 q 569 653 587 635 q 515 691 549 676 q 432 706 481 706 q 368 697 396 706 q 325 670 340 688 q 310 631 310 653 q 354 569 310 595 q 490 521 398 544 q 652 466 581 499 q 763 382 722 433 q 803 252 803 331 q 756 111 803 171 q 624 18 708 51 q 431 -15 540 -15 z "},"Ś":{"ha":860,"x_min":62,"x_max":803,"o":"m 431 -15 q 252 9 330 -15 q 127 73 175 33 q 62 190 62 122 q 84 249 62 220 q 153 278 106 278 q 222 261 194 278 q 274 221 249 244 q 340 169 302 192 q 435 147 377 147 q 505 158 474 147 q 553 189 535 169 q 572 237 572 209 q 527 302 572 281 q 392 344 483 324 q 152 454 226 382 q 78 627 78 526 q 126 756 78 701 q 257 839 174 810 q 442 868 339 868 q 590 848 519 868 q 710 790 662 828 q 756 743 738 770 q 773 682 773 716 q 748 618 773 642 q 683 595 724 595 q 615 615 644 595 q 569 653 587 635 q 515 691 549 676 q 432 706 481 706 q 368 697 396 706 q 325 670 340 688 q 310 631 310 653 q 354 569 310 595 q 490 521 398 544 q 652 466 581 499 q 763 382 722 433 q 803 252 803 331 q 756 111 803 171 q 624 18 708 51 q 431 -15 540 -15 m 413 914 q 383 923 394 914 q 372 949 372 933 q 397 1008 372 974 l 425 1045 q 479 1101 456 1087 q 549 1115 503 1115 l 583 1115 q 623 1103 608 1115 q 638 1072 638 1090 q 608 1019 638 1045 l 558 974 q 487 928 522 942 q 413 914 452 914 z "},"Š":{"ha":860,"x_min":62,"x_max":803,"o":"m 431 -15 q 252 9 330 -15 q 127 73 175 33 q 62 190 62 122 q 84 249 62 220 q 153 278 106 278 q 222 261 194 278 q 274 221 249 244 q 340 169 302 192 q 435 147 377 147 q 505 158 474 147 q 553 189 535 169 q 572 237 572 209 q 527 302 572 281 q 392 344 483 324 q 152 454 226 382 q 78 627 78 526 q 126 756 78 701 q 257 839 174 810 q 442 868 339 868 q 590 848 519 868 q 710 790 662 828 q 756 743 738 770 q 773 682 773 716 q 748 618 773 642 q 683 595 724 595 q 615 615 644 595 q 569 653 587 635 q 515 691 549 676 q 432 706 481 706 q 368 697 396 706 q 325 670 340 688 q 310 631 310 653 q 354 569 310 595 q 490 521 398 544 q 652 466 581 499 q 763 382 722 433 q 803 252 803 331 q 756 111 803 171 q 624 18 708 51 q 431 -15 540 -15 m 596 1019 l 568 990 q 507 933 535 952 q 434 913 478 913 q 360 933 390 913 q 299 990 331 952 l 272 1019 q 255 1055 255 1037 q 272 1093 255 1078 q 317 1108 290 1108 q 357 1095 341 1108 q 389 1065 374 1083 l 434 1011 l 478 1064 q 509 1095 492 1082 q 549 1108 526 1108 q 595 1093 578 1108 q 613 1055 613 1078 q 609 1038 613 1047 q 596 1019 605 1028 z "},"Ş":{"ha":860,"x_min":62,"x_max":803,"o":"m 409 -323 q 360 -320 382 -323 q 324 -310 339 -317 q 278 -258 278 -292 q 292 -225 278 -236 q 324 -213 306 -213 q 363 -219 340 -213 q 391 -223 376 -222 q 424 -224 406 -224 q 486 -214 463 -224 q 510 -185 510 -204 q 500 -166 510 -172 q 475 -160 491 -160 q 446 -162 460 -160 q 420 -168 433 -164 q 395 -175 408 -172 q 370 -177 383 -177 q 331 -163 343 -177 q 318 -128 318 -149 q 320 -113 318 -122 q 324 -98 322 -105 l 356 -11 q 224 18 282 -3 q 127 73 166 40 q 62 190 62 122 q 84 249 62 220 q 153 278 106 278 q 222 261 194 278 q 274 221 249 244 q 340 169 302 192 q 435 147 377 147 q 505 158 474 147 q 553 189 535 169 q 572 237 572 209 q 527 302 572 281 q 392 344 483 324 q 152 454 226 382 q 78 627 78 526 q 126 756 78 701 q 257 839 174 810 q 442 868 339 868 q 590 848 519 868 q 710 790 662 828 q 756 743 738 770 q 773 682 773 716 q 748 618 773 642 q 683 595 724 595 q 615 615 644 595 q 569 653 587 635 q 515 691 549 676 q 432 706 481 706 q 368 697 396 706 q 325 670 340 688 q 310 631 310 653 q 354 569 310 595 q 490 521 398 544 q 652 466 581 499 q 763 382 722 433 q 803 252 803 331 q 761 119 803 176 q 646 27 720 61 q 474 -13 572 -7 l 442 -106 q 486 -84 462 -90 q 536 -78 510 -78 q 597 -88 567 -78 q 647 -121 626 -99 q 667 -180 667 -144 q 630 -260 667 -228 q 535 -307 594 -292 q 409 -323 476 -323 z "},"Ŝ":{"ha":860,"x_min":62,"x_max":803,"o":"m 431 -15 q 252 9 330 -15 q 127 73 175 33 q 62 190 62 122 q 84 249 62 220 q 153 278 106 278 q 222 261 194 278 q 274 221 249 244 q 340 169 302 192 q 435 147 377 147 q 505 158 474 147 q 553 189 535 169 q 572 237 572 209 q 527 302 572 281 q 392 344 483 324 q 152 454 226 382 q 78 627 78 526 q 126 756 78 701 q 257 839 174 810 q 442 868 339 868 q 590 848 519 868 q 710 790 662 828 q 756 743 738 770 q 773 682 773 716 q 748 618 773 642 q 683 595 724 595 q 615 615 644 595 q 569 653 587 635 q 515 691 549 676 q 432 706 481 706 q 368 697 396 706 q 325 670 340 688 q 310 631 310 653 q 354 569 310 595 q 490 521 398 544 q 652 466 581 499 q 763 382 722 433 q 803 252 803 331 q 756 111 803 171 q 624 18 708 51 q 431 -15 540 -15 m 597 997 q 613 961 613 979 q 596 923 613 938 q 551 908 578 908 q 510 921 527 908 q 479 951 494 934 l 434 1004 l 390 951 q 358 920 374 933 q 318 908 342 908 q 273 923 290 908 q 256 961 256 938 q 259 979 256 969 q 272 997 263 988 l 299 1026 q 361 1083 332 1064 q 434 1102 390 1102 q 507 1083 478 1102 q 569 1026 536 1065 l 597 997 z "},"Ș":{"ha":860,"x_min":62,"x_max":803,"o":"m 431 -15 q 252 9 330 -15 q 127 73 175 33 q 62 190 62 122 q 84 249 62 220 q 153 278 106 278 q 222 261 194 278 q 274 221 249 244 q 340 169 302 192 q 435 147 377 147 q 505 158 474 147 q 553 189 535 169 q 572 237 572 209 q 527 302 572 281 q 392 344 483 324 q 152 454 226 382 q 78 627 78 526 q 126 756 78 701 q 257 839 174 810 q 442 868 339 868 q 590 848 519 868 q 710 790 662 828 q 756 743 738 770 q 773 682 773 716 q 748 618 773 642 q 683 595 724 595 q 615 615 644 595 q 569 653 587 635 q 515 691 549 676 q 432 706 481 706 q 368 697 396 706 q 325 670 340 688 q 310 631 310 653 q 354 569 310 595 q 490 521 398 544 q 652 466 581 499 q 763 382 722 433 q 803 252 803 331 q 756 111 803 171 q 624 18 708 51 q 431 -15 540 -15 m 474 -49 q 530 -71 506 -49 q 554 -130 554 -94 q 540 -211 554 -160 q 479 -307 525 -262 q 451 -329 464 -322 q 428 -335 438 -335 q 417 -331 421 -335 q 413 -322 413 -327 q 423 -303 413 -315 q 449 -274 432 -291 q 472 -242 463 -259 q 485 -208 481 -226 q 480 -208 483 -208 q 474 -208 476 -208 q 417 -185 440 -208 q 394 -128 394 -162 q 417 -72 394 -95 q 474 -49 440 -49 z "},"ẞ":{"ha":860,"x_min":58,"x_max":809,"o":"m 610 476 q 626 451 610 462 q 669 424 641 440 q 717 395 692 412 q 762 355 741 378 q 796 299 783 332 q 809 220 809 266 q 764 86 809 138 q 644 10 718 34 q 485 -15 571 -15 q 403 -5 441 -15 q 342 28 365 5 q 319 88 319 51 q 332 137 319 120 q 362 159 344 153 q 394 165 379 165 q 433 161 415 165 q 457 158 444 160 q 485 157 470 157 q 553 163 526 157 q 595 183 581 169 q 609 222 609 197 q 587 269 609 247 q 537 308 565 291 q 490 335 509 325 q 425 381 458 351 q 393 456 393 411 q 411 530 393 504 q 453 578 430 555 q 484 609 468 592 q 510 642 499 626 q 521 672 521 659 q 511 694 521 688 q 480 701 502 701 l 385 701 q 323 691 349 701 q 284 653 297 681 q 272 572 272 625 l 272 128 q 165 0 272 0 q 58 128 58 0 l 58 585 q 82 723 58 669 q 144 807 105 777 q 232 848 183 837 q 331 860 281 860 l 633 860 q 726 824 695 860 q 757 733 757 788 q 743 667 757 697 q 707 609 728 636 q 663 557 686 582 q 626 511 642 533 q 610 476 610 490 z "},"T":{"ha":860,"x_min":60,"x_max":799,"o":"m 672 860 q 799 779 799 860 q 773 719 799 740 q 695 698 747 698 l 543 698 l 543 115 q 429 -12 543 -12 q 316 115 316 -12 l 316 698 l 188 698 q 93 719 126 698 q 60 779 60 740 q 93 839 60 819 q 188 860 126 860 l 672 860 z "},"Ŧ":{"ha":860,"x_min":60,"x_max":799,"o":"m 173 463 q 210 515 173 497 q 319 533 248 533 l 544 533 q 653 515 615 533 q 690 463 690 497 q 653 411 690 429 q 544 393 615 393 l 319 393 q 210 411 248 393 q 173 463 173 429 m 672 860 q 799 779 799 860 q 773 719 799 740 q 695 698 747 698 l 543 698 l 543 115 q 429 -12 543 -12 q 316 115 316 -12 l 316 698 l 188 698 q 93 719 126 698 q 60 779 60 740 q 93 839 60 819 q 188 860 126 860 l 672 860 z "},"Ť":{"ha":860,"x_min":60,"x_max":799,"o":"m 672 860 q 799 779 799 860 q 773 719 799 740 q 695 698 747 698 l 543 698 l 543 115 q 429 -12 543 -12 q 316 115 316 -12 l 316 698 l 188 698 q 93 719 126 698 q 60 779 60 740 q 93 839 60 819 q 188 860 126 860 l 672 860 m 593 1017 l 565 988 q 504 931 533 951 q 431 912 475 912 q 358 931 387 912 q 296 988 328 951 l 269 1017 q 252 1053 252 1035 q 269 1091 252 1076 q 315 1106 287 1106 q 355 1094 338 1106 q 386 1063 371 1081 l 431 1010 l 475 1063 q 506 1093 490 1081 q 547 1106 523 1106 q 592 1092 575 1106 q 610 1053 610 1077 q 606 1036 610 1046 q 593 1017 602 1027 z "},"Ţ":{"ha":860,"x_min":60,"x_max":799,"o":"m 672 860 q 799 779 799 860 q 773 719 799 740 q 695 698 747 698 l 543 698 l 543 115 q 429 -12 543 -12 q 316 115 316 -12 l 316 698 l 188 698 q 93 719 126 698 q 60 779 60 740 q 93 839 60 819 q 188 860 126 860 l 672 860 m 421 -311 q 372 -308 394 -311 q 335 -299 351 -306 q 290 -247 290 -281 q 304 -213 290 -225 q 336 -201 318 -201 q 376 -208 352 -201 q 403 -212 388 -211 q 436 -213 418 -213 q 498 -203 474 -213 q 522 -173 522 -192 q 513 -154 522 -160 q 487 -148 503 -148 q 458 -150 472 -148 q 432 -156 444 -153 q 407 -163 419 -160 q 382 -165 394 -165 q 342 -151 355 -165 q 330 -117 330 -137 q 332 -102 330 -110 q 336 -86 334 -94 l 376 22 q 445 65 392 65 q 478 55 464 65 q 493 19 493 45 l 454 -94 q 498 -73 474 -79 q 548 -66 522 -66 q 608 -77 578 -66 q 658 -110 638 -87 q 678 -168 678 -132 q 642 -248 678 -216 q 547 -295 606 -280 q 421 -311 488 -311 z "},"Ț":{"ha":860,"x_min":60,"x_max":799,"o":"m 672 860 q 799 779 799 860 q 773 719 799 740 q 695 698 747 698 l 543 698 l 543 115 q 429 -12 543 -12 q 316 115 316 -12 l 316 698 l 188 698 q 93 719 126 698 q 60 779 60 740 q 93 839 60 819 q 188 860 126 860 l 672 860 m 486 -37 q 543 -59 519 -37 q 567 -118 567 -82 q 552 -199 567 -148 q 492 -295 538 -251 q 463 -317 476 -310 q 440 -324 450 -324 q 430 -319 433 -324 q 426 -310 426 -315 q 435 -291 426 -303 q 461 -262 444 -279 q 484 -231 475 -247 q 498 -197 494 -214 q 492 -197 496 -197 q 486 -197 489 -197 q 429 -174 452 -197 q 406 -117 406 -151 q 429 -60 406 -83 q 486 -37 452 -37 z "},"U":{"ha":860,"x_min":67,"x_max":793,"o":"m 431 -15 q 248 22 331 -15 q 116 141 166 59 q 67 357 67 223 l 67 732 q 181 860 67 860 q 294 732 294 860 l 294 369 q 329 206 294 265 q 431 147 364 147 q 531 206 497 147 q 565 369 565 265 l 565 732 q 679 860 565 860 q 793 732 793 860 l 793 357 q 744 141 793 223 q 613 22 695 59 q 431 -15 531 -15 z "},"Ú":{"ha":860,"x_min":67,"x_max":793,"o":"m 431 -15 q 248 22 331 -15 q 116 141 166 59 q 67 357 67 223 l 67 732 q 181 860 67 860 q 294 732 294 860 l 294 369 q 329 206 294 265 q 431 147 364 147 q 531 206 497 147 q 565 369 565 265 l 565 732 q 679 860 565 860 q 793 732 793 860 l 793 357 q 744 141 793 223 q 613 22 695 59 q 431 -15 531 -15 m 408 913 q 378 922 390 913 q 367 947 367 931 q 392 1007 367 972 l 420 1044 q 474 1100 451 1085 q 544 1114 498 1114 l 578 1114 q 618 1101 603 1114 q 633 1070 633 1089 q 603 1017 633 1044 l 553 972 q 482 926 517 940 q 408 913 447 913 z "},"Ŭ":{"ha":860,"x_min":67,"x_max":793,"o":"m 431 -15 q 248 22 331 -15 q 116 141 166 59 q 67 357 67 223 l 67 732 q 181 860 67 860 q 294 732 294 860 l 294 369 q 329 206 294 265 q 431 147 364 147 q 531 206 497 147 q 565 369 565 265 l 565 732 q 679 860 565 860 q 793 732 793 860 l 793 357 q 744 141 793 223 q 613 22 695 59 q 431 -15 531 -15 m 544 1107 q 590 1091 574 1107 q 606 1051 606 1076 q 599 1017 606 1035 q 572 979 591 998 q 515 933 551 952 q 427 914 479 914 q 347 930 380 914 q 292 970 314 947 q 260 1010 269 990 q 250 1049 250 1031 q 267 1091 250 1074 q 312 1107 284 1107 q 364 1091 349 1107 q 383 1056 379 1075 q 395 1028 386 1041 q 428 1016 404 1016 q 461 1028 453 1016 q 473 1056 470 1041 q 492 1091 476 1075 q 544 1107 508 1107 z "},"Ǔ":{"ha":860,"x_min":67,"x_max":793,"o":"m 431 -15 q 248 22 331 -15 q 116 141 166 59 q 67 357 67 223 l 67 732 q 181 860 67 860 q 294 732 294 860 l 294 369 q 329 206 294 265 q 431 147 364 147 q 531 206 497 147 q 565 369 565 265 l 565 732 q 679 860 565 860 q 793 732 793 860 l 793 357 q 744 141 793 223 q 613 22 695 59 q 431 -15 531 -15 m 591 1017 l 563 988 q 502 931 531 951 q 429 912 473 912 q 356 931 385 912 q 294 988 326 951 l 267 1017 q 250 1053 250 1035 q 267 1091 250 1076 q 313 1106 285 1106 q 352 1094 336 1106 q 384 1063 369 1081 l 429 1010 l 473 1063 q 504 1093 488 1081 q 544 1106 521 1106 q 590 1092 573 1106 q 608 1053 608 1077 q 604 1036 608 1046 q 591 1017 600 1027 z "},"Û":{"ha":860,"x_min":67,"x_max":793,"o":"m 431 -15 q 248 22 331 -15 q 116 141 166 59 q 67 357 67 223 l 67 732 q 181 860 67 860 q 294 732 294 860 l 294 369 q 329 206 294 265 q 431 147 364 147 q 531 206 497 147 q 565 369 565 265 l 565 732 q 679 860 565 860 q 793 732 793 860 l 793 357 q 744 141 793 223 q 613 22 695 59 q 431 -15 531 -15 m 592 996 q 608 960 608 978 q 591 922 608 937 q 546 907 574 907 q 506 920 522 907 q 474 950 489 933 l 429 1003 l 385 950 q 353 919 369 931 q 313 907 337 907 q 268 922 285 907 q 251 960 251 937 q 255 977 251 968 q 267 996 258 987 l 294 1025 q 356 1082 327 1063 q 429 1101 385 1101 q 502 1082 474 1101 q 565 1025 531 1063 l 592 996 z "},"Ȕ":{"ha":860,"x_min":67,"x_max":793,"o":"m 431 -15 q 248 22 331 -15 q 116 141 166 59 q 67 357 67 223 l 67 732 q 181 860 67 860 q 294 732 294 860 l 294 369 q 329 206 294 265 q 431 147 364 147 q 531 206 497 147 q 565 369 565 265 l 565 732 q 679 860 565 860 q 793 732 793 860 l 793 357 q 744 141 793 223 q 613 22 695 59 q 431 -15 531 -15 m 330 912 q 268 926 297 912 q 208 972 239 940 l 163 1017 q 143 1043 149 1030 q 138 1069 138 1057 q 150 1100 138 1088 q 183 1113 163 1113 l 212 1113 q 272 1099 251 1113 q 317 1043 292 1085 l 342 1006 q 365 947 365 969 q 355 921 365 931 q 330 912 346 912 m 564 912 q 502 926 531 912 q 441 972 473 940 l 397 1017 q 372 1069 372 1042 q 385 1100 372 1088 q 419 1113 398 1113 l 447 1113 q 506 1099 486 1113 q 551 1043 526 1084 l 577 1006 q 593 973 588 988 q 598 947 598 958 q 589 921 598 931 q 564 912 581 912 z "},"Ü":{"ha":860,"x_min":67,"x_max":793,"o":"m 431 -15 q 248 22 331 -15 q 116 141 166 59 q 67 357 67 223 l 67 732 q 181 860 67 860 q 294 732 294 860 l 294 369 q 329 206 294 265 q 431 147 364 147 q 531 206 497 147 q 565 369 565 265 l 565 732 q 679 860 565 860 q 793 732 793 860 l 793 357 q 744 141 793 223 q 613 22 695 59 q 431 -15 531 -15 m 280 921 q 199 954 232 921 q 165 1035 165 988 q 199 1119 165 1085 q 280 1153 232 1153 q 361 1119 328 1153 q 394 1035 394 1085 q 361 954 394 988 q 280 921 328 921 m 577 921 q 496 954 529 921 q 463 1035 463 988 q 496 1119 463 1085 q 577 1153 529 1153 q 659 1119 626 1153 q 693 1035 693 1085 q 659 954 693 988 q 577 921 626 921 z "},"Ǘ":{"ha":860,"x_min":67,"x_max":793,"o":"m 431 -15 q 248 22 331 -15 q 116 141 166 59 q 67 357 67 223 l 67 732 q 181 860 67 860 q 294 732 294 860 l 294 369 q 329 206 294 265 q 431 147 364 147 q 531 206 497 147 q 565 369 565 265 l 565 732 q 679 860 565 860 q 793 732 793 860 l 793 357 q 744 141 793 223 q 613 22 695 59 q 431 -15 531 -15 m 280 921 q 199 954 232 921 q 165 1035 165 988 q 199 1119 165 1085 q 280 1153 232 1153 q 361 1119 328 1153 q 394 1035 394 1085 q 361 954 394 988 q 280 921 328 921 m 577 921 q 496 954 529 921 q 463 1035 463 988 q 496 1119 463 1085 q 577 1153 529 1153 q 659 1119 626 1153 q 693 1035 693 1085 q 659 954 693 988 q 577 921 626 921 m 408 1204 q 378 1214 390 1204 q 367 1239 367 1223 q 392 1299 367 1264 l 420 1335 q 474 1391 451 1377 q 544 1406 498 1406 l 578 1406 q 618 1393 603 1406 q 633 1362 633 1381 q 603 1309 633 1335 l 553 1264 q 482 1218 517 1232 q 408 1204 447 1204 z "},"Ǚ":{"ha":860,"x_min":67,"x_max":793,"o":"m 431 -15 q 248 22 331 -15 q 116 141 166 59 q 67 357 67 223 l 67 732 q 181 860 67 860 q 294 732 294 860 l 294 369 q 329 206 294 265 q 431 147 364 147 q 531 206 497 147 q 565 369 565 265 l 565 732 q 679 860 565 860 q 793 732 793 860 l 793 357 q 744 141 793 223 q 613 22 695 59 q 431 -15 531 -15 m 280 921 q 199 954 232 921 q 165 1035 165 988 q 199 1119 165 1085 q 280 1153 232 1153 q 361 1119 328 1153 q 394 1035 394 1085 q 361 954 394 988 q 280 921 328 921 m 577 921 q 496 954 529 921 q 463 1035 463 988 q 496 1119 463 1085 q 577 1153 529 1153 q 659 1119 626 1153 q 693 1035 693 1085 q 659 954 693 988 q 577 921 626 921 m 591 1309 l 563 1280 q 502 1223 531 1242 q 429 1203 473 1203 q 356 1223 385 1203 q 294 1280 326 1242 l 267 1309 q 250 1345 250 1327 q 267 1383 250 1368 q 313 1398 285 1398 q 352 1385 336 1398 q 384 1355 369 1373 l 429 1301 l 473 1354 q 504 1385 488 1372 q 544 1398 521 1398 q 590 1383 573 1398 q 608 1345 608 1369 q 604 1328 608 1338 q 591 1309 600 1319 z "},"Ǜ":{"ha":860,"x_min":67,"x_max":793,"o":"m 431 -15 q 248 22 331 -15 q 116 141 166 59 q 67 357 67 223 l 67 732 q 181 860 67 860 q 294 732 294 860 l 294 369 q 329 206 294 265 q 431 147 364 147 q 531 206 497 147 q 565 369 565 265 l 565 732 q 679 860 565 860 q 793 732 793 860 l 793 357 q 744 141 793 223 q 613 22 695 59 q 431 -15 531 -15 m 280 921 q 199 954 232 921 q 165 1035 165 988 q 199 1119 165 1085 q 280 1153 232 1153 q 361 1119 328 1153 q 394 1035 394 1085 q 361 954 394 988 q 280 921 328 921 m 577 921 q 496 954 529 921 q 463 1035 463 988 q 496 1119 463 1085 q 577 1153 529 1153 q 659 1119 626 1153 q 693 1035 693 1085 q 659 954 693 988 q 577 921 626 921 m 469 1199 q 397 1212 431 1199 q 324 1257 362 1226 l 275 1303 q 246 1356 246 1328 q 261 1387 246 1374 q 300 1399 276 1399 l 334 1399 q 404 1385 380 1399 q 458 1329 428 1371 l 485 1292 q 511 1233 511 1257 q 500 1208 511 1217 q 469 1199 489 1199 z "},"Ǖ":{"ha":860,"x_min":67,"x_max":793,"o":"m 431 -15 q 248 22 331 -15 q 116 141 166 59 q 67 357 67 223 l 67 732 q 181 860 67 860 q 294 732 294 860 l 294 369 q 329 206 294 265 q 431 147 364 147 q 531 206 497 147 q 565 369 565 265 l 565 732 q 679 860 565 860 q 793 732 793 860 l 793 357 q 744 141 793 223 q 613 22 695 59 q 431 -15 531 -15 m 280 921 q 199 954 232 921 q 165 1035 165 988 q 199 1119 165 1085 q 280 1153 232 1153 q 361 1119 328 1153 q 394 1035 394 1085 q 361 954 394 988 q 280 921 328 921 m 577 921 q 496 954 529 921 q 463 1035 463 988 q 496 1119 463 1085 q 577 1153 529 1153 q 659 1119 626 1153 q 693 1035 693 1085 q 659 954 693 988 q 577 921 626 921 m 155 1279 q 181 1325 155 1308 q 265 1342 208 1342 l 590 1342 q 674 1325 648 1342 q 701 1279 701 1308 q 674 1233 701 1250 q 590 1216 648 1216 l 265 1216 q 181 1233 208 1216 q 155 1279 155 1250 z "},"Ụ":{"ha":860,"x_min":67,"x_max":793,"o":"m 431 -15 q 248 22 331 -15 q 116 141 166 59 q 67 357 67 223 l 67 732 q 181 860 67 860 q 294 732 294 860 l 294 369 q 329 206 294 265 q 431 147 364 147 q 531 206 497 147 q 565 369 565 265 l 565 732 q 679 860 565 860 q 793 732 793 860 l 793 357 q 744 141 793 223 q 613 22 695 59 q 431 -15 531 -15 m 429 -285 q 348 -251 381 -285 q 315 -169 315 -217 q 348 -87 315 -120 q 429 -53 381 -53 q 510 -87 477 -53 q 544 -169 544 -120 q 510 -253 544 -221 q 429 -285 477 -285 z "},"Ù":{"ha":860,"x_min":67,"x_max":793,"o":"m 431 -15 q 248 22 331 -15 q 116 141 166 59 q 67 357 67 223 l 67 732 q 181 860 67 860 q 294 732 294 860 l 294 369 q 329 206 294 265 q 431 147 364 147 q 531 206 497 147 q 565 369 565 265 l 565 732 q 679 860 565 860 q 793 732 793 860 l 793 357 q 744 141 793 223 q 613 22 695 59 q 431 -15 531 -15 m 469 907 q 397 920 431 907 q 324 965 362 934 l 275 1011 q 246 1064 246 1037 q 261 1095 246 1083 q 300 1108 276 1108 l 334 1108 q 404 1093 380 1108 q 458 1038 428 1079 l 485 1000 q 511 941 511 965 q 500 916 511 925 q 469 907 489 907 z "},"Ủ":{"ha":860,"x_min":67,"x_max":793,"o":"m 431 -15 q 248 22 331 -15 q 116 141 166 59 q 67 357 67 223 l 67 732 q 181 860 67 860 q 294 732 294 860 l 294 369 q 329 206 294 265 q 431 147 364 147 q 531 206 497 147 q 565 369 565 265 l 565 732 q 679 860 565 860 q 793 732 793 860 l 793 357 q 744 141 793 223 q 613 22 695 59 q 431 -15 531 -15 m 394 913 q 353 927 367 913 q 339 962 339 941 q 352 1000 339 984 q 394 1015 365 1015 q 451 1024 424 1015 q 477 1054 477 1033 q 452 1081 477 1075 q 400 1086 426 1086 q 358 1084 374 1086 q 326 1078 342 1083 q 310 1074 317 1075 q 297 1074 303 1074 q 269 1083 281 1074 q 257 1110 257 1092 q 298 1167 257 1147 q 406 1188 340 1188 q 500 1176 456 1188 q 572 1135 544 1164 q 601 1053 601 1106 q 567 970 601 1001 q 485 926 533 940 q 394 913 437 913 z "},"Ư":{"ha":860,"x_min":65,"x_max":991,"o":"m 429 -15 q 247 19 329 -15 q 115 132 165 53 q 65 345 65 211 l 65 732 q 179 860 65 860 q 293 732 293 860 l 293 358 q 328 200 293 253 q 429 147 363 147 q 530 200 496 147 q 565 358 565 253 l 565 732 q 678 860 565 860 q 755 873 726 860 q 800 917 784 887 q 824 994 815 947 q 851 1053 831 1029 q 908 1076 871 1076 q 970 1057 949 1076 q 991 988 991 1037 q 970 882 991 934 q 907 795 949 829 q 803 762 865 762 l 792 762 l 792 345 q 743 132 792 211 q 612 19 694 53 q 429 -15 530 -15 z "},"Ứ":{"ha":860,"x_min":65,"x_max":991,"o":"m 429 -15 q 247 19 329 -15 q 115 132 165 53 q 65 345 65 211 l 65 732 q 179 860 65 860 q 293 732 293 860 l 293 358 q 328 200 293 253 q 429 147 363 147 q 530 200 496 147 q 565 358 565 253 l 565 732 q 678 860 565 860 q 755 873 726 860 q 800 917 784 887 q 824 994 815 947 q 851 1053 831 1029 q 908 1076 871 1076 q 970 1057 949 1076 q 991 988 991 1037 q 970 882 991 934 q 907 795 949 829 q 803 762 865 762 l 792 762 l 792 345 q 743 132 792 211 q 612 19 694 53 q 429 -15 530 -15 m 403 913 q 373 922 384 913 q 362 947 362 931 q 387 1007 362 972 l 415 1044 q 469 1100 445 1085 q 539 1114 492 1114 l 572 1114 q 613 1101 598 1114 q 627 1070 627 1089 q 598 1017 627 1044 l 548 972 q 476 926 511 940 q 403 913 442 913 z "},"Ự":{"ha":860,"x_min":65,"x_max":991,"o":"m 429 -15 q 247 19 329 -15 q 115 132 165 53 q 65 345 65 211 l 65 732 q 179 860 65 860 q 293 732 293 860 l 293 358 q 328 200 293 253 q 429 147 363 147 q 530 200 496 147 q 565 358 565 253 l 565 732 q 678 860 565 860 q 755 873 726 860 q 800 917 784 887 q 824 994 815 947 q 851 1053 831 1029 q 908 1076 871 1076 q 970 1057 949 1076 q 991 988 991 1037 q 970 882 991 934 q 907 795 949 829 q 803 762 865 762 l 792 762 l 792 345 q 743 132 792 211 q 612 19 694 53 q 429 -15 530 -15 m 424 -285 q 342 -251 376 -285 q 309 -169 309 -217 q 342 -87 309 -120 q 424 -53 376 -53 q 505 -87 472 -53 q 538 -169 538 -120 q 505 -253 538 -221 q 424 -285 472 -285 z "},"Ừ":{"ha":860,"x_min":65,"x_max":991,"o":"m 429 -15 q 247 19 329 -15 q 115 132 165 53 q 65 345 65 211 l 65 732 q 179 860 65 860 q 293 732 293 860 l 293 358 q 328 200 293 253 q 429 147 363 147 q 530 200 496 147 q 565 358 565 253 l 565 732 q 678 860 565 860 q 755 873 726 860 q 800 917 784 887 q 824 994 815 947 q 851 1053 831 1029 q 908 1076 871 1076 q 970 1057 949 1076 q 991 988 991 1037 q 970 882 991 934 q 907 795 949 829 q 803 762 865 762 l 792 762 l 792 345 q 743 132 792 211 q 612 19 694 53 q 429 -15 530 -15 m 464 907 q 391 920 426 907 q 319 965 356 934 l 269 1011 q 240 1064 240 1037 q 255 1095 240 1083 q 294 1108 270 1108 l 328 1108 q 398 1093 374 1108 q 452 1038 422 1079 l 480 1000 q 506 941 506 965 q 494 916 506 925 q 464 907 483 907 z "},"Ử":{"ha":860,"x_min":65,"x_max":991,"o":"m 429 -15 q 247 19 329 -15 q 115 132 165 53 q 65 345 65 211 l 65 732 q 179 860 65 860 q 293 732 293 860 l 293 358 q 328 200 293 253 q 429 147 363 147 q 530 200 496 147 q 565 358 565 253 l 565 732 q 678 860 565 860 q 755 873 726 860 q 800 917 784 887 q 824 994 815 947 q 851 1053 831 1029 q 908 1076 871 1076 q 970 1057 949 1076 q 991 988 991 1037 q 970 882 991 934 q 907 795 949 829 q 803 762 865 762 l 792 762 l 792 345 q 743 132 792 211 q 612 19 694 53 q 429 -15 530 -15 m 388 913 q 348 927 362 913 q 333 962 333 941 q 347 1000 333 984 q 388 1015 360 1015 q 445 1024 419 1015 q 472 1054 472 1033 q 446 1081 472 1075 q 394 1086 421 1086 q 353 1084 369 1086 q 321 1078 337 1083 q 305 1074 312 1075 q 291 1074 298 1074 q 263 1083 275 1074 q 251 1110 251 1092 q 293 1167 251 1147 q 401 1188 334 1188 q 494 1176 450 1188 q 567 1135 538 1164 q 595 1053 595 1106 q 561 970 595 1001 q 479 926 527 940 q 388 913 431 913 z "},"Ữ":{"ha":860,"x_min":65,"x_max":991,"o":"m 429 -15 q 247 19 329 -15 q 115 132 165 53 q 65 345 65 211 l 65 732 q 179 860 65 860 q 293 732 293 860 l 293 358 q 328 200 293 253 q 429 147 363 147 q 530 200 496 147 q 565 358 565 253 l 565 732 q 678 860 565 860 q 755 873 726 860 q 800 917 784 887 q 824 994 815 947 q 851 1053 831 1029 q 908 1076 871 1076 q 970 1057 949 1076 q 991 988 991 1037 q 970 882 991 934 q 907 795 949 829 q 803 762 865 762 l 792 762 l 792 345 q 743 132 792 211 q 612 19 694 53 q 429 -15 530 -15 m 504 919 q 448 930 468 919 q 410 954 428 941 q 383 972 397 965 q 351 978 370 978 q 316 973 332 978 q 286 959 299 967 q 265 949 275 953 q 247 945 256 945 q 223 958 233 945 q 213 990 213 972 q 252 1065 213 1029 q 291 1089 269 1079 q 342 1099 314 1099 q 398 1090 378 1099 q 433 1067 418 1081 q 458 1047 444 1055 q 496 1038 472 1038 q 527 1044 515 1038 q 552 1058 540 1049 q 570 1068 560 1064 q 591 1072 579 1072 q 621 1061 607 1072 q 635 1026 635 1049 q 615 977 635 999 q 571 938 599 957 q 504 919 543 919 z "},"Ű":{"ha":860,"x_min":67,"x_max":793,"o":"m 431 -15 q 248 22 331 -15 q 116 141 166 59 q 67 357 67 223 l 67 732 q 181 860 67 860 q 294 732 294 860 l 294 369 q 329 206 294 265 q 431 147 364 147 q 531 206 497 147 q 565 369 565 265 l 565 732 q 679 860 565 860 q 793 732 793 860 l 793 357 q 744 141 793 223 q 613 22 695 59 q 431 -15 531 -15 m 456 995 l 482 1045 q 520 1101 503 1086 q 570 1115 538 1115 l 613 1115 q 639 1106 630 1115 q 649 1081 649 1097 q 626 1030 649 1058 l 579 973 q 533 927 551 942 q 485 913 514 913 q 456 924 469 913 q 444 953 444 934 q 456 995 444 971 m 239 995 l 265 1045 q 303 1101 286 1086 q 354 1115 321 1115 l 397 1115 q 423 1106 413 1115 q 432 1081 432 1097 q 408 1030 432 1058 l 363 973 q 316 927 335 942 q 269 913 297 913 q 240 924 252 913 q 227 953 227 934 q 239 995 227 971 z "},"Ȗ":{"ha":860,"x_min":67,"x_max":793,"o":"m 431 -15 q 248 22 331 -15 q 116 141 166 59 q 67 357 67 223 l 67 732 q 181 860 67 860 q 294 732 294 860 l 294 369 q 329 206 294 265 q 431 147 364 147 q 531 206 497 147 q 565 369 565 265 l 565 732 q 679 860 565 860 q 793 732 793 860 l 793 357 q 744 141 793 223 q 613 22 695 59 q 431 -15 531 -15 m 544 909 q 492 925 508 909 q 473 960 476 941 q 461 987 470 974 q 428 999 453 999 q 395 987 404 999 q 383 960 386 974 q 364 925 379 940 q 312 909 349 909 q 267 925 284 909 q 250 966 250 941 q 260 1005 250 984 q 292 1045 269 1026 q 347 1085 314 1069 q 427 1101 380 1101 q 515 1082 479 1101 q 572 1035 551 1063 q 599 999 591 1017 q 606 964 606 980 q 590 924 606 940 q 544 909 574 909 z "},"Ū":{"ha":860,"x_min":67,"x_max":793,"o":"m 431 -15 q 248 22 331 -15 q 116 141 166 59 q 67 357 67 223 l 67 732 q 181 860 67 860 q 294 732 294 860 l 294 369 q 329 206 294 265 q 431 147 364 147 q 531 206 497 147 q 565 369 565 265 l 565 732 q 679 860 565 860 q 793 732 793 860 l 793 357 q 744 141 793 223 q 613 22 695 59 q 431 -15 531 -15 m 155 988 q 181 1033 155 1016 q 265 1050 208 1050 l 590 1050 q 674 1033 648 1050 q 701 988 701 1016 q 674 941 701 958 q 590 924 648 924 l 265 924 q 181 941 208 924 q 155 988 155 958 z "},"Ų":{"ha":860,"x_min":67,"x_max":793,"o":"m 615 -293 q 517 -281 563 -293 q 442 -237 470 -268 q 413 -155 413 -207 q 427 -84 413 -117 q 462 -24 440 -51 q 508 19 483 2 q 553 40 532 36 l 652 40 q 620 7 638 31 q 588 -48 601 -17 q 574 -106 574 -78 q 590 -151 574 -137 q 633 -165 605 -165 q 657 -162 642 -165 q 681 -158 672 -160 q 705 -154 694 -155 q 724 -153 715 -153 q 763 -168 751 -153 q 775 -208 775 -184 q 729 -273 775 -252 q 615 -293 683 -293 m 431 -15 q 248 22 331 -15 q 116 141 166 59 q 67 357 67 223 l 67 732 q 181 860 67 860 q 294 732 294 860 l 294 369 q 329 206 294 265 q 431 147 364 147 q 531 206 497 147 q 565 369 565 265 l 565 732 q 679 860 565 860 q 793 732 793 860 l 793 357 q 744 141 793 223 q 613 22 695 59 q 431 -15 531 -15 z "},"Ů":{"ha":860,"x_min":67,"x_max":793,"o":"m 431 -15 q 248 22 331 -15 q 116 141 166 59 q 67 357 67 223 l 67 732 q 181 860 67 860 q 294 732 294 860 l 294 369 q 329 206 294 265 q 431 147 364 147 q 531 206 497 147 q 565 369 565 265 l 565 732 q 679 860 565 860 q 793 732 793 860 l 793 357 q 744 141 793 223 q 613 22 695 59 q 431 -15 531 -15 m 430 903 q 326 945 369 903 q 283 1049 283 986 q 302 1122 283 1089 q 356 1174 322 1154 q 430 1194 390 1194 q 502 1174 469 1194 q 555 1122 535 1154 q 574 1049 574 1089 q 531 945 574 986 q 430 903 488 903 m 430 1006 q 458 1018 447 1006 q 470 1050 470 1031 q 458 1077 470 1066 q 430 1089 447 1089 q 399 1077 411 1089 q 388 1050 388 1066 q 399 1018 388 1031 q 430 1006 411 1006 z "},"Ũ":{"ha":860,"x_min":67,"x_max":793,"o":"m 431 -15 q 248 22 331 -15 q 116 141 166 59 q 67 357 67 223 l 67 732 q 181 860 67 860 q 294 732 294 860 l 294 369 q 329 206 294 265 q 431 147 364 147 q 531 206 497 147 q 565 369 565 265 l 565 732 q 679 860 565 860 q 793 732 793 860 l 793 357 q 744 141 793 223 q 613 22 695 59 q 431 -15 531 -15 m 510 919 q 453 930 474 919 q 415 954 433 941 q 389 972 402 965 q 356 978 376 978 q 321 973 338 978 q 292 959 305 967 q 271 949 281 953 q 253 945 261 945 q 228 958 238 945 q 219 990 219 972 q 258 1065 219 1029 q 297 1089 274 1079 q 347 1099 319 1099 q 403 1090 383 1099 q 438 1067 424 1081 q 464 1047 450 1055 q 501 1038 478 1038 q 533 1044 520 1038 q 558 1058 546 1049 q 575 1068 566 1064 q 597 1072 585 1072 q 626 1061 613 1072 q 640 1026 640 1049 q 621 977 640 999 q 576 938 604 957 q 510 919 549 919 z "},"V":{"ha":860,"x_min":51,"x_max":807,"o":"m 445 -1 l 413 -1 q 308 27 348 -1 q 251 111 269 56 l 57 726 q 53 747 54 736 q 51 765 51 757 q 83 840 51 814 q 162 867 115 867 q 243 838 219 867 q 281 751 267 809 l 429 192 l 578 751 q 616 838 592 809 q 697 867 640 867 q 776 840 745 867 q 807 765 807 813 q 806 746 807 756 q 802 726 805 736 l 608 111 q 551 27 590 56 q 445 -1 511 -1 z "},"W":{"ha":860,"x_min":32,"x_max":826,"o":"m 226 -13 q 130 18 166 -13 q 86 110 93 49 q 81 165 85 126 q 72 259 77 204 q 62 375 67 313 q 51 498 56 436 q 41 613 45 559 q 34 704 37 666 q 32 756 32 742 q 63 838 32 810 q 143 867 94 867 q 224 835 199 867 q 250 740 249 803 l 263 281 l 331 663 q 364 749 341 722 q 429 776 387 776 q 494 749 471 776 q 527 663 517 722 l 593 284 l 606 740 q 635 835 607 803 q 720 867 664 867 q 798 838 770 867 q 826 756 826 810 q 823 707 826 744 q 817 617 821 670 q 807 502 813 564 q 796 378 801 440 q 785 260 790 315 q 777 165 781 205 q 772 110 773 126 q 728 18 765 49 q 632 -13 692 -13 l 625 -13 q 528 17 566 -13 q 483 106 491 47 l 429 431 l 376 106 q 331 17 368 47 q 234 -13 294 -13 l 226 -13 z "},"Ẃ":{"ha":860,"x_min":32,"x_max":826,"o":"m 226 -13 q 130 18 166 -13 q 86 110 93 49 q 81 165 85 126 q 72 259 77 204 q 62 375 67 313 q 51 498 56 436 q 41 613 45 559 q 34 704 37 666 q 32 756 32 742 q 63 838 32 810 q 143 867 94 867 q 224 835 199 867 q 250 740 249 803 l 263 281 l 331 663 q 364 749 341 722 q 429 776 387 776 q 494 749 471 776 q 527 663 517 722 l 593 284 l 606 740 q 635 835 607 803 q 720 867 664 867 q 798 838 770 867 q 826 756 826 810 q 823 707 826 744 q 817 617 821 670 q 807 502 813 564 q 796 378 801 440 q 785 260 790 315 q 777 165 781 205 q 772 110 773 126 q 728 18 765 49 q 632 -13 692 -13 l 625 -13 q 528 17 566 -13 q 483 106 491 47 l 429 431 l 376 106 q 331 17 368 47 q 234 -13 294 -13 l 226 -13 m 410 913 q 381 922 392 913 q 369 947 369 931 q 394 1007 369 972 l 422 1044 q 476 1100 453 1085 q 547 1114 500 1114 l 580 1114 q 620 1101 606 1114 q 635 1070 635 1089 q 606 1017 635 1044 l 556 972 q 484 926 519 940 q 410 913 449 913 z "},"Ŵ":{"ha":860,"x_min":32,"x_max":826,"o":"m 226 -13 q 130 18 166 -13 q 86 110 93 49 q 81 165 85 126 q 72 259 77 204 q 62 375 67 313 q 51 498 56 436 q 41 613 45 559 q 34 704 37 666 q 32 756 32 742 q 63 838 32 810 q 143 867 94 867 q 224 835 199 867 q 250 740 249 803 l 263 281 l 331 663 q 364 749 341 722 q 429 776 387 776 q 494 749 471 776 q 527 663 517 722 l 593 284 l 606 740 q 635 835 607 803 q 720 867 664 867 q 798 838 770 867 q 826 756 826 810 q 823 707 826 744 q 817 617 821 670 q 807 502 813 564 q 796 378 801 440 q 785 260 790 315 q 777 165 781 205 q 772 110 773 126 q 728 18 765 49 q 632 -13 692 -13 l 625 -13 q 528 17 566 -13 q 483 106 491 47 l 429 431 l 376 106 q 331 17 368 47 q 234 -13 294 -13 l 226 -13 m 594 996 q 610 960 610 978 q 593 922 610 937 q 548 907 576 907 q 508 920 524 907 q 476 950 491 933 l 431 1003 l 387 950 q 355 919 372 931 q 315 907 339 907 q 270 922 288 907 q 253 960 253 937 q 257 977 253 968 q 269 996 260 987 l 297 1025 q 358 1082 329 1063 q 431 1101 388 1101 q 505 1082 476 1101 q 567 1025 533 1063 l 594 996 z "},"Ẅ":{"ha":860,"x_min":32,"x_max":826,"o":"m 226 -13 q 130 18 166 -13 q 86 110 93 49 q 81 165 85 126 q 72 259 77 204 q 62 375 67 313 q 51 498 56 436 q 41 613 45 559 q 34 704 37 666 q 32 756 32 742 q 63 838 32 810 q 143 867 94 867 q 224 835 199 867 q 250 740 249 803 l 263 281 l 331 663 q 364 749 341 722 q 429 776 387 776 q 494 749 471 776 q 527 663 517 722 l 593 284 l 606 740 q 635 835 607 803 q 720 867 664 867 q 798 838 770 867 q 826 756 826 810 q 823 707 826 744 q 817 617 821 670 q 807 502 813 564 q 796 378 801 440 q 785 260 790 315 q 777 165 781 205 q 772 110 773 126 q 728 18 765 49 q 632 -13 692 -13 l 625 -13 q 528 17 566 -13 q 483 106 491 47 l 429 431 l 376 106 q 331 17 368 47 q 234 -13 294 -13 l 226 -13 m 282 921 q 201 954 234 921 q 167 1035 167 988 q 201 1119 167 1085 q 282 1153 234 1153 q 363 1119 330 1153 q 397 1035 397 1085 q 363 954 397 988 q 282 921 330 921 m 579 921 q 498 954 531 921 q 465 1035 465 988 q 498 1119 465 1085 q 579 1153 531 1153 q 661 1119 628 1153 q 695 1035 695 1085 q 661 954 695 988 q 579 921 628 921 z "},"Ẁ":{"ha":860,"x_min":32,"x_max":826,"o":"m 226 -13 q 130 18 166 -13 q 86 110 93 49 q 81 165 85 126 q 72 259 77 204 q 62 375 67 313 q 51 498 56 436 q 41 613 45 559 q 34 704 37 666 q 32 756 32 742 q 63 838 32 810 q 143 867 94 867 q 224 835 199 867 q 250 740 249 803 l 263 281 l 331 663 q 364 749 341 722 q 429 776 387 776 q 494 749 471 776 q 527 663 517 722 l 593 284 l 606 740 q 635 835 607 803 q 720 867 664 867 q 798 838 770 867 q 826 756 826 810 q 823 707 826 744 q 817 617 821 670 q 807 502 813 564 q 796 378 801 440 q 785 260 790 315 q 777 165 781 205 q 772 110 773 126 q 728 18 765 49 q 632 -13 692 -13 l 625 -13 q 528 17 566 -13 q 483 106 491 47 l 429 431 l 376 106 q 331 17 368 47 q 234 -13 294 -13 l 226 -13 m 472 907 q 399 920 433 907 q 326 965 364 934 l 277 1011 q 248 1064 248 1037 q 263 1095 248 1083 q 302 1108 278 1108 l 336 1108 q 406 1093 382 1108 q 460 1038 430 1079 l 488 1000 q 513 941 513 965 q 502 916 513 925 q 472 907 491 907 z "},"X":{"ha":860,"x_min":81,"x_max":780,"o":"m 190 -13 q 115 11 142 -13 q 88 72 88 36 q 94 106 88 90 q 115 146 100 123 l 304 418 l 101 717 q 85 750 89 735 q 81 781 81 766 q 113 846 81 824 q 185 869 144 869 q 236 859 217 869 q 273 827 256 849 q 313 768 290 805 l 431 578 l 547 768 q 608 846 581 824 q 680 868 635 868 q 751 847 722 868 q 780 781 780 826 q 758 716 780 747 l 557 426 l 744 146 q 766 103 760 122 q 772 68 772 85 q 743 10 772 33 q 667 -13 714 -13 q 595 11 619 -13 q 543 81 572 36 l 428 262 l 313 81 q 260 11 284 35 q 190 -13 236 -13 z "},"Y":{"ha":860,"x_min":82,"x_max":776,"o":"m 429 -13 q 315 114 315 -13 l 315 340 q 277 394 297 361 l 103 697 q 82 772 82 732 q 107 838 82 808 q 185 868 133 868 q 250 845 226 868 q 299 771 274 822 l 429 513 l 561 773 q 612 845 586 823 q 678 868 638 868 q 753 838 730 868 q 776 773 776 808 q 769 733 776 753 q 753 697 763 713 l 579 394 q 561 366 570 378 q 542 342 553 353 l 542 114 q 429 -13 542 -13 z "},"Ý":{"ha":860,"x_min":82,"x_max":776,"o":"m 429 -13 q 315 114 315 -13 l 315 340 q 277 394 297 361 l 103 697 q 82 772 82 732 q 107 838 82 808 q 185 868 133 868 q 250 845 226 868 q 299 771 274 822 l 429 513 l 561 773 q 612 845 586 823 q 678 868 638 868 q 753 838 730 868 q 776 773 776 808 q 769 733 776 753 q 753 697 763 713 l 579 394 q 561 366 570 378 q 542 342 553 353 l 542 114 q 429 -13 542 -13 m 406 913 q 376 922 388 913 q 365 947 365 931 q 390 1007 365 972 l 418 1044 q 472 1100 449 1085 q 542 1114 496 1114 l 576 1114 q 616 1101 601 1114 q 631 1070 631 1089 q 601 1017 631 1044 l 551 972 q 480 926 515 940 q 406 913 445 913 z "},"Ŷ":{"ha":860,"x_min":82,"x_max":776,"o":"m 429 -13 q 315 114 315 -13 l 315 340 q 277 394 297 361 l 103 697 q 82 772 82 732 q 107 838 82 808 q 185 868 133 868 q 250 845 226 868 q 299 771 274 822 l 429 513 l 561 773 q 612 845 586 823 q 678 868 638 868 q 753 838 730 868 q 776 773 776 808 q 769 733 776 753 q 753 697 763 713 l 579 394 q 561 366 570 378 q 542 342 553 353 l 542 114 q 429 -13 542 -13 m 590 996 q 606 960 606 978 q 589 922 606 937 q 544 907 572 907 q 503 920 520 907 q 472 950 487 933 l 427 1003 l 383 950 q 351 919 367 931 q 311 907 335 907 q 266 922 283 907 q 249 960 249 937 q 252 977 249 968 q 265 996 256 987 l 292 1025 q 354 1082 325 1063 q 427 1101 383 1101 q 500 1082 472 1101 q 563 1025 529 1063 l 590 996 z "},"Ÿ":{"ha":860,"x_min":82,"x_max":776,"o":"m 429 -13 q 315 114 315 -13 l 315 340 q 277 394 297 361 l 103 697 q 82 772 82 732 q 107 838 82 808 q 185 868 133 868 q 250 845 226 868 q 299 771 274 822 l 429 513 l 561 773 q 612 845 586 823 q 678 868 638 868 q 753 838 730 868 q 776 773 776 808 q 769 733 776 753 q 753 697 763 713 l 579 394 q 561 366 570 378 q 542 342 553 353 l 542 114 q 429 -13 542 -13 m 278 921 q 197 954 230 921 q 163 1035 163 988 q 197 1119 163 1085 q 278 1153 230 1153 q 359 1119 326 1153 q 392 1035 392 1085 q 359 954 392 988 q 278 921 326 921 m 575 921 q 494 954 527 921 q 460 1035 460 988 q 494 1119 460 1085 q 575 1153 527 1153 q 657 1119 624 1153 q 691 1035 691 1085 q 657 954 691 988 q 575 921 624 921 z "},"Ỵ":{"ha":860,"x_min":82,"x_max":776,"o":"m 429 -13 q 315 114 315 -13 l 315 340 q 277 394 297 361 l 103 697 q 82 772 82 732 q 107 838 82 808 q 185 868 133 868 q 250 845 226 868 q 299 771 274 822 l 429 513 l 561 773 q 612 845 586 823 q 678 868 638 868 q 753 838 730 868 q 776 773 776 808 q 769 733 776 753 q 753 697 763 713 l 579 394 q 561 366 570 378 q 542 342 553 353 l 542 114 q 429 -13 542 -13 m 413 -285 q 332 -251 365 -285 q 299 -169 299 -217 q 332 -87 299 -120 q 413 -53 365 -53 q 494 -87 461 -53 q 528 -169 528 -120 q 494 -253 528 -221 q 413 -285 461 -285 z "},"Ỳ":{"ha":860,"x_min":82,"x_max":776,"o":"m 429 -13 q 315 114 315 -13 l 315 340 q 277 394 297 361 l 103 697 q 82 772 82 732 q 107 838 82 808 q 185 868 133 868 q 250 845 226 868 q 299 771 274 822 l 429 513 l 561 773 q 612 845 586 823 q 678 868 638 868 q 753 838 730 868 q 776 773 776 808 q 769 733 776 753 q 753 697 763 713 l 579 394 q 561 366 570 378 q 542 342 553 353 l 542 114 q 429 -13 542 -13 m 467 907 q 394 920 429 907 q 322 965 360 934 l 273 1011 q 244 1064 244 1037 q 259 1095 244 1083 q 298 1108 274 1108 l 332 1108 q 402 1093 378 1108 q 456 1038 426 1079 l 483 1000 q 509 941 509 965 q 498 916 509 925 q 467 907 487 907 z "},"Ỷ":{"ha":860,"x_min":82,"x_max":776,"o":"m 429 -13 q 315 114 315 -13 l 315 340 q 277 394 297 361 l 103 697 q 82 772 82 732 q 107 838 82 808 q 185 868 133 868 q 250 845 226 868 q 299 771 274 822 l 429 513 l 561 773 q 612 845 586 823 q 678 868 638 868 q 753 838 730 868 q 776 773 776 808 q 769 733 776 753 q 753 697 763 713 l 579 394 q 561 366 570 378 q 542 342 553 353 l 542 114 q 429 -13 542 -13 m 392 913 q 351 927 365 913 q 337 962 337 941 q 350 1000 337 984 q 392 1015 363 1015 q 449 1024 422 1015 q 475 1054 475 1033 q 450 1081 475 1075 q 398 1086 424 1086 q 356 1084 372 1086 q 324 1078 340 1083 q 308 1074 315 1075 q 294 1074 301 1074 q 267 1083 278 1074 q 255 1110 255 1092 q 296 1167 255 1147 q 404 1188 338 1188 q 498 1176 453 1188 q 570 1135 542 1164 q 599 1053 599 1106 q 565 970 599 1001 q 483 926 531 940 q 392 913 435 913 z "},"Ȳ":{"ha":860,"x_min":82,"x_max":776,"o":"m 429 -13 q 315 114 315 -13 l 315 340 q 277 394 297 361 l 103 697 q 82 772 82 732 q 107 838 82 808 q 185 868 133 868 q 250 845 226 868 q 299 771 274 822 l 429 513 l 561 773 q 612 845 586 823 q 678 868 638 868 q 753 838 730 868 q 776 773 776 808 q 769 733 776 753 q 753 697 763 713 l 579 394 q 561 366 570 378 q 542 342 553 353 l 542 114 q 429 -13 542 -13 m 153 988 q 179 1033 153 1016 q 263 1050 206 1050 l 588 1050 q 672 1033 646 1050 q 699 988 699 1016 q 672 941 699 958 q 588 924 646 924 l 263 924 q 179 941 206 924 q 153 988 153 958 z "},"Ỹ":{"ha":860,"x_min":82,"x_max":776,"o":"m 429 -13 q 315 114 315 -13 l 315 340 q 277 394 297 361 l 103 697 q 82 772 82 732 q 107 838 82 808 q 185 868 133 868 q 250 845 226 868 q 299 771 274 822 l 429 513 l 561 773 q 612 845 586 823 q 678 868 638 868 q 753 838 730 868 q 776 773 776 808 q 769 733 776 753 q 753 697 763 713 l 579 394 q 561 366 570 378 q 542 342 553 353 l 542 114 q 429 -13 542 -13 m 508 919 q 451 930 472 919 q 413 954 431 941 q 387 972 400 965 q 354 978 374 978 q 319 973 335 978 q 290 959 303 967 q 269 949 278 953 q 251 945 259 945 q 226 958 236 945 q 217 990 217 972 q 256 1065 217 1029 q 295 1089 272 1079 q 345 1099 317 1099 q 401 1090 381 1099 q 436 1067 422 1081 q 462 1047 448 1055 q 499 1038 476 1038 q 531 1044 518 1038 q 556 1058 544 1049 q 573 1068 564 1064 q 594 1072 583 1072 q 624 1061 610 1072 q 638 1026 638 1049 q 619 977 638 999 q 574 938 602 957 q 508 919 547 919 z "},"Z":{"ha":860,"x_min":115,"x_max":727,"o":"m 347 162 l 599 162 q 694 141 661 162 q 727 81 727 119 q 694 21 727 42 q 599 0 661 0 l 242 0 q 147 30 180 0 q 115 113 115 60 q 126 171 115 148 q 163 233 138 194 l 478 698 l 253 698 q 158 719 190 698 q 125 779 125 740 q 158 839 125 819 q 253 860 190 860 l 585 860 q 680 829 647 860 q 713 744 713 798 q 702 690 713 715 q 664 627 691 666 l 347 162 z "},"Ź":{"ha":860,"x_min":115,"x_max":727,"o":"m 347 162 l 599 162 q 694 141 661 162 q 727 81 727 119 q 694 21 727 42 q 599 0 661 0 l 242 0 q 147 30 180 0 q 115 113 115 60 q 126 171 115 148 q 163 233 138 194 l 478 698 l 253 698 q 158 719 190 698 q 125 779 125 740 q 158 839 125 819 q 253 860 190 860 l 585 860 q 680 829 647 860 q 713 744 713 798 q 702 690 713 715 q 664 627 691 666 l 347 162 m 398 913 q 368 922 379 913 q 357 947 357 931 q 382 1007 357 972 l 410 1044 q 464 1100 440 1085 q 534 1114 488 1114 l 567 1114 q 608 1101 593 1114 q 622 1070 622 1089 q 593 1017 622 1044 l 543 972 q 472 926 506 940 q 398 913 437 913 z "},"Ž":{"ha":860,"x_min":115,"x_max":727,"o":"m 347 162 l 599 162 q 694 141 661 162 q 727 81 727 119 q 694 21 727 42 q 599 0 661 0 l 242 0 q 147 30 180 0 q 115 113 115 60 q 126 171 115 148 q 163 233 138 194 l 478 698 l 253 698 q 158 719 190 698 q 125 779 125 740 q 158 839 125 819 q 253 860 190 860 l 585 860 q 680 829 647 860 q 713 744 713 798 q 702 690 713 715 q 664 627 691 666 l 347 162 m 581 1017 l 553 988 q 491 931 520 951 q 419 912 463 912 q 345 931 374 912 q 283 988 316 951 l 256 1017 q 240 1053 240 1035 q 257 1091 240 1076 q 302 1106 274 1106 q 342 1094 326 1106 q 374 1063 358 1081 l 419 1010 l 463 1063 q 494 1093 477 1081 q 534 1106 510 1106 q 580 1092 563 1106 q 597 1053 597 1077 q 593 1036 597 1046 q 581 1017 590 1027 z "},"Ż":{"ha":860,"x_min":115,"x_max":727,"o":"m 347 162 l 599 162 q 694 141 661 162 q 727 81 727 119 q 694 21 727 42 q 599 0 661 0 l 242 0 q 147 30 180 0 q 115 113 115 60 q 126 171 115 148 q 163 233 138 194 l 478 698 l 253 698 q 158 719 190 698 q 125 779 125 740 q 158 839 125 819 q 253 860 190 860 l 585 860 q 680 829 647 860 q 713 744 713 798 q 702 690 713 715 q 664 627 691 666 l 347 162 m 419 922 q 338 955 371 922 q 304 1037 304 988 q 338 1119 304 1085 q 419 1153 371 1153 q 500 1119 467 1153 q 533 1037 533 1085 q 500 955 533 988 q 419 922 467 922 z "},"a":{"ha":860,"x_min":73,"x_max":832,"o":"m 650 -1 q 567 21 594 -1 q 537 82 539 44 l 536 92 q 500 45 526 69 q 432 5 474 22 q 331 -12 390 -12 q 199 14 257 -12 q 107 90 140 40 q 73 210 73 140 q 114 332 73 285 q 219 402 154 379 q 359 425 285 425 q 438 417 403 425 q 495 397 473 408 q 526 378 518 385 l 526 431 q 515 464 526 449 q 486 491 505 479 q 444 508 468 502 q 392 515 419 515 q 316 508 351 515 q 253 492 281 501 q 224 485 238 488 q 193 483 210 483 q 131 501 154 483 q 108 559 108 519 q 132 614 108 595 q 188 644 156 633 q 283 667 223 658 q 414 677 343 677 q 535 663 477 677 q 637 620 592 648 q 707 550 681 592 q 733 456 733 509 l 733 156 l 750 156 q 811 135 790 156 q 832 78 832 115 q 806 20 832 42 q 719 -1 781 -1 l 650 -1 m 526 250 q 499 272 519 260 q 452 290 478 283 q 397 297 425 297 q 314 279 347 297 q 281 217 281 261 q 295 169 281 187 q 333 143 309 151 q 387 135 357 135 q 451 150 422 135 q 499 184 480 165 q 526 219 519 204 l 526 250 z "},"á":{"ha":860,"x_min":73,"x_max":832,"o":"m 650 -1 q 567 21 594 -1 q 537 82 539 44 l 536 92 q 500 45 526 69 q 432 5 474 22 q 331 -12 390 -12 q 199 14 257 -12 q 107 90 140 40 q 73 210 73 140 q 114 332 73 285 q 219 402 154 379 q 359 425 285 425 q 438 417 403 425 q 495 397 473 408 q 526 378 518 385 l 526 431 q 515 464 526 449 q 486 491 505 479 q 444 508 468 502 q 392 515 419 515 q 316 508 351 515 q 253 492 281 501 q 224 485 238 488 q 193 483 210 483 q 131 501 154 483 q 108 559 108 519 q 132 614 108 595 q 188 644 156 633 q 283 667 223 658 q 414 677 343 677 q 535 663 477 677 q 637 620 592 648 q 707 550 681 592 q 733 456 733 509 l 733 156 l 750 156 q 811 135 790 156 q 832 78 832 115 q 806 20 832 42 q 719 -1 781 -1 l 650 -1 m 526 250 q 499 272 519 260 q 452 290 478 283 q 397 297 425 297 q 314 279 347 297 q 281 217 281 261 q 295 169 281 187 q 333 143 309 151 q 387 135 357 135 q 451 150 422 135 q 499 184 480 165 q 526 219 519 204 l 526 250 m 338 749 q 311 756 323 749 q 299 783 299 763 q 319 841 299 806 l 343 880 q 393 938 369 925 q 465 950 418 950 l 487 950 q 525 938 512 950 q 538 906 538 925 q 508 853 538 880 l 437 790 q 384 757 408 765 q 338 749 359 749 z "},"ă":{"ha":860,"x_min":73,"x_max":832,"o":"m 650 -1 q 567 21 594 -1 q 537 82 539 44 l 536 92 q 500 45 526 69 q 432 5 474 22 q 331 -12 390 -12 q 199 14 257 -12 q 107 90 140 40 q 73 210 73 140 q 114 332 73 285 q 219 402 154 379 q 359 425 285 425 q 438 417 403 425 q 495 397 473 408 q 526 378 518 385 l 526 431 q 515 464 526 449 q 486 491 505 479 q 444 508 468 502 q 392 515 419 515 q 316 508 351 515 q 253 492 281 501 q 224 485 238 488 q 193 483 210 483 q 131 501 154 483 q 108 559 108 519 q 132 614 108 595 q 188 644 156 633 q 283 667 223 658 q 414 677 343 677 q 535 663 477 677 q 637 620 592 648 q 707 550 681 592 q 733 456 733 509 l 733 156 l 750 156 q 811 135 790 156 q 832 78 832 115 q 806 20 832 42 q 719 -1 781 -1 l 650 -1 m 526 250 q 499 272 519 260 q 452 290 478 283 q 397 297 425 297 q 314 279 347 297 q 281 217 281 261 q 295 169 281 187 q 333 143 309 151 q 387 135 357 135 q 451 150 422 135 q 499 184 480 165 q 526 219 519 204 l 526 250 m 535 942 q 581 926 565 942 q 597 886 597 911 q 590 852 597 871 q 563 815 582 833 q 506 768 542 788 q 418 749 470 749 q 338 765 371 749 q 283 806 305 781 q 251 845 260 824 q 241 885 241 867 q 258 926 241 910 q 303 942 275 942 q 355 926 340 942 q 374 891 370 910 q 386 864 377 876 q 419 851 395 851 q 452 864 444 851 q 464 890 461 876 q 483 926 467 910 q 535 942 499 942 z "},"ắ":{"ha":860,"x_min":73,"x_max":832,"o":"m 650 -1 q 567 21 594 -1 q 537 82 539 44 l 536 92 q 500 45 526 69 q 432 5 474 22 q 331 -12 390 -12 q 199 14 257 -12 q 107 90 140 40 q 73 210 73 140 q 114 332 73 285 q 219 402 154 379 q 359 425 285 425 q 438 417 403 425 q 495 397 473 408 q 526 378 518 385 l 526 431 q 515 464 526 449 q 486 491 505 479 q 444 508 468 502 q 392 515 419 515 q 316 508 351 515 q 253 492 281 501 q 224 485 238 488 q 193 483 210 483 q 131 501 154 483 q 108 559 108 519 q 132 614 108 595 q 188 644 156 633 q 283 667 223 658 q 414 677 343 677 q 535 663 477 677 q 637 620 592 648 q 707 550 681 592 q 733 456 733 509 l 733 156 l 750 156 q 811 135 790 156 q 832 78 832 115 q 806 20 832 42 q 719 -1 781 -1 l 650 -1 m 526 250 q 499 272 519 260 q 452 290 478 283 q 397 297 425 297 q 314 279 347 297 q 281 217 281 261 q 295 169 281 187 q 333 143 309 151 q 387 135 357 135 q 451 150 422 135 q 499 184 480 165 q 526 219 519 204 l 526 250 m 535 942 q 581 926 565 942 q 597 886 597 911 q 590 852 597 871 q 563 815 582 833 q 506 768 542 788 q 418 749 470 749 q 338 765 371 749 q 283 806 305 781 q 251 845 260 824 q 241 885 241 867 q 258 926 241 910 q 303 942 275 942 q 355 926 340 942 q 374 891 370 910 q 386 864 377 876 q 419 851 395 851 q 452 864 444 851 q 464 890 461 876 q 483 926 467 910 q 535 942 499 942 m 338 1029 q 311 1036 323 1029 q 299 1063 299 1044 q 319 1122 299 1086 l 343 1160 q 393 1218 369 1206 q 465 1231 418 1231 l 487 1231 q 525 1218 512 1231 q 538 1186 538 1206 q 508 1134 538 1160 l 437 1070 q 384 1037 408 1045 q 338 1029 359 1029 z "},"ặ":{"ha":860,"x_min":73,"x_max":832,"o":"m 650 -1 q 567 21 594 -1 q 537 82 539 44 l 536 92 q 500 45 526 69 q 432 5 474 22 q 331 -12 390 -12 q 199 14 257 -12 q 107 90 140 40 q 73 210 73 140 q 114 332 73 285 q 219 402 154 379 q 359 425 285 425 q 438 417 403 425 q 495 397 473 408 q 526 378 518 385 l 526 431 q 515 464 526 449 q 486 491 505 479 q 444 508 468 502 q 392 515 419 515 q 316 508 351 515 q 253 492 281 501 q 224 485 238 488 q 193 483 210 483 q 131 501 154 483 q 108 559 108 519 q 132 614 108 595 q 188 644 156 633 q 283 667 223 658 q 414 677 343 677 q 535 663 477 677 q 637 620 592 648 q 707 550 681 592 q 733 456 733 509 l 733 156 l 750 156 q 811 135 790 156 q 832 78 832 115 q 806 20 832 42 q 719 -1 781 -1 l 650 -1 m 526 250 q 499 272 519 260 q 452 290 478 283 q 397 297 425 297 q 314 279 347 297 q 281 217 281 261 q 295 169 281 187 q 333 143 309 151 q 387 135 357 135 q 451 150 422 135 q 499 184 480 165 q 526 219 519 204 l 526 250 m 420 -285 q 339 -251 372 -285 q 306 -169 306 -217 q 339 -87 306 -120 q 420 -53 372 -53 q 501 -87 468 -53 q 535 -169 535 -120 q 501 -253 535 -221 q 420 -285 468 -285 m 535 942 q 581 926 565 942 q 597 886 597 911 q 590 852 597 871 q 563 815 582 833 q 506 768 542 788 q 418 749 470 749 q 338 765 371 749 q 283 806 305 781 q 251 845 260 824 q 241 885 241 867 q 258 926 241 910 q 303 942 275 942 q 355 926 340 942 q 374 891 370 910 q 386 864 377 876 q 419 851 395 851 q 452 864 444 851 q 464 890 461 876 q 483 926 467 910 q 535 942 499 942 z "},"ằ":{"ha":860,"x_min":73,"x_max":832,"o":"m 650 -1 q 567 21 594 -1 q 537 82 539 44 l 536 92 q 500 45 526 69 q 432 5 474 22 q 331 -12 390 -12 q 199 14 257 -12 q 107 90 140 40 q 73 210 73 140 q 114 332 73 285 q 219 402 154 379 q 359 425 285 425 q 438 417 403 425 q 495 397 473 408 q 526 378 518 385 l 526 431 q 515 464 526 449 q 486 491 505 479 q 444 508 468 502 q 392 515 419 515 q 316 508 351 515 q 253 492 281 501 q 224 485 238 488 q 193 483 210 483 q 131 501 154 483 q 108 559 108 519 q 132 614 108 595 q 188 644 156 633 q 283 667 223 658 q 414 677 343 677 q 535 663 477 677 q 637 620 592 648 q 707 550 681 592 q 733 456 733 509 l 733 156 l 750 156 q 811 135 790 156 q 832 78 832 115 q 806 20 832 42 q 719 -1 781 -1 l 650 -1 m 526 250 q 499 272 519 260 q 452 290 478 283 q 397 297 425 297 q 314 279 347 297 q 281 217 281 261 q 295 169 281 187 q 333 143 309 151 q 387 135 357 135 q 451 150 422 135 q 499 184 480 165 q 526 219 519 204 l 526 250 m 535 942 q 581 926 565 942 q 597 886 597 911 q 590 852 597 871 q 563 815 582 833 q 506 768 542 788 q 418 749 470 749 q 338 765 371 749 q 283 806 305 781 q 251 845 260 824 q 241 885 241 867 q 258 926 241 910 q 303 942 275 942 q 355 926 340 942 q 374 891 370 910 q 386 864 377 876 q 419 851 395 851 q 452 864 444 851 q 464 890 461 876 q 483 926 467 910 q 535 942 499 942 m 442 1029 q 397 1037 421 1029 q 344 1070 372 1044 l 273 1134 q 242 1186 242 1160 q 256 1218 242 1206 q 294 1231 269 1231 l 316 1231 q 388 1218 363 1231 q 437 1160 413 1206 l 462 1122 q 482 1063 482 1086 q 470 1036 482 1044 q 442 1029 458 1029 z "},"ẳ":{"ha":860,"x_min":73,"x_max":832,"o":"m 650 -1 q 567 21 594 -1 q 537 82 539 44 l 536 92 q 500 45 526 69 q 432 5 474 22 q 331 -12 390 -12 q 199 14 257 -12 q 107 90 140 40 q 73 210 73 140 q 114 332 73 285 q 219 402 154 379 q 359 425 285 425 q 438 417 403 425 q 495 397 473 408 q 526 378 518 385 l 526 431 q 515 464 526 449 q 486 491 505 479 q 444 508 468 502 q 392 515 419 515 q 316 508 351 515 q 253 492 281 501 q 224 485 238 488 q 193 483 210 483 q 131 501 154 483 q 108 559 108 519 q 132 614 108 595 q 188 644 156 633 q 283 667 223 658 q 414 677 343 677 q 535 663 477 677 q 637 620 592 648 q 707 550 681 592 q 733 456 733 509 l 733 156 l 750 156 q 811 135 790 156 q 832 78 832 115 q 806 20 832 42 q 719 -1 781 -1 l 650 -1 m 526 250 q 499 272 519 260 q 452 290 478 283 q 397 297 425 297 q 314 279 347 297 q 281 217 281 261 q 295 169 281 187 q 333 143 309 151 q 387 135 357 135 q 451 150 422 135 q 499 184 480 165 q 526 219 519 204 l 526 250 m 535 942 q 581 926 565 942 q 597 886 597 911 q 590 852 597 871 q 563 815 582 833 q 506 768 542 788 q 418 749 470 749 q 338 765 371 749 q 283 806 305 781 q 251 845 260 824 q 241 885 241 867 q 258 926 241 910 q 303 942 275 942 q 355 926 340 942 q 374 891 370 910 q 386 864 377 876 q 419 851 395 851 q 452 864 444 851 q 464 890 461 876 q 483 926 467 910 q 535 942 499 942 m 385 1007 q 330 1051 330 1007 q 343 1085 330 1072 q 385 1098 356 1098 q 444 1109 415 1098 q 474 1142 474 1121 q 449 1172 474 1163 q 397 1181 424 1181 q 355 1176 372 1181 q 325 1167 338 1172 q 305 1163 317 1164 q 287 1162 294 1162 q 260 1171 272 1162 q 248 1199 248 1180 q 289 1250 248 1231 q 397 1269 331 1269 q 489 1258 447 1269 q 559 1219 532 1247 q 585 1141 585 1191 q 553 1060 585 1090 q 474 1019 521 1031 q 385 1007 428 1007 z "},"ẵ":{"ha":860,"x_min":73,"x_max":832,"o":"m 650 -1 q 567 21 594 -1 q 537 82 539 44 l 536 92 q 500 45 526 69 q 432 5 474 22 q 331 -12 390 -12 q 199 14 257 -12 q 107 90 140 40 q 73 210 73 140 q 114 332 73 285 q 219 402 154 379 q 359 425 285 425 q 438 417 403 425 q 495 397 473 408 q 526 378 518 385 l 526 431 q 515 464 526 449 q 486 491 505 479 q 444 508 468 502 q 392 515 419 515 q 316 508 351 515 q 253 492 281 501 q 224 485 238 488 q 193 483 210 483 q 131 501 154 483 q 108 559 108 519 q 132 614 108 595 q 188 644 156 633 q 283 667 223 658 q 414 677 343 677 q 535 663 477 677 q 637 620 592 648 q 707 550 681 592 q 733 456 733 509 l 733 156 l 750 156 q 811 135 790 156 q 832 78 832 115 q 806 20 832 42 q 719 -1 781 -1 l 650 -1 m 526 250 q 499 272 519 260 q 452 290 478 283 q 397 297 425 297 q 314 279 347 297 q 281 217 281 261 q 295 169 281 187 q 333 143 309 151 q 387 135 357 135 q 451 150 422 135 q 499 184 480 165 q 526 219 519 204 l 526 250 m 535 942 q 581 926 565 942 q 597 886 597 911 q 590 852 597 871 q 563 815 582 833 q 506 768 542 788 q 418 749 470 749 q 338 765 371 749 q 283 806 305 781 q 251 845 260 824 q 241 885 241 867 q 258 926 241 910 q 303 942 275 942 q 355 926 340 942 q 374 891 370 910 q 386 864 377 876 q 419 851 395 851 q 452 864 444 851 q 464 890 461 876 q 483 926 467 910 q 535 942 499 942 m 500 1013 q 444 1023 465 1013 q 406 1047 424 1034 q 380 1065 393 1058 q 347 1072 367 1072 q 312 1066 328 1072 q 283 1052 296 1060 q 243 1038 259 1038 q 219 1051 229 1038 q 210 1083 210 1065 q 249 1158 210 1123 q 288 1183 265 1173 q 338 1192 310 1192 q 394 1183 374 1192 q 429 1160 415 1174 q 455 1140 441 1149 q 492 1132 469 1132 q 524 1137 510 1132 q 549 1151 537 1142 q 566 1161 557 1157 q 588 1166 576 1166 q 617 1154 603 1166 q 631 1119 631 1142 q 612 1070 631 1092 q 567 1031 595 1050 q 500 1013 540 1013 z "},"ǎ":{"ha":860,"x_min":73,"x_max":832,"o":"m 650 -1 q 567 21 594 -1 q 537 82 539 44 l 536 92 q 500 45 526 69 q 432 5 474 22 q 331 -12 390 -12 q 199 14 257 -12 q 107 90 140 40 q 73 210 73 140 q 114 332 73 285 q 219 402 154 379 q 359 425 285 425 q 438 417 403 425 q 495 397 473 408 q 526 378 518 385 l 526 431 q 515 464 526 449 q 486 491 505 479 q 444 508 468 502 q 392 515 419 515 q 316 508 351 515 q 253 492 281 501 q 224 485 238 488 q 193 483 210 483 q 131 501 154 483 q 108 559 108 519 q 132 614 108 595 q 188 644 156 633 q 283 667 223 658 q 414 677 343 677 q 535 663 477 677 q 637 620 592 648 q 707 550 681 592 q 733 456 733 509 l 733 156 l 750 156 q 811 135 790 156 q 832 78 832 115 q 806 20 832 42 q 719 -1 781 -1 l 650 -1 m 526 250 q 499 272 519 260 q 452 290 478 283 q 397 297 425 297 q 314 279 347 297 q 281 217 281 261 q 295 169 281 187 q 333 143 309 151 q 387 135 357 135 q 451 150 422 135 q 499 184 480 165 q 526 219 519 204 l 526 250 m 583 844 l 556 815 q 493 759 522 778 q 420 740 465 740 q 347 759 376 740 q 285 815 318 778 l 258 844 q 242 881 242 861 q 259 919 242 904 q 304 933 276 933 q 344 921 328 933 q 376 891 360 909 l 420 838 l 465 890 q 497 921 480 908 q 537 933 513 933 q 582 919 565 933 q 599 881 599 904 q 583 844 599 863 z "},"â":{"ha":860,"x_min":73,"x_max":832,"o":"m 650 -1 q 567 21 594 -1 q 537 82 539 44 l 536 92 q 500 45 526 69 q 432 5 474 22 q 331 -12 390 -12 q 199 14 257 -12 q 107 90 140 40 q 73 210 73 140 q 114 332 73 285 q 219 402 154 379 q 359 425 285 425 q 438 417 403 425 q 495 397 473 408 q 526 378 518 385 l 526 431 q 515 464 526 449 q 486 491 505 479 q 444 508 468 502 q 392 515 419 515 q 316 508 351 515 q 253 492 281 501 q 224 485 238 488 q 193 483 210 483 q 131 501 154 483 q 108 559 108 519 q 132 614 108 595 q 188 644 156 633 q 283 667 223 658 q 414 677 343 677 q 535 663 477 677 q 637 620 592 648 q 707 550 681 592 q 733 456 733 509 l 733 156 l 750 156 q 811 135 790 156 q 832 78 832 115 q 806 20 832 42 q 719 -1 781 -1 l 650 -1 m 526 250 q 499 272 519 260 q 452 290 478 283 q 397 297 425 297 q 314 279 347 297 q 281 217 281 261 q 295 169 281 187 q 333 143 309 151 q 387 135 357 135 q 451 150 422 135 q 499 184 480 165 q 526 219 519 204 l 526 250 m 583 828 q 599 792 599 810 q 582 754 599 769 q 537 740 565 740 q 497 752 513 740 q 465 783 480 765 l 420 835 l 376 782 q 344 752 360 764 q 304 740 328 740 q 259 754 276 740 q 242 792 242 769 q 258 828 242 812 l 285 858 q 347 914 318 895 q 420 933 376 933 q 493 914 465 933 q 556 858 522 895 l 583 828 z "},"ấ":{"ha":860,"x_min":73,"x_max":832,"o":"m 650 -1 q 567 21 594 -1 q 537 82 539 44 l 536 92 q 500 45 526 69 q 432 5 474 22 q 331 -12 390 -12 q 199 14 257 -12 q 107 90 140 40 q 73 210 73 140 q 114 332 73 285 q 219 402 154 379 q 359 425 285 425 q 438 417 403 425 q 495 397 473 408 q 526 378 518 385 l 526 431 q 515 464 526 449 q 486 491 505 479 q 444 508 468 502 q 392 515 419 515 q 316 508 351 515 q 253 492 281 501 q 224 485 238 488 q 193 483 210 483 q 131 501 154 483 q 108 559 108 519 q 132 614 108 595 q 188 644 156 633 q 283 667 223 658 q 414 677 343 677 q 535 663 477 677 q 637 620 592 648 q 707 550 681 592 q 733 456 733 509 l 733 156 l 750 156 q 811 135 790 156 q 832 78 832 115 q 806 20 832 42 q 719 -1 781 -1 l 650 -1 m 526 250 q 499 272 519 260 q 452 290 478 283 q 397 297 425 297 q 314 279 347 297 q 281 217 281 261 q 295 169 281 187 q 333 143 309 151 q 387 135 357 135 q 451 150 422 135 q 499 184 480 165 q 526 219 519 204 l 526 250 m 583 828 q 599 792 599 810 q 582 754 599 769 q 537 740 565 740 q 497 752 513 740 q 465 783 480 765 l 420 835 l 376 782 q 344 752 360 764 q 304 740 328 740 q 259 754 276 740 q 242 792 242 769 q 258 828 242 812 l 285 858 q 347 914 318 895 q 420 933 376 933 q 493 914 465 933 q 556 858 522 895 l 583 828 m 592 876 q 566 884 578 876 q 553 910 553 891 q 574 969 553 933 l 598 1008 q 648 1065 624 1053 q 719 1078 673 1078 l 742 1078 q 780 1065 767 1078 q 793 1033 793 1053 q 763 981 793 1008 l 692 917 q 639 884 663 892 q 592 876 614 876 z "},"ậ":{"ha":860,"x_min":73,"x_max":832,"o":"m 650 -1 q 567 21 594 -1 q 537 82 539 44 l 536 92 q 500 45 526 69 q 432 5 474 22 q 331 -12 390 -12 q 199 14 257 -12 q 107 90 140 40 q 73 210 73 140 q 114 332 73 285 q 219 402 154 379 q 359 425 285 425 q 438 417 403 425 q 495 397 473 408 q 526 378 518 385 l 526 431 q 515 464 526 449 q 486 491 505 479 q 444 508 468 502 q 392 515 419 515 q 316 508 351 515 q 253 492 281 501 q 224 485 238 488 q 193 483 210 483 q 131 501 154 483 q 108 559 108 519 q 132 614 108 595 q 188 644 156 633 q 283 667 223 658 q 414 677 343 677 q 535 663 477 677 q 637 620 592 648 q 707 550 681 592 q 733 456 733 509 l 733 156 l 750 156 q 811 135 790 156 q 832 78 832 115 q 806 20 832 42 q 719 -1 781 -1 l 650 -1 m 526 250 q 499 272 519 260 q 452 290 478 283 q 397 297 425 297 q 314 279 347 297 q 281 217 281 261 q 295 169 281 187 q 333 143 309 151 q 387 135 357 135 q 451 150 422 135 q 499 184 480 165 q 526 219 519 204 l 526 250 m 420 -285 q 339 -251 372 -285 q 306 -169 306 -217 q 339 -87 306 -120 q 420 -53 372 -53 q 501 -87 468 -53 q 535 -169 535 -120 q 501 -253 535 -221 q 420 -285 468 -285 m 583 828 q 599 792 599 810 q 582 754 599 769 q 537 740 565 740 q 497 752 513 740 q 465 783 480 765 l 420 835 l 376 782 q 344 752 360 764 q 304 740 328 740 q 259 754 276 740 q 242 792 242 769 q 258 828 242 812 l 285 858 q 347 914 318 895 q 420 933 376 933 q 493 914 465 933 q 556 858 522 895 l 583 828 z "},"ầ":{"ha":860,"x_min":73,"x_max":832,"o":"m 650 -1 q 567 21 594 -1 q 537 82 539 44 l 536 92 q 500 45 526 69 q 432 5 474 22 q 331 -12 390 -12 q 199 14 257 -12 q 107 90 140 40 q 73 210 73 140 q 114 332 73 285 q 219 402 154 379 q 359 425 285 425 q 438 417 403 425 q 495 397 473 408 q 526 378 518 385 l 526 431 q 515 464 526 449 q 486 491 505 479 q 444 508 468 502 q 392 515 419 515 q 316 508 351 515 q 253 492 281 501 q 224 485 238 488 q 193 483 210 483 q 131 501 154 483 q 108 559 108 519 q 132 614 108 595 q 188 644 156 633 q 283 667 223 658 q 414 677 343 677 q 535 663 477 677 q 637 620 592 648 q 707 550 681 592 q 733 456 733 509 l 733 156 l 750 156 q 811 135 790 156 q 832 78 832 115 q 806 20 832 42 q 719 -1 781 -1 l 650 -1 m 526 250 q 499 272 519 260 q 452 290 478 283 q 397 297 425 297 q 314 279 347 297 q 281 217 281 261 q 295 169 281 187 q 333 143 309 151 q 387 135 357 135 q 451 150 422 135 q 499 184 480 165 q 526 219 519 204 l 526 250 m 583 828 q 599 792 599 810 q 582 754 599 769 q 537 740 565 740 q 497 752 513 740 q 465 783 480 765 l 420 835 l 376 782 q 344 752 360 764 q 304 740 328 740 q 259 754 276 740 q 242 792 242 769 q 258 828 242 812 l 285 858 q 347 914 318 895 q 420 933 376 933 q 493 914 465 933 q 556 858 522 895 l 583 828 m 656 876 q 610 884 634 876 q 557 917 585 892 l 486 981 q 456 1033 456 1008 q 469 1065 456 1053 q 507 1078 483 1078 l 529 1078 q 601 1065 576 1078 q 650 1008 626 1053 l 675 969 q 695 910 695 933 q 683 884 695 891 q 656 876 672 876 z "},"ẩ":{"ha":860,"x_min":73,"x_max":832,"o":"m 650 -1 q 567 21 594 -1 q 537 82 539 44 l 536 92 q 500 45 526 69 q 432 5 474 22 q 331 -12 390 -12 q 199 14 257 -12 q 107 90 140 40 q 73 210 73 140 q 114 332 73 285 q 219 402 154 379 q 359 425 285 425 q 438 417 403 425 q 495 397 473 408 q 526 378 518 385 l 526 431 q 515 464 526 449 q 486 491 505 479 q 444 508 468 502 q 392 515 419 515 q 316 508 351 515 q 253 492 281 501 q 224 485 238 488 q 193 483 210 483 q 131 501 154 483 q 108 559 108 519 q 132 614 108 595 q 188 644 156 633 q 283 667 223 658 q 414 677 343 677 q 535 663 477 677 q 637 620 592 648 q 707 550 681 592 q 733 456 733 509 l 733 156 l 750 156 q 811 135 790 156 q 832 78 832 115 q 806 20 832 42 q 719 -1 781 -1 l 650 -1 m 526 250 q 499 272 519 260 q 452 290 478 283 q 397 297 425 297 q 314 279 347 297 q 281 217 281 261 q 295 169 281 187 q 333 143 309 151 q 387 135 357 135 q 451 150 422 135 q 499 184 480 165 q 526 219 519 204 l 526 250 m 583 828 q 599 792 599 810 q 582 754 599 769 q 537 740 565 740 q 497 752 513 740 q 465 783 480 765 l 420 835 l 376 782 q 344 752 360 764 q 304 740 328 740 q 259 754 276 740 q 242 792 242 769 q 258 828 242 812 l 285 858 q 347 914 318 895 q 420 933 376 933 q 493 914 465 933 q 556 858 522 895 l 583 828 m 597 888 q 542 932 542 888 q 555 966 542 953 q 597 979 568 979 q 656 991 627 979 q 685 1024 685 1002 q 660 1053 685 1044 q 609 1062 635 1062 q 567 1058 583 1062 q 537 1049 550 1053 q 517 1044 528 1045 q 499 1043 506 1043 q 472 1052 483 1043 q 460 1080 460 1061 q 501 1131 460 1112 q 609 1151 542 1151 q 701 1139 658 1151 q 770 1100 744 1128 q 797 1022 797 1072 q 765 942 797 971 q 686 900 733 913 q 597 888 640 888 z "},"ẫ":{"ha":860,"x_min":73,"x_max":832,"o":"m 650 -1 q 567 21 594 -1 q 537 82 539 44 l 536 92 q 500 45 526 69 q 432 5 474 22 q 331 -12 390 -12 q 199 14 257 -12 q 107 90 140 40 q 73 210 73 140 q 114 332 73 285 q 219 402 154 379 q 359 425 285 425 q 438 417 403 425 q 495 397 473 408 q 526 378 518 385 l 526 431 q 515 464 526 449 q 486 491 505 479 q 444 508 468 502 q 392 515 419 515 q 316 508 351 515 q 253 492 281 501 q 224 485 238 488 q 193 483 210 483 q 131 501 154 483 q 108 559 108 519 q 132 614 108 595 q 188 644 156 633 q 283 667 223 658 q 414 677 343 677 q 535 663 477 677 q 637 620 592 648 q 707 550 681 592 q 733 456 733 509 l 733 156 l 750 156 q 811 135 790 156 q 832 78 832 115 q 806 20 832 42 q 719 -1 781 -1 l 650 -1 m 526 250 q 499 272 519 260 q 452 290 478 283 q 397 297 425 297 q 314 279 347 297 q 281 217 281 261 q 295 169 281 187 q 333 143 309 151 q 387 135 357 135 q 451 150 422 135 q 499 184 480 165 q 526 219 519 204 l 526 250 m 583 828 q 599 792 599 810 q 582 754 599 769 q 537 740 565 740 q 497 752 513 740 q 465 783 480 765 l 420 835 l 376 782 q 344 752 360 764 q 304 740 328 740 q 259 754 276 740 q 242 792 242 769 q 258 828 242 812 l 285 858 q 347 914 318 895 q 420 933 376 933 q 493 914 465 933 q 556 858 522 895 l 583 828 m 500 1004 q 444 1015 465 1004 q 406 1039 424 1026 q 380 1057 393 1050 q 347 1063 367 1063 q 312 1057 328 1063 q 283 1044 296 1051 q 243 1030 259 1030 q 219 1043 229 1030 q 210 1075 210 1056 q 249 1149 210 1115 q 288 1174 265 1165 q 338 1184 310 1184 q 394 1175 374 1184 q 429 1152 415 1166 q 455 1132 441 1140 q 492 1124 469 1124 q 524 1129 510 1124 q 549 1143 537 1134 q 566 1153 557 1149 q 588 1158 576 1158 q 617 1146 603 1158 q 631 1110 631 1134 q 612 1062 631 1084 q 567 1023 595 1042 q 500 1004 540 1004 z "},"ȁ":{"ha":860,"x_min":73,"x_max":832,"o":"m 650 -1 q 567 21 594 -1 q 537 82 539 44 l 536 92 q 500 45 526 69 q 432 5 474 22 q 331 -12 390 -12 q 199 14 257 -12 q 107 90 140 40 q 73 210 73 140 q 114 332 73 285 q 219 402 154 379 q 359 425 285 425 q 438 417 403 425 q 495 397 473 408 q 526 378 518 385 l 526 431 q 515 464 526 449 q 486 491 505 479 q 444 508 468 502 q 392 515 419 515 q 316 508 351 515 q 253 492 281 501 q 224 485 238 488 q 193 483 210 483 q 131 501 154 483 q 108 559 108 519 q 132 614 108 595 q 188 644 156 633 q 283 667 223 658 q 414 677 343 677 q 535 663 477 677 q 637 620 592 648 q 707 550 681 592 q 733 456 733 509 l 733 156 l 750 156 q 811 135 790 156 q 832 78 832 115 q 806 20 832 42 q 719 -1 781 -1 l 650 -1 m 526 250 q 499 272 519 260 q 452 290 478 283 q 397 297 425 297 q 314 279 347 297 q 281 217 281 261 q 295 169 281 187 q 333 143 309 151 q 387 135 357 135 q 451 150 422 135 q 499 184 480 165 q 526 219 519 204 l 526 250 m 326 749 q 264 763 293 749 q 204 808 235 776 l 159 853 q 140 880 146 867 q 134 906 134 894 q 147 938 134 925 q 180 950 159 950 l 208 950 q 268 936 248 950 q 314 880 289 922 l 338 843 q 360 783 360 806 q 351 758 360 767 q 326 749 342 749 m 560 749 q 499 763 528 749 q 438 808 469 776 l 394 853 q 369 906 369 879 q 381 938 369 925 q 415 950 394 950 l 443 950 q 503 935 483 950 q 548 880 524 921 l 574 843 q 594 783 594 809 q 586 758 594 767 q 560 749 577 749 z "},"ä":{"ha":860,"x_min":73,"x_max":832,"o":"m 650 -1 q 567 21 594 -1 q 537 82 539 44 l 536 92 q 500 45 526 69 q 432 5 474 22 q 331 -12 390 -12 q 199 14 257 -12 q 107 90 140 40 q 73 210 73 140 q 114 332 73 285 q 219 402 154 379 q 359 425 285 425 q 438 417 403 425 q 495 397 473 408 q 526 378 518 385 l 526 431 q 515 464 526 449 q 486 491 505 479 q 444 508 468 502 q 392 515 419 515 q 316 508 351 515 q 253 492 281 501 q 224 485 238 488 q 193 483 210 483 q 131 501 154 483 q 108 559 108 519 q 132 614 108 595 q 188 644 156 633 q 283 667 223 658 q 414 677 343 677 q 535 663 477 677 q 637 620 592 648 q 707 550 681 592 q 733 456 733 509 l 733 156 l 750 156 q 811 135 790 156 q 832 78 832 115 q 806 20 832 42 q 719 -1 781 -1 l 650 -1 m 526 250 q 499 272 519 260 q 452 290 478 283 q 397 297 425 297 q 314 279 347 297 q 281 217 281 261 q 295 169 281 187 q 333 143 309 151 q 387 135 357 135 q 451 150 422 135 q 499 184 480 165 q 526 219 519 204 l 526 250 m 271 741 q 190 774 223 741 q 156 856 156 808 q 190 939 156 906 q 271 973 223 973 q 352 939 319 973 q 385 856 385 906 q 352 774 385 808 q 271 741 319 741 m 568 741 q 487 774 520 741 q 453 856 453 808 q 487 939 453 906 q 568 973 520 973 q 650 939 617 973 q 684 856 684 906 q 650 774 684 808 q 568 741 617 741 z "},"ạ":{"ha":860,"x_min":73,"x_max":832,"o":"m 650 -1 q 567 21 594 -1 q 537 82 539 44 l 536 92 q 500 45 526 69 q 432 5 474 22 q 331 -12 390 -12 q 199 14 257 -12 q 107 90 140 40 q 73 210 73 140 q 114 332 73 285 q 219 402 154 379 q 359 425 285 425 q 438 417 403 425 q 495 397 473 408 q 526 378 518 385 l 526 431 q 515 464 526 449 q 486 491 505 479 q 444 508 468 502 q 392 515 419 515 q 316 508 351 515 q 253 492 281 501 q 224 485 238 488 q 193 483 210 483 q 131 501 154 483 q 108 559 108 519 q 132 614 108 595 q 188 644 156 633 q 283 667 223 658 q 414 677 343 677 q 535 663 477 677 q 637 620 592 648 q 707 550 681 592 q 733 456 733 509 l 733 156 l 750 156 q 811 135 790 156 q 832 78 832 115 q 806 20 832 42 q 719 -1 781 -1 l 650 -1 m 526 250 q 499 272 519 260 q 452 290 478 283 q 397 297 425 297 q 314 279 347 297 q 281 217 281 261 q 295 169 281 187 q 333 143 309 151 q 387 135 357 135 q 451 150 422 135 q 499 184 480 165 q 526 219 519 204 l 526 250 m 420 -285 q 339 -251 372 -285 q 306 -169 306 -217 q 339 -87 306 -120 q 420 -53 372 -53 q 501 -87 468 -53 q 535 -169 535 -120 q 501 -253 535 -221 q 420 -285 468 -285 z "},"à":{"ha":860,"x_min":73,"x_max":832,"o":"m 650 -1 q 567 21 594 -1 q 537 82 539 44 l 536 92 q 500 45 526 69 q 432 5 474 22 q 331 -12 390 -12 q 199 14 257 -12 q 107 90 140 40 q 73 210 73 140 q 114 332 73 285 q 219 402 154 379 q 359 425 285 425 q 438 417 403 425 q 495 397 473 408 q 526 378 518 385 l 526 431 q 515 464 526 449 q 486 491 505 479 q 444 508 468 502 q 392 515 419 515 q 316 508 351 515 q 253 492 281 501 q 224 485 238 488 q 193 483 210 483 q 131 501 154 483 q 108 559 108 519 q 132 614 108 595 q 188 644 156 633 q 283 667 223 658 q 414 677 343 677 q 535 663 477 677 q 637 620 592 648 q 707 550 681 592 q 733 456 733 509 l 733 156 l 750 156 q 811 135 790 156 q 832 78 832 115 q 806 20 832 42 q 719 -1 781 -1 l 650 -1 m 526 250 q 499 272 519 260 q 452 290 478 283 q 397 297 425 297 q 314 279 347 297 q 281 217 281 261 q 295 169 281 187 q 333 143 309 151 q 387 135 357 135 q 451 150 422 135 q 499 184 480 165 q 526 219 519 204 l 526 250 m 442 749 q 397 756 421 749 q 344 790 372 764 l 273 853 q 242 906 242 880 q 256 938 242 925 q 294 950 269 950 l 316 950 q 388 938 363 950 q 437 880 413 925 l 462 841 q 482 783 482 806 q 470 756 482 763 q 442 749 458 749 z "},"ả":{"ha":860,"x_min":73,"x_max":832,"o":"m 650 -1 q 567 21 594 -1 q 537 82 539 44 l 536 92 q 500 45 526 69 q 432 5 474 22 q 331 -12 390 -12 q 199 14 257 -12 q 107 90 140 40 q 73 210 73 140 q 114 332 73 285 q 219 402 154 379 q 359 425 285 425 q 438 417 403 425 q 495 397 473 408 q 526 378 518 385 l 526 431 q 515 464 526 449 q 486 491 505 479 q 444 508 468 502 q 392 515 419 515 q 316 508 351 515 q 253 492 281 501 q 224 485 238 488 q 193 483 210 483 q 131 501 154 483 q 108 559 108 519 q 132 614 108 595 q 188 644 156 633 q 283 667 223 658 q 414 677 343 677 q 535 663 477 677 q 637 620 592 648 q 707 550 681 592 q 733 456 733 509 l 733 156 l 750 156 q 811 135 790 156 q 832 78 832 115 q 806 20 832 42 q 719 -1 781 -1 l 650 -1 m 526 250 q 499 272 519 260 q 452 290 478 283 q 397 297 425 297 q 314 279 347 297 q 281 217 281 261 q 295 169 281 187 q 333 143 309 151 q 387 135 357 135 q 451 150 422 135 q 499 184 480 165 q 526 219 519 204 l 526 250 m 385 726 q 330 770 330 726 q 343 805 330 792 q 385 817 356 817 q 444 829 415 817 q 474 862 474 840 q 449 891 474 882 q 397 900 424 900 q 355 896 372 900 q 325 887 338 892 q 305 882 317 883 q 287 881 294 881 q 260 890 272 881 q 248 918 248 899 q 289 969 248 950 q 397 989 331 989 q 489 977 447 989 q 559 938 532 966 q 585 860 585 910 q 553 780 585 809 q 474 739 521 751 q 385 726 428 726 z "},"ȃ":{"ha":860,"x_min":73,"x_max":832,"o":"m 650 -1 q 567 21 594 -1 q 537 82 539 44 l 536 92 q 500 45 526 69 q 432 5 474 22 q 331 -12 390 -12 q 199 14 257 -12 q 107 90 140 40 q 73 210 73 140 q 114 332 73 285 q 219 402 154 379 q 359 425 285 425 q 438 417 403 425 q 495 397 473 408 q 526 378 518 385 l 526 431 q 515 464 526 449 q 486 491 505 479 q 444 508 468 502 q 392 515 419 515 q 316 508 351 515 q 253 492 281 501 q 224 485 238 488 q 193 483 210 483 q 131 501 154 483 q 108 559 108 519 q 132 614 108 595 q 188 644 156 633 q 283 667 223 658 q 414 677 343 677 q 535 663 477 677 q 637 620 592 648 q 707 550 681 592 q 733 456 733 509 l 733 156 l 750 156 q 811 135 790 156 q 832 78 832 115 q 806 20 832 42 q 719 -1 781 -1 l 650 -1 m 526 250 q 499 272 519 260 q 452 290 478 283 q 397 297 425 297 q 314 279 347 297 q 281 217 281 261 q 295 169 281 187 q 333 143 309 151 q 387 135 357 135 q 451 150 422 135 q 499 184 480 165 q 526 219 519 204 l 526 250 m 535 751 q 483 767 499 751 q 464 802 467 783 q 452 829 461 817 q 419 842 444 842 q 386 829 395 842 q 374 802 377 816 q 355 766 370 782 q 303 751 340 751 q 258 767 275 751 q 241 808 241 783 q 251 847 241 826 q 283 887 260 868 q 338 927 305 911 q 418 943 371 943 q 506 924 470 943 q 563 878 542 905 q 590 840 582 859 q 597 806 597 822 q 581 766 597 781 q 535 751 565 751 z "},"ā":{"ha":860,"x_min":73,"x_max":832,"o":"m 650 -1 q 567 21 594 -1 q 537 82 539 44 l 536 92 q 500 45 526 69 q 432 5 474 22 q 331 -12 390 -12 q 199 14 257 -12 q 107 90 140 40 q 73 210 73 140 q 114 332 73 285 q 219 402 154 379 q 359 425 285 425 q 438 417 403 425 q 495 397 473 408 q 526 378 518 385 l 526 431 q 515 464 526 449 q 486 491 505 479 q 444 508 468 502 q 392 515 419 515 q 316 508 351 515 q 253 492 281 501 q 224 485 238 488 q 193 483 210 483 q 131 501 154 483 q 108 559 108 519 q 132 614 108 595 q 188 644 156 633 q 283 667 223 658 q 414 677 343 677 q 535 663 477 677 q 637 620 592 648 q 707 550 681 592 q 733 456 733 509 l 733 156 l 750 156 q 811 135 790 156 q 832 78 832 115 q 806 20 832 42 q 719 -1 781 -1 l 650 -1 m 526 250 q 499 272 519 260 q 452 290 478 283 q 397 297 425 297 q 314 279 347 297 q 281 217 281 261 q 295 169 281 187 q 333 143 309 151 q 387 135 357 135 q 451 150 422 135 q 499 184 480 165 q 526 219 519 204 l 526 250 m 147 846 q 174 892 147 874 q 258 909 200 909 l 583 909 q 667 892 640 909 q 693 846 693 874 q 667 800 693 817 q 583 783 640 783 l 258 783 q 174 800 200 783 q 147 846 147 817 z "},"ą":{"ha":860,"x_min":73,"x_max":847,"o":"m 650 -1 q 567 21 594 -1 q 537 82 539 44 l 536 92 q 500 45 526 69 q 432 5 474 22 q 331 -12 390 -12 q 199 14 257 -12 q 107 90 140 40 q 73 210 73 140 q 114 332 73 285 q 219 402 154 379 q 359 425 285 425 q 438 417 403 425 q 495 397 473 408 q 526 378 518 385 l 526 431 q 515 464 526 449 q 486 491 505 479 q 444 508 468 502 q 392 515 419 515 q 316 508 351 515 q 253 492 281 501 q 224 485 238 488 q 193 483 210 483 q 131 501 154 483 q 108 559 108 519 q 132 614 108 595 q 188 644 156 633 q 283 667 223 658 q 414 677 343 677 q 535 663 477 677 q 637 620 592 648 q 707 550 681 592 q 733 456 733 509 l 733 156 l 750 156 q 811 135 790 156 q 832 78 832 115 q 806 20 832 42 q 719 -1 781 -1 l 650 -1 m 526 250 q 499 272 519 260 q 452 290 478 283 q 397 297 425 297 q 314 279 347 297 q 281 217 281 261 q 295 169 281 187 q 333 143 309 151 q 387 135 357 135 q 451 150 422 135 q 499 184 480 165 q 526 219 519 204 l 526 250 m 687 -333 q 589 -321 635 -333 q 514 -278 542 -308 q 485 -194 485 -247 q 499 -124 485 -158 q 534 -64 513 -90 q 580 -21 556 -37 q 625 0 603 -4 l 724 0 q 692 -33 710 -9 q 660 -88 674 -58 q 647 -147 647 -119 q 662 -191 647 -177 q 704 -205 677 -205 q 729 -203 714 -205 q 753 -199 744 -201 q 776 -194 765 -195 q 796 -193 788 -193 q 835 -209 824 -193 q 847 -249 847 -224 q 800 -313 847 -292 q 687 -333 754 -333 z "},"å":{"ha":860,"x_min":73,"x_max":832,"o":"m 650 -1 q 567 21 594 -1 q 537 82 539 44 l 536 92 q 500 45 526 69 q 432 5 474 22 q 331 -12 390 -12 q 199 14 257 -12 q 107 90 140 40 q 73 210 73 140 q 114 332 73 285 q 219 402 154 379 q 359 425 285 425 q 438 417 403 425 q 495 397 473 408 q 526 378 518 385 l 526 431 q 515 464 526 449 q 486 491 505 479 q 444 508 468 502 q 392 515 419 515 q 316 508 351 515 q 253 492 281 501 q 224 485 238 488 q 193 483 210 483 q 131 501 154 483 q 108 559 108 519 q 132 614 108 595 q 188 644 156 633 q 283 667 223 658 q 414 677 343 677 q 535 663 477 677 q 637 620 592 648 q 707 550 681 592 q 733 456 733 509 l 733 156 l 750 156 q 811 135 790 156 q 832 78 832 115 q 806 20 832 42 q 719 -1 781 -1 l 650 -1 m 526 250 q 499 272 519 260 q 452 290 478 283 q 397 297 425 297 q 314 279 347 297 q 281 217 281 261 q 295 169 281 187 q 333 143 309 151 q 387 135 357 135 q 451 150 422 135 q 499 184 480 165 q 526 219 519 204 l 526 250 m 422 713 q 318 755 361 713 q 274 858 274 796 q 294 931 274 899 q 348 984 314 964 q 422 1003 381 1003 q 493 984 460 1003 q 546 931 526 964 q 566 859 566 898 q 523 755 566 796 q 422 713 480 713 m 422 815 q 450 827 438 815 q 462 859 462 840 q 450 887 462 875 q 422 899 438 899 q 391 887 403 899 q 379 859 379 875 q 391 827 379 840 q 422 815 403 815 z "}}}
